<svg width="24" height="25" viewBox="0 0 24 25" fill="none" xmlns="http://www.w3.org/2000/svg">
<path d="M6.54 5.54883C6.6 6.43883 6.75 7.30883 6.99 8.13883L5.79 9.33883C5.38 8.13883 5.12 6.86883 5.03 5.54883H6.54ZM16.4 17.5688C17.25 17.8088 18.12 17.9588 19 18.0188V19.5088C17.68 19.4188 16.41 19.1588 15.2 18.7588L16.4 17.5688ZM7.5 3.54883H4C3.45 3.54883 3 3.99883 3 4.54883C3 13.9388 10.61 21.5488 20 21.5488C20.55 21.5488 21 21.0988 21 20.5488V17.0588C21 16.5088 20.55 16.0588 20 16.0588C18.76 16.0588 17.55 15.8588 16.43 15.4888C16.3307 15.4528 16.2256 15.4359 16.12 15.4388C15.86 15.4388 15.61 15.5388 15.41 15.7288L13.21 17.9288C10.3754 16.4792 8.06961 14.1734 6.62 11.3388L8.82 9.13883C9.1 8.85883 9.18 8.46883 9.07 8.11883C8.69065 6.96688 8.49821 5.76163 8.5 4.54883C8.5 3.99883 8.05 3.54883 7.5 3.54883Z" fill="#111827"/>
</svg>
