<svg width="24" height="25" viewBox="0 0 24 25" fill="none" xmlns="http://www.w3.org/2000/svg">
<path d="M18.75 21.0488H14.1131C14.892 20.3533 15.6266 19.6097 16.3125 18.8223C18.8859 15.8626 20.25 12.7426 20.25 9.79883C20.25 7.61079 19.3808 5.51237 17.8336 3.9652C16.2865 2.41802 14.188 1.54883 12 1.54883C9.81196 1.54883 7.71354 2.41802 6.16637 3.9652C4.61919 5.51237 3.75 7.61079 3.75 9.79883C3.75 12.7426 5.11031 15.8626 7.6875 18.8223C8.37338 19.6097 9.10795 20.3533 9.88688 21.0488H5.25C5.05109 21.0488 4.86032 21.1278 4.71967 21.2685C4.57902 21.4091 4.5 21.5999 4.5 21.7988C4.5 21.9977 4.57902 22.1885 4.71967 22.3292C4.86032 22.4698 5.05109 22.5488 5.25 22.5488H18.75C18.9489 22.5488 19.1397 22.4698 19.2803 22.3292C19.421 22.1885 19.5 21.9977 19.5 21.7988C19.5 21.5999 19.421 21.4091 19.2803 21.2685C19.1397 21.1278 18.9489 21.0488 18.75 21.0488ZM5.25 9.79883C5.25 8.00862 5.96116 6.29173 7.22703 5.02586C8.4929 3.75999 10.2098 3.04883 12 3.04883C13.7902 3.04883 15.5071 3.75999 16.773 5.02586C18.0388 6.29173 18.75 8.00862 18.75 9.79883C18.75 15.1641 13.5497 19.6426 12 20.8613C10.4503 19.6426 5.25 15.1641 5.25 9.79883ZM15.75 9.79883C15.75 9.05715 15.5301 8.33212 15.118 7.71544C14.706 7.09876 14.1203 6.61811 13.4351 6.33428C12.7498 6.05045 11.9958 5.97619 11.2684 6.12088C10.541 6.26558 9.8728 6.62273 9.34835 7.14718C8.8239 7.67162 8.46675 8.33981 8.32205 9.06724C8.17736 9.79467 8.25162 10.5487 8.53545 11.2339C8.81928 11.9191 9.29993 12.5048 9.91661 12.9168C10.5333 13.3289 11.2583 13.5488 12 13.5488C12.9946 13.5488 13.9484 13.1537 14.6517 12.4505C15.3549 11.7472 15.75 10.7934 15.75 9.79883ZM9.75 9.79883C9.75 9.35382 9.88196 8.91881 10.1292 8.54879C10.3764 8.17878 10.7278 7.8904 11.139 7.7201C11.5501 7.5498 12.0025 7.50524 12.439 7.59206C12.8754 7.67888 13.2763 7.89317 13.591 8.20784C13.9057 8.52251 14.12 8.92342 14.2068 9.35987C14.2936 9.79633 14.249 10.2487 14.0787 10.6599C13.9084 11.071 13.62 11.4224 13.25 11.6696C12.88 11.9169 12.445 12.0488 12 12.0488C11.4033 12.0488 10.831 11.8118 10.409 11.3898C9.98705 10.9679 9.75 10.3956 9.75 9.79883Z" fill="#111827"/>
</svg>
