<svg width="20" height="21" viewBox="0 0 20 21" fill="none" xmlns="http://www.w3.org/2000/svg">
<path d="M2.5 5.5H4.16667H17.5" stroke="#EF4444" stroke-width="1.66667" stroke-linecap="round" stroke-linejoin="round"/>
<path d="M15.8334 5.49996V17.1666C15.8334 17.6087 15.6578 18.0326 15.3453 18.3451C15.0327 18.6577 14.6088 18.8333 14.1667 18.8333H5.83341C5.39139 18.8333 4.96746 18.6577 4.6549 18.3451C4.34234 18.0326 4.16675 17.6087 4.16675 17.1666V5.49996M6.66675 5.49996V3.83329C6.66675 3.39127 6.84234 2.96734 7.1549 2.65478C7.46746 2.34222 7.89139 2.16663 8.33341 2.16663H11.6667C12.1088 2.16663 12.5327 2.34222 12.8453 2.65478C13.1578 2.96734 13.3334 3.39127 13.3334 3.83329V5.49996" stroke="#EF4444" stroke-width="1.66667" stroke-linecap="round" stroke-linejoin="round"/>
<path d="M8.33325 9.66663V14.6666" stroke="#EF4444" stroke-width="1.66667" stroke-linecap="round" stroke-linejoin="round"/>
<path d="M11.6667 9.66663V14.6666" stroke="#EF4444" stroke-width="1.66667" stroke-linecap="round" stroke-linejoin="round"/>
</svg>
