<svg width="104" height="13" viewBox="0 0 104 13" fill="none" xmlns="http://www.w3.org/2000/svg">
<path d="M5.68945 8.70242C5.68945 9.71917 5.4997 10.5397 5.12347 11.1703C4.66218 11.949 3.94898 12.3383 2.98387 12.3383C2.69597 12.3383 2.38518 12.2997 2.04821 12.2225L0.356812 11.8363L0.562919 11.1671L2.29357 11.5854C2.5095 11.6369 2.71233 11.6626 2.90862 11.6626C3.61855 11.6626 4.15836 11.3569 4.53132 10.7424C4.83557 10.2372 4.98933 9.60977 4.98933 8.8633V1.14432H5.68945V8.70242Z" fill="#111827"/>
<path d="M21.815 8.48684C21.815 9.61621 21.4616 10.5429 20.7582 11.2701C20.0516 11.9972 19.129 12.3608 17.9872 12.3608C16.8455 12.3608 15.9261 11.9972 15.2129 11.2668C14.4997 10.5364 14.1431 9.60978 14.1431 8.48684C14.1431 7.3639 14.4997 6.43402 15.2129 5.70363C15.9261 4.97324 16.852 4.60643 17.9872 4.60643C19.1225 4.60643 20.0581 4.97646 20.7713 5.71328C21.4682 6.43402 21.8182 7.36069 21.8182 8.49006L21.815 8.48684ZM21.1148 8.47075C21.1148 7.51835 20.8368 6.73647 20.2839 6.12835C19.7146 5.50414 18.9491 5.19204 17.9872 5.19204C17.0254 5.19204 16.2533 5.50414 15.6742 6.12835C15.1213 6.73004 14.8433 7.51191 14.8433 8.47075C14.8433 9.42959 15.1213 10.2115 15.6742 10.8132C16.25 11.4374 17.0221 11.7495 17.9872 11.7495C18.9523 11.7495 19.7015 11.4341 20.2773 10.8067C20.8368 10.1922 21.1148 9.4135 21.1148 8.47075Z" fill="#111827"/>
<path d="M37.2469 12.2192V10.826C36.8314 11.3923 36.2556 11.817 35.5162 12.1034C35.0713 12.2739 34.6002 12.3576 34.1095 12.3576C32.9513 12.3576 32.0222 11.9972 31.3188 11.2797C30.6154 10.559 30.2654 9.62908 30.2654 8.48362C30.2654 7.33816 30.6024 6.38576 31.2796 5.68433C31.9666 4.96359 32.899 4.60322 34.08 4.60322C35.4279 4.60322 36.4846 5.15343 37.2502 6.25706V4.73514H37.911V12.2192H37.2469ZM37.2469 9.87684V8.8633C37.2469 7.81758 36.995 6.96492 36.4944 6.3021C35.935 5.55884 35.14 5.18882 34.116 5.18882C33.092 5.18882 32.369 5.49771 31.7997 6.11548C31.2436 6.71395 30.9688 7.49582 30.9688 8.46753C30.9688 9.43924 31.2403 10.2372 31.7867 10.826C32.3526 11.4406 33.128 11.7463 34.1193 11.7463C34.6231 11.7463 35.0909 11.6401 35.526 11.4277C36.2785 11.0609 36.8543 10.5429 37.2534 9.87362L37.2469 9.87684Z" fill="#111827"/>
<path d="M47.3102 2.64049C47.3102 2.95581 47.1466 3.11348 46.8227 3.11348C46.4988 3.11348 46.3582 2.95581 46.3582 2.64049C46.3582 2.32517 46.5119 2.1836 46.8227 2.1836C47.1466 2.1836 47.3102 2.33482 47.3102 2.64049ZM47.1597 12.2225H46.4988V4.74479H47.1597V12.2225Z" fill="#111827"/>
<path d="M56.4248 12.2192H55.7639V1.14753H56.4248V12.2192Z" fill="#111827"/>
<path d="M65.536 12.2192H64.8752V1.14753H65.536V12.2192Z" fill="#111827"/>
<path d="M74.9385 2.64049C74.9385 2.95581 74.7749 3.11348 74.451 3.11348C74.1271 3.11348 73.9865 2.95581 73.9865 2.64049C73.9865 2.32517 74.1402 2.1836 74.451 2.1836C74.7749 2.1836 74.9385 2.33482 74.9385 2.64049ZM74.788 12.2225H74.1271V4.74479H74.788V12.2225Z" fill="#111827"/>
<path d="M91.0476 8.35492C91.0476 8.49006 91.0345 8.60267 91.0084 8.69598H84.089C84.1414 9.61621 84.4587 10.3563 85.0411 10.9129C85.6234 11.4728 86.3791 11.7495 87.3148 11.7495C87.8023 11.7495 88.2962 11.669 88.8001 11.5081C89.3661 11.3312 89.7946 11.0931 90.0891 10.7874L90.5765 11.2443C89.8437 11.9876 88.7543 12.3576 87.3148 12.3576C86.1501 12.3576 85.2046 11.9972 84.4816 11.2797C83.7553 10.559 83.3922 9.62908 83.3922 8.48362C83.3922 7.33816 83.7488 6.43081 84.462 5.70042C85.1752 4.97002 86.101 4.60322 87.2363 4.60322C88.3715 4.60322 89.2548 4.95715 89.9713 5.66502C90.6878 6.37289 91.0476 7.2706 91.0476 8.35492ZM90.3475 8.08464C90.2625 7.22233 89.9418 6.52733 89.3791 5.99321C88.8197 5.45909 88.1 5.19204 87.2265 5.19204C86.353 5.19204 85.6299 5.45909 85.0639 5.99321C84.498 6.52733 84.1741 7.22555 84.089 8.08464H90.3475Z" fill="#111827"/>
<path d="M103.643 5.45266L103.597 5.44301C103.65 5.44301 103.352 5.40761 102.707 5.33683C101.978 5.33039 101.363 5.64572 100.859 6.2828C100.381 6.8877 100.143 7.75002 100.143 8.87617V12.2192H99.4981V4.74157H100.143V6.20236C100.754 5.20813 101.641 4.7094 102.799 4.7094C102.887 4.71905 103.169 4.75766 103.64 4.82523V5.45266H103.643Z" fill="#111827"/>
<path d="M5.68945 8.70242C5.68945 9.71917 5.4997 10.5397 5.12347 11.1703C4.66218 11.949 3.94898 12.3383 2.98387 12.3383C2.69597 12.3383 2.38518 12.2997 2.04821 12.2225L0.356812 11.8363L0.562919 11.1671L2.29357 11.5854C2.5095 11.6369 2.71233 11.6626 2.90862 11.6626C3.61855 11.6626 4.15836 11.3569 4.53132 10.7424C4.83557 10.2372 4.98933 9.60977 4.98933 8.8633V1.14432H5.68945V8.70242Z" stroke="#111827" stroke-width="0.659794" stroke-linecap="round" stroke-linejoin="round"/>
<path d="M21.815 8.48684C21.815 9.61621 21.4616 10.5429 20.7582 11.2701C20.0516 11.9972 19.129 12.3608 17.9872 12.3608C16.8455 12.3608 15.9261 11.9972 15.2129 11.2668C14.4997 10.5364 14.1431 9.60978 14.1431 8.48684C14.1431 7.3639 14.4997 6.43402 15.2129 5.70363C15.9261 4.97324 16.852 4.60643 17.9872 4.60643C19.1225 4.60643 20.0581 4.97646 20.7713 5.71328C21.4682 6.43402 21.8182 7.36069 21.8182 8.49006L21.815 8.48684ZM21.1148 8.47075C21.1148 7.51835 20.8368 6.73647 20.2839 6.12835C19.7146 5.50414 18.9491 5.19204 17.9872 5.19204C17.0254 5.19204 16.2533 5.50414 15.6742 6.12835C15.1213 6.73004 14.8433 7.51191 14.8433 8.47075C14.8433 9.42959 15.1213 10.2115 15.6742 10.8132C16.25 11.4374 17.0221 11.7495 17.9872 11.7495C18.9523 11.7495 19.7015 11.4341 20.2773 10.8067C20.8368 10.1922 21.1148 9.4135 21.1148 8.47075Z" stroke="#111827" stroke-width="0.659794" stroke-linecap="round" stroke-linejoin="round"/>
<path d="M37.2469 12.2192V10.826C36.8314 11.3923 36.2556 11.817 35.5162 12.1034C35.0713 12.2739 34.6002 12.3576 34.1095 12.3576C32.9513 12.3576 32.0222 11.9972 31.3188 11.2797C30.6154 10.559 30.2654 9.62908 30.2654 8.48362C30.2654 7.33816 30.6024 6.38576 31.2796 5.68433C31.9666 4.96359 32.899 4.60322 34.08 4.60322C35.4279 4.60322 36.4846 5.15343 37.2502 6.25706V4.73514H37.911V12.2192H37.2469ZM37.2469 9.87684V8.8633C37.2469 7.81758 36.995 6.96492 36.4944 6.3021C35.935 5.55884 35.14 5.18882 34.116 5.18882C33.092 5.18882 32.369 5.49771 31.7997 6.11548C31.2436 6.71395 30.9688 7.49582 30.9688 8.46753C30.9688 9.43924 31.2403 10.2372 31.7867 10.826C32.3526 11.4406 33.128 11.7463 34.1193 11.7463C34.6231 11.7463 35.0909 11.6401 35.526 11.4277C36.2785 11.0609 36.8543 10.5429 37.2534 9.87362L37.2469 9.87684Z" stroke="#111827" stroke-width="0.659794" stroke-linecap="round" stroke-linejoin="round"/>
<path d="M47.3102 2.64049C47.3102 2.95581 47.1466 3.11348 46.8227 3.11348C46.4988 3.11348 46.3582 2.95581 46.3582 2.64049C46.3582 2.32517 46.5119 2.1836 46.8227 2.1836C47.1466 2.1836 47.3102 2.33482 47.3102 2.64049ZM47.1597 12.2225H46.4988V4.74479H47.1597V12.2225Z" stroke="#111827" stroke-width="0.659794" stroke-linecap="round" stroke-linejoin="round"/>
<path d="M56.4248 12.2192H55.7639V1.14753H56.4248V12.2192Z" stroke="#111827" stroke-width="0.659794" stroke-linecap="round" stroke-linejoin="round"/>
<path d="M65.536 12.2192H64.8752V1.14753H65.536V12.2192Z" stroke="#111827" stroke-width="0.659794" stroke-linecap="round" stroke-linejoin="round"/>
<path d="M74.9385 2.64049C74.9385 2.95581 74.7749 3.11348 74.451 3.11348C74.1271 3.11348 73.9865 2.95581 73.9865 2.64049C73.9865 2.32517 74.1402 2.1836 74.451 2.1836C74.7749 2.1836 74.9385 2.33482 74.9385 2.64049ZM74.788 12.2225H74.1271V4.74479H74.788V12.2225Z" stroke="#111827" stroke-width="0.659794" stroke-linecap="round" stroke-linejoin="round"/>
<path d="M91.0476 8.35492C91.0476 8.49006 91.0345 8.60267 91.0084 8.69598H84.089C84.1414 9.61621 84.4587 10.3563 85.0411 10.9129C85.6234 11.4728 86.3791 11.7495 87.3148 11.7495C87.8023 11.7495 88.2962 11.669 88.8001 11.5081C89.3661 11.3312 89.7946 11.0931 90.0891 10.7874L90.5765 11.2443C89.8437 11.9876 88.7543 12.3576 87.3148 12.3576C86.1501 12.3576 85.2046 11.9972 84.4816 11.2797C83.7553 10.559 83.3922 9.62908 83.3922 8.48362C83.3922 7.33816 83.7488 6.43081 84.462 5.70042C85.1752 4.97002 86.101 4.60322 87.2363 4.60322C88.3715 4.60322 89.2548 4.95715 89.9713 5.66502C90.6878 6.37289 91.0476 7.2706 91.0476 8.35492ZM90.3475 8.08464C90.2625 7.22233 89.9418 6.52733 89.3791 5.99321C88.8197 5.45909 88.1 5.19204 87.2265 5.19204C86.353 5.19204 85.6299 5.45909 85.0639 5.99321C84.498 6.52733 84.1741 7.22555 84.089 8.08464H90.3475Z" stroke="#111827" stroke-width="0.659794" stroke-linecap="round" stroke-linejoin="round"/>
<path d="M103.643 5.45266L103.597 5.44301C103.65 5.44301 103.352 5.40761 102.707 5.33683C101.978 5.33039 101.363 5.64572 100.859 6.2828C100.381 6.8877 100.143 7.75002 100.143 8.87617V12.2192H99.4981V4.74157H100.143V6.20236C100.754 5.20813 101.641 4.7094 102.799 4.7094C102.887 4.71905 103.169 4.75766 103.64 4.82523V5.45266H103.643Z" stroke="#111827" stroke-width="0.659794" stroke-linecap="round" stroke-linejoin="round"/>
</svg>
