<svg width="22" height="28" viewBox="0 0 22 28" fill="none" xmlns="http://www.w3.org/2000/svg">
<path fill-rule="evenodd" clip-rule="evenodd" d="M5.72055 5.43081C6.08946 2.7374 8.31269 0.666687 11.0002 0.666687C13.6889 0.666687 15.9129 2.7392 16.2803 5.43432C19.1848 5.68409 21.6667 8.69562 21.6667 12.5189C21.6667 18.6558 16.3334 24.5561 11 27.3334C5.66129 24.5525 0.333374 18.6558 0.333374 12.5189C0.333374 8.69673 2.81686 5.68255 5.72055 5.43081ZM15.2059 5.4692C14.8623 3.37327 13.1101 1.77788 11.0002 1.77788C8.89164 1.77788 7.14036 3.37119 6.79518 5.4651C7.98208 5.64433 9.19591 6.30094 10.3057 7.55904L10.5052 7.79311C10.5052 7.79311 10.838 8.21448 11 8.44699C11.1624 8.21475 11.4958 7.79389 11.4958 7.79389L11.6957 7.56009C12.8061 6.30461 14.0197 5.64878 15.2059 5.4692ZM11.0001 26.083C16.4249 23.0712 20.6 17.5242 20.6 12.519C20.6 6.87671 15.2103 4.31239 11.8623 9.10126L10.9987 10.3365L10.1369 9.09993C6.79619 4.30643 1.40006 6.87532 1.40006 12.519C1.40006 17.5255 5.57169 23.0688 11.0001 26.083Z" fill="#111827"/>
</svg>
