<svg width="241" height="28" viewBox="0 0 241 28" fill="none" xmlns="http://www.w3.org/2000/svg">
<path d="M13.4121 18.54C13.4121 20.8912 12.9733 22.7886 12.1033 24.247C11.0366 26.0476 9.38728 26.9479 7.15546 26.9479C6.4897 26.9479 5.77098 26.8586 4.99173 26.6801L1.08038 25.7872L1.55701 24.2395L5.55914 25.2068C6.05847 25.3259 6.52752 25.3854 6.98145 25.3854C8.62316 25.3854 9.87147 24.6785 10.7339 23.2574C11.4375 22.0892 11.7931 20.6382 11.7931 18.912V1.06186H13.4121V18.54Z" fill="#111827"/>
<path d="M50.7024 18.0414C50.7024 20.6531 49.8853 22.796 48.2587 24.4776C46.6246 26.1592 44.4911 27 41.8507 27C39.2104 27 37.0845 26.1592 35.4352 24.4702C33.7859 22.7811 32.9613 20.6382 32.9613 18.0414C32.9613 15.4447 33.7859 13.2943 35.4352 11.6053C37.0845 9.91625 39.2255 9.06801 41.8507 9.06801C44.476 9.06801 46.6397 9.92369 48.289 11.6276C49.9004 13.2943 50.7099 15.4372 50.7099 18.0489L50.7024 18.0414ZM49.0833 18.0042C49.0833 15.8018 48.4403 13.9937 47.1617 12.5874C45.8453 11.144 44.075 10.4222 41.8507 10.4222C39.6265 10.4222 37.841 11.144 36.5019 12.5874C35.2234 13.9788 34.5803 15.7869 34.5803 18.0042C34.5803 20.2216 35.2234 22.0297 36.5019 23.4211C37.8335 24.8645 39.6189 25.5863 41.8507 25.5863C44.0826 25.5863 45.815 24.8571 47.1466 23.4062C48.4403 21.985 49.0833 20.1844 49.0833 18.0042Z" fill="#111827"/>
<path d="M86.3887 26.6726V23.4508C85.4279 24.7604 84.0964 25.7425 82.3866 26.4048C81.3577 26.7991 80.2682 26.9926 79.1334 26.9926C76.4552 26.9926 74.3066 26.1592 72.6801 24.4999C71.0535 22.8332 70.244 20.6829 70.244 18.034C70.244 15.3851 71.0232 13.1827 72.5893 11.5606C74.178 9.89393 76.3342 9.06057 79.0653 9.06057C82.1823 9.06057 84.6259 10.3329 86.3963 12.8851V9.36564H87.9245V26.6726H86.3887ZM86.3887 21.2558V18.912C86.3887 16.4938 85.8062 14.522 84.6486 12.9892C83.355 11.2704 81.5165 10.4148 79.1485 10.4148C76.7805 10.4148 75.1086 11.1291 73.7922 12.5577C72.5061 13.9416 71.8706 15.7497 71.8706 17.9968C71.8706 20.2439 72.4985 22.0892 73.7619 23.4508C75.0708 24.872 76.8638 25.5788 79.1561 25.5788C80.3212 25.5788 81.4031 25.3333 82.4093 24.8422C84.1493 23.994 85.4808 22.796 86.4038 21.2484L86.3887 21.2558Z" fill="#111827"/>
<path d="M109.66 4.52176C109.66 5.25095 109.282 5.61554 108.533 5.61554C107.784 5.61554 107.459 5.25095 107.459 4.52176C107.459 3.79258 107.814 3.46519 108.533 3.46519C109.282 3.46519 109.66 3.8149 109.66 4.52176ZM109.312 26.6801H107.784V9.38796H109.312V26.6801Z" fill="#111827"/>
<path d="M130.738 26.6726H129.209V1.0693H130.738V26.6726Z" fill="#111827"/>
<path d="M151.807 26.6726H150.279V1.0693H151.807V26.6726Z" fill="#111827"/>
<path d="M173.551 4.52176C173.551 5.25095 173.172 5.61554 172.423 5.61554C171.674 5.61554 171.349 5.25095 171.349 4.52176C171.349 3.79258 171.705 3.46519 172.423 3.46519C173.172 3.46519 173.551 3.8149 173.551 4.52176ZM173.203 26.6801H171.674V9.38796H173.203V26.6801Z" fill="#111827"/>
<path d="M210.803 17.7364C210.803 18.0489 210.773 18.3093 210.712 18.5251H194.711C194.832 20.6531 195.566 22.3645 196.913 23.6517C198.259 24.9464 200.007 25.5863 202.171 25.5863C203.298 25.5863 204.44 25.4003 205.606 25.0282C206.914 24.619 207.905 24.0684 208.586 23.3615L209.714 24.4181C208.019 26.1369 205.5 26.9926 202.171 26.9926C199.477 26.9926 197.291 26.1592 195.619 24.4999C193.94 22.8332 193.1 20.6829 193.1 18.034C193.1 15.3851 193.924 13.2869 195.574 11.5978C197.223 9.90881 199.364 9.06057 201.989 9.06057C204.614 9.06057 206.657 9.87905 208.314 11.516C209.971 13.1529 210.803 15.2289 210.803 17.7364ZM209.184 17.1114C208.987 15.1173 208.246 13.5101 206.945 12.2749C205.651 11.0398 203.987 10.4222 201.967 10.4222C199.947 10.4222 198.275 11.0398 196.966 12.2749C195.657 13.5101 194.908 15.1247 194.711 17.1114H209.184Z" fill="#111827"/>
<path d="M239.93 11.0249L239.824 11.0026C239.945 11.0026 239.257 10.9207 237.766 10.757C236.079 10.7422 234.657 11.4713 233.492 12.9446C232.387 14.3434 231.835 16.3375 231.835 18.9418V26.6726H230.345V9.38051H231.835V12.7586C233.25 10.4594 235.3 9.30612 237.978 9.30612C238.182 9.32844 238.833 9.41773 239.923 9.57398V11.0249H239.93Z" fill="#111827"/>
<path d="M13.4121 18.54C13.4121 20.8912 12.9733 22.7886 12.1033 24.247C11.0366 26.0476 9.38728 26.9479 7.15546 26.9479C6.4897 26.9479 5.77098 26.8586 4.99173 26.6801L1.08038 25.7872L1.55701 24.2395L5.55914 25.2068C6.05847 25.3259 6.52752 25.3854 6.98145 25.3854C8.62316 25.3854 9.87147 24.6785 10.7339 23.2574C11.4375 22.0892 11.7931 20.6382 11.7931 18.912V1.06186H13.4121V18.54Z" stroke="#111827" stroke-width="1.52577" stroke-linecap="round" stroke-linejoin="round"/>
<path d="M50.7024 18.0414C50.7024 20.6531 49.8853 22.796 48.2587 24.4776C46.6246 26.1592 44.4911 27 41.8507 27C39.2104 27 37.0845 26.1592 35.4352 24.4702C33.7859 22.7811 32.9613 20.6382 32.9613 18.0414C32.9613 15.4447 33.7859 13.2943 35.4352 11.6053C37.0845 9.91625 39.2255 9.06801 41.8507 9.06801C44.476 9.06801 46.6397 9.92369 48.289 11.6276C49.9004 13.2943 50.7099 15.4372 50.7099 18.0489L50.7024 18.0414ZM49.0833 18.0042C49.0833 15.8018 48.4403 13.9937 47.1617 12.5874C45.8453 11.144 44.075 10.4222 41.8507 10.4222C39.6265 10.4222 37.841 11.144 36.5019 12.5874C35.2234 13.9788 34.5803 15.7869 34.5803 18.0042C34.5803 20.2216 35.2234 22.0297 36.5019 23.4211C37.8335 24.8645 39.6189 25.5863 41.8507 25.5863C44.0826 25.5863 45.815 24.8571 47.1466 23.4062C48.4403 21.985 49.0833 20.1844 49.0833 18.0042Z" stroke="#111827" stroke-width="1.52577" stroke-linecap="round" stroke-linejoin="round"/>
<path d="M86.3887 26.6726V23.4508C85.4279 24.7604 84.0964 25.7425 82.3866 26.4048C81.3577 26.7991 80.2682 26.9926 79.1334 26.9926C76.4552 26.9926 74.3066 26.1592 72.6801 24.4999C71.0535 22.8332 70.244 20.6829 70.244 18.034C70.244 15.3851 71.0232 13.1827 72.5893 11.5606C74.178 9.89393 76.3342 9.06057 79.0653 9.06057C82.1823 9.06057 84.6259 10.3329 86.3963 12.8851V9.36564H87.9245V26.6726H86.3887ZM86.3887 21.2558V18.912C86.3887 16.4938 85.8062 14.522 84.6486 12.9892C83.355 11.2704 81.5165 10.4148 79.1485 10.4148C76.7805 10.4148 75.1086 11.1291 73.7922 12.5577C72.5061 13.9416 71.8706 15.7497 71.8706 17.9968C71.8706 20.2439 72.4985 22.0892 73.7619 23.4508C75.0708 24.872 76.8638 25.5788 79.1561 25.5788C80.3212 25.5788 81.4031 25.3333 82.4093 24.8422C84.1493 23.994 85.4808 22.796 86.4038 21.2484L86.3887 21.2558Z" stroke="#111827" stroke-width="1.52577" stroke-linecap="round" stroke-linejoin="round"/>
<path d="M109.66 4.52176C109.66 5.25095 109.282 5.61554 108.533 5.61554C107.784 5.61554 107.459 5.25095 107.459 4.52176C107.459 3.79258 107.814 3.46519 108.533 3.46519C109.282 3.46519 109.66 3.8149 109.66 4.52176ZM109.312 26.6801H107.784V9.38796H109.312V26.6801Z" stroke="#111827" stroke-width="1.52577" stroke-linecap="round" stroke-linejoin="round"/>
<path d="M130.738 26.6726H129.209V1.0693H130.738V26.6726Z" stroke="#111827" stroke-width="1.52577" stroke-linecap="round" stroke-linejoin="round"/>
<path d="M151.807 26.6726H150.279V1.0693H151.807V26.6726Z" stroke="#111827" stroke-width="1.52577" stroke-linecap="round" stroke-linejoin="round"/>
<path d="M173.551 4.52176C173.551 5.25095 173.172 5.61554 172.423 5.61554C171.674 5.61554 171.349 5.25095 171.349 4.52176C171.349 3.79258 171.705 3.46519 172.423 3.46519C173.172 3.46519 173.551 3.8149 173.551 4.52176ZM173.203 26.6801H171.674V9.38796H173.203V26.6801Z" stroke="#111827" stroke-width="1.52577" stroke-linecap="round" stroke-linejoin="round"/>
<path d="M210.803 17.7364C210.803 18.0489 210.773 18.3093 210.712 18.5251H194.711C194.832 20.6531 195.566 22.3645 196.913 23.6517C198.259 24.9464 200.007 25.5863 202.171 25.5863C203.298 25.5863 204.44 25.4003 205.606 25.0282C206.914 24.619 207.905 24.0684 208.586 23.3615L209.714 24.4181C208.019 26.1369 205.5 26.9926 202.171 26.9926C199.477 26.9926 197.291 26.1592 195.619 24.4999C193.94 22.8332 193.1 20.6829 193.1 18.034C193.1 15.3851 193.924 13.2869 195.574 11.5978C197.223 9.90881 199.364 9.06057 201.989 9.06057C204.614 9.06057 206.657 9.87905 208.314 11.516C209.971 13.1529 210.803 15.2289 210.803 17.7364ZM209.184 17.1114C208.987 15.1173 208.246 13.5101 206.945 12.2749C205.651 11.0398 203.987 10.4222 201.967 10.4222C199.947 10.4222 198.275 11.0398 196.966 12.2749C195.657 13.5101 194.908 15.1247 194.711 17.1114H209.184Z" stroke="#111827" stroke-width="1.52577" stroke-linecap="round" stroke-linejoin="round"/>
<path d="M239.93 11.0249L239.824 11.0026C239.945 11.0026 239.257 10.9207 237.766 10.757C236.079 10.7422 234.657 11.4713 233.492 12.9446C232.387 14.3434 231.835 16.3375 231.835 18.9418V26.6726H230.345V9.38051H231.835V12.7586C233.25 10.4594 235.3 9.30612 237.978 9.30612C238.182 9.32844 238.833 9.41773 239.923 9.57398V11.0249H239.93Z" stroke="#111827" stroke-width="1.52577" stroke-linecap="round" stroke-linejoin="round"/>
</svg>
