<svg width="104" height="13" viewBox="0 0 104 13" fill="none" xmlns="http://www.w3.org/2000/svg">
<path d="M5.68948 8.70242C5.68948 9.71918 5.49973 10.5397 5.1235 11.1703C4.66221 11.949 3.94901 12.3383 2.9839 12.3383C2.696 12.3383 2.38521 12.2997 2.04824 12.2225L0.356842 11.8364L0.562949 11.1671L2.2936 11.5854C2.50953 11.6369 2.71236 11.6626 2.90865 11.6626C3.61858 11.6626 4.15839 11.3569 4.53135 10.7424C4.8356 10.2372 4.98936 9.60978 4.98936 8.8633V1.14433H5.68948V8.70242Z" fill="#111827"/>
<path d="M21.815 8.48685C21.815 9.61622 21.4617 10.5429 20.7583 11.2701C20.0516 11.9972 19.129 12.3608 17.9873 12.3608C16.8455 12.3608 15.9262 11.9972 15.213 11.2668C14.4998 10.5364 14.1432 9.60978 14.1432 8.48685C14.1432 7.36391 14.4998 6.43403 15.213 5.70364C15.9262 4.97325 16.852 4.60644 17.9873 4.60644C19.1225 4.60644 20.0582 4.97647 20.7714 5.71329C21.4682 6.43403 21.8183 7.3607 21.8183 8.49007L21.815 8.48685ZM21.1149 8.47076C21.1149 7.51835 20.8368 6.73648 20.2839 6.12836C19.7146 5.50415 18.9491 5.19205 17.9873 5.19205C17.0254 5.19205 16.2533 5.50415 15.6743 6.12836C15.1214 6.73005 14.8433 7.51192 14.8433 8.47076C14.8433 9.4296 15.1214 10.2115 15.6743 10.8132C16.2501 11.4374 17.0221 11.7495 17.9873 11.7495C18.9524 11.7495 19.7016 11.4342 20.2773 10.8067C20.8368 10.1922 21.1149 9.41351 21.1149 8.47076Z" fill="#111827"/>
<path d="M37.2469 12.2192V10.826C36.8314 11.3923 36.2556 11.817 35.5163 12.1034C35.0713 12.2739 34.6002 12.3576 34.1095 12.3576C32.9514 12.3576 32.0222 11.9972 31.3188 11.2797C30.6155 10.559 30.2654 9.62909 30.2654 8.48363C30.2654 7.33817 30.6024 6.38577 31.2796 5.68433C31.9666 4.9636 32.899 4.60323 34.08 4.60323C35.4279 4.60323 36.4846 5.15343 37.2502 6.25706V4.73515H37.911V12.2192H37.2469ZM37.2469 9.87684V8.8633C37.2469 7.81759 36.995 6.96493 36.4945 6.30211C35.935 5.55885 35.14 5.18882 34.116 5.18882C33.092 5.18882 32.369 5.49771 31.7998 6.11549C31.2436 6.71396 30.9688 7.49583 30.9688 8.46754C30.9688 9.43925 31.2403 10.2372 31.7867 10.826C32.3527 11.4406 33.128 11.7463 34.1193 11.7463C34.6231 11.7463 35.091 11.6401 35.5261 11.4277C36.2785 11.0609 36.8543 10.5429 37.2535 9.87362L37.2469 9.87684Z" fill="#111827"/>
<path d="M47.3102 2.6405C47.3102 2.95582 47.1466 3.11348 46.8228 3.11348C46.4989 3.11348 46.3582 2.95582 46.3582 2.6405C46.3582 2.32518 46.512 2.1836 46.8228 2.1836C47.1466 2.1836 47.3102 2.33483 47.3102 2.6405ZM47.1597 12.2225H46.4989V4.7448H47.1597V12.2225Z" fill="#111827"/>
<path d="M56.4248 12.2192H55.7639V1.14754H56.4248V12.2192Z" fill="#111827"/>
<path d="M65.5361 12.2192H64.8752V1.14754H65.5361V12.2192Z" fill="#111827"/>
<path d="M74.9385 2.6405C74.9385 2.95582 74.7749 3.11348 74.4511 3.11348C74.1272 3.11348 73.9865 2.95582 73.9865 2.6405C73.9865 2.32518 74.1403 2.1836 74.4511 2.1836C74.7749 2.1836 74.9385 2.33483 74.9385 2.6405ZM74.788 12.2225H74.1272V4.7448H74.788V12.2225Z" fill="#111827"/>
<path d="M91.0477 8.35493C91.0477 8.49007 91.0346 8.60268 91.0084 8.69599H84.0891C84.1414 9.61622 84.4588 10.3563 85.0411 10.9129C85.6234 11.4728 86.3792 11.7495 87.3148 11.7495C87.8023 11.7495 88.2963 11.669 88.8001 11.5082C89.3661 11.3312 89.7947 11.0931 90.0891 10.7874L90.5766 11.2443C89.8437 11.9876 88.7543 12.3576 87.3148 12.3576C86.1501 12.3576 85.2047 11.9972 84.4817 11.2797C83.7554 10.559 83.3922 9.62909 83.3922 8.48363C83.3922 7.33817 83.7488 6.43081 84.462 5.70042C85.1752 4.97003 86.1011 4.60323 87.2363 4.60323C88.3715 4.60323 89.2549 4.95716 89.9713 5.66503C90.6878 6.3729 91.0477 7.2706 91.0477 8.35493ZM90.3475 8.08465C90.2625 7.22234 89.9419 6.52734 89.3792 5.99322C88.8197 5.4591 88.1 5.19205 87.2265 5.19205C86.353 5.19205 85.63 5.4591 85.064 5.99322C84.498 6.52734 84.1741 7.22555 84.0891 8.08465H90.3475Z" fill="#111827"/>
<path d="M103.643 5.45267L103.597 5.44302C103.65 5.44302 103.352 5.40762 102.707 5.33684C101.978 5.3304 101.363 5.64572 100.859 6.28281C100.381 6.88771 100.143 7.75002 100.143 8.87618V12.2192H99.4981V4.74158H100.143V6.20237C100.754 5.20813 101.641 4.70941 102.799 4.70941C102.887 4.71906 103.169 4.75767 103.64 4.82524V5.45267H103.643Z" fill="#111827"/>
<path d="M5.68948 8.70242C5.68948 9.71918 5.49973 10.5397 5.1235 11.1703C4.66221 11.949 3.94901 12.3383 2.9839 12.3383C2.696 12.3383 2.38521 12.2997 2.04824 12.2225L0.356842 11.8364L0.562949 11.1671L2.2936 11.5854C2.50953 11.6369 2.71236 11.6626 2.90865 11.6626C3.61858 11.6626 4.15839 11.3569 4.53135 10.7424C4.8356 10.2372 4.98936 9.60978 4.98936 8.8633V1.14433H5.68948V8.70242Z" stroke="#111827" stroke-width="0.659794" stroke-linecap="round" stroke-linejoin="round"/>
<path d="M21.815 8.48685C21.815 9.61622 21.4617 10.5429 20.7583 11.2701C20.0516 11.9972 19.129 12.3608 17.9873 12.3608C16.8455 12.3608 15.9262 11.9972 15.213 11.2668C14.4998 10.5364 14.1432 9.60978 14.1432 8.48685C14.1432 7.36391 14.4998 6.43403 15.213 5.70364C15.9262 4.97325 16.852 4.60644 17.9873 4.60644C19.1225 4.60644 20.0582 4.97647 20.7714 5.71329C21.4682 6.43403 21.8183 7.3607 21.8183 8.49007L21.815 8.48685ZM21.1149 8.47076C21.1149 7.51835 20.8368 6.73648 20.2839 6.12836C19.7146 5.50415 18.9491 5.19205 17.9873 5.19205C17.0254 5.19205 16.2533 5.50415 15.6743 6.12836C15.1214 6.73005 14.8433 7.51192 14.8433 8.47076C14.8433 9.4296 15.1214 10.2115 15.6743 10.8132C16.2501 11.4374 17.0221 11.7495 17.9873 11.7495C18.9524 11.7495 19.7016 11.4342 20.2773 10.8067C20.8368 10.1922 21.1149 9.41351 21.1149 8.47076Z" stroke="#111827" stroke-width="0.659794" stroke-linecap="round" stroke-linejoin="round"/>
<path d="M37.2469 12.2192V10.826C36.8314 11.3923 36.2556 11.817 35.5163 12.1034C35.0713 12.2739 34.6002 12.3576 34.1095 12.3576C32.9514 12.3576 32.0222 11.9972 31.3188 11.2797C30.6155 10.559 30.2654 9.62909 30.2654 8.48363C30.2654 7.33817 30.6024 6.38577 31.2796 5.68433C31.9666 4.9636 32.899 4.60323 34.08 4.60323C35.4279 4.60323 36.4846 5.15343 37.2502 6.25706V4.73515H37.911V12.2192H37.2469ZM37.2469 9.87684V8.8633C37.2469 7.81759 36.995 6.96493 36.4945 6.30211C35.935 5.55885 35.14 5.18882 34.116 5.18882C33.092 5.18882 32.369 5.49771 31.7998 6.11549C31.2436 6.71396 30.9688 7.49583 30.9688 8.46754C30.9688 9.43925 31.2403 10.2372 31.7867 10.826C32.3527 11.4406 33.128 11.7463 34.1193 11.7463C34.6231 11.7463 35.091 11.6401 35.5261 11.4277C36.2785 11.0609 36.8543 10.5429 37.2535 9.87362L37.2469 9.87684Z" stroke="#111827" stroke-width="0.659794" stroke-linecap="round" stroke-linejoin="round"/>
<path d="M47.3102 2.6405C47.3102 2.95582 47.1466 3.11348 46.8228 3.11348C46.4989 3.11348 46.3582 2.95582 46.3582 2.6405C46.3582 2.32518 46.512 2.1836 46.8228 2.1836C47.1466 2.1836 47.3102 2.33483 47.3102 2.6405ZM47.1597 12.2225H46.4989V4.7448H47.1597V12.2225Z" stroke="#111827" stroke-width="0.659794" stroke-linecap="round" stroke-linejoin="round"/>
<path d="M56.4248 12.2192H55.7639V1.14754H56.4248V12.2192Z" stroke="#111827" stroke-width="0.659794" stroke-linecap="round" stroke-linejoin="round"/>
<path d="M65.5361 12.2192H64.8752V1.14754H65.5361V12.2192Z" stroke="#111827" stroke-width="0.659794" stroke-linecap="round" stroke-linejoin="round"/>
<path d="M74.9385 2.6405C74.9385 2.95582 74.7749 3.11348 74.4511 3.11348C74.1272 3.11348 73.9865 2.95582 73.9865 2.6405C73.9865 2.32518 74.1403 2.1836 74.4511 2.1836C74.7749 2.1836 74.9385 2.33483 74.9385 2.6405ZM74.788 12.2225H74.1272V4.7448H74.788V12.2225Z" stroke="#111827" stroke-width="0.659794" stroke-linecap="round" stroke-linejoin="round"/>
<path d="M91.0477 8.35493C91.0477 8.49007 91.0346 8.60268 91.0084 8.69599H84.0891C84.1414 9.61622 84.4588 10.3563 85.0411 10.9129C85.6234 11.4728 86.3792 11.7495 87.3148 11.7495C87.8023 11.7495 88.2963 11.669 88.8001 11.5082C89.3661 11.3312 89.7947 11.0931 90.0891 10.7874L90.5766 11.2443C89.8437 11.9876 88.7543 12.3576 87.3148 12.3576C86.1501 12.3576 85.2047 11.9972 84.4817 11.2797C83.7554 10.559 83.3922 9.62909 83.3922 8.48363C83.3922 7.33817 83.7488 6.43081 84.462 5.70042C85.1752 4.97003 86.1011 4.60323 87.2363 4.60323C88.3715 4.60323 89.2549 4.95716 89.9713 5.66503C90.6878 6.3729 91.0477 7.2706 91.0477 8.35493ZM90.3475 8.08465C90.2625 7.22234 89.9419 6.52734 89.3792 5.99322C88.8197 5.4591 88.1 5.19205 87.2265 5.19205C86.353 5.19205 85.63 5.4591 85.064 5.99322C84.498 6.52734 84.1741 7.22555 84.0891 8.08465H90.3475Z" stroke="#111827" stroke-width="0.659794" stroke-linecap="round" stroke-linejoin="round"/>
<path d="M103.643 5.45267L103.597 5.44302C103.65 5.44302 103.352 5.40762 102.707 5.33684C101.978 5.3304 101.363 5.64572 100.859 6.28281C100.381 6.88771 100.143 7.75002 100.143 8.87618V12.2192H99.4981V4.74158H100.143V6.20237C100.754 5.20813 101.641 4.70941 102.799 4.70941C102.887 4.71906 103.169 4.75767 103.64 4.82524V5.45267H103.643Z" stroke="#111827" stroke-width="0.659794" stroke-linecap="round" stroke-linejoin="round"/>
</svg>
