<svg width="241" height="28" viewBox="0 0 241 28" fill="none" xmlns="http://www.w3.org/2000/svg">
<path d="M13.412 18.5401C13.412 20.8914 12.9732 22.7887 12.1032 24.2471C11.0364 26.0478 9.38715 26.9481 7.15534 26.9481C6.48958 26.9481 5.77086 26.8588 4.99161 26.6802L1.08026 25.7873L1.55688 24.2397L5.55902 25.207C6.05834 25.326 6.5274 25.3855 6.98133 25.3855C8.62304 25.3855 9.87135 24.6787 10.7338 23.2575C11.4374 22.0893 11.793 20.6384 11.793 18.9122V1.06201H13.412V18.5401Z" fill="#111827"/>
<path d="M50.7022 18.0416C50.7022 20.6533 49.8852 22.7962 48.2586 24.4778C46.6244 26.1594 44.491 27.0002 41.8506 27.0002C39.2103 27.0002 37.0844 26.1594 35.4351 24.4703C33.7858 22.7813 32.9612 20.6384 32.9612 18.0416C32.9612 15.4448 33.7858 13.2945 35.4351 11.6054C37.0844 9.9164 39.2254 9.06816 41.8506 9.06816C44.4758 9.06816 46.6396 9.92384 48.2888 11.6278C49.9003 13.2945 50.7098 15.4374 50.7098 18.049L50.7022 18.0416ZM49.0832 18.0044C49.0832 15.802 48.4401 13.9939 47.1616 12.5876C45.8452 11.1441 44.0749 10.4224 41.8506 10.4224C39.6264 10.4224 37.8409 11.1441 36.5018 12.5876C35.2233 13.979 34.5802 15.7871 34.5802 18.0044C34.5802 20.2217 35.2233 22.0298 36.5018 23.4212C37.8334 24.8647 39.6188 25.5864 41.8506 25.5864C44.0824 25.5864 45.8149 24.8573 47.1464 23.4063C48.4401 21.9852 49.0832 20.1845 49.0832 18.0044Z" fill="#111827"/>
<path d="M86.3886 26.6728V23.451C85.4278 24.7605 84.0962 25.7427 82.3864 26.4049C81.3575 26.7993 80.2681 26.9927 79.1333 26.9927C76.4551 26.9927 74.3065 26.1594 72.6799 24.5001C71.0534 22.8334 70.2439 20.683 70.2439 18.0342C70.2439 15.3853 71.0231 13.1829 72.5892 11.5608C74.1779 9.89408 76.3341 9.06072 79.0652 9.06072C82.1822 9.06072 84.6258 10.3331 86.3961 12.8852V9.3658H87.9244V26.6728H86.3886ZM86.3886 21.256V18.9122C86.3886 16.4939 85.806 14.5222 84.6485 12.9894C83.3548 11.2706 81.5164 10.4149 79.1484 10.4149C76.7804 10.4149 75.1085 11.1292 73.7921 12.5578C72.5059 13.9418 71.8704 15.7499 71.8704 17.997C71.8704 20.244 72.4984 22.0893 73.7618 23.451C75.0706 24.8721 76.8637 25.579 79.156 25.579C80.3211 25.579 81.4029 25.3334 82.4091 24.8424C84.1492 23.9941 85.4807 22.7962 86.4037 21.2485L86.3886 21.256Z" fill="#111827"/>
<path d="M109.66 4.52192C109.66 5.2511 109.282 5.61569 108.533 5.61569C107.784 5.61569 107.458 5.2511 107.458 4.52192C107.458 3.79273 107.814 3.46534 108.533 3.46534C109.282 3.46534 109.66 3.81505 109.66 4.52192ZM109.312 26.6802H107.784V9.38811H109.312V26.6802Z" fill="#111827"/>
<path d="M130.737 26.6728H129.209V1.06945H130.737V26.6728Z" fill="#111827"/>
<path d="M151.807 26.6728H150.279V1.06945H151.807V26.6728Z" fill="#111827"/>
<path d="M173.55 4.52192C173.55 5.2511 173.172 5.61569 172.423 5.61569C171.674 5.61569 171.349 5.2511 171.349 4.52192C171.349 3.79273 171.704 3.46534 172.423 3.46534C173.172 3.46534 173.55 3.81505 173.55 4.52192ZM173.202 26.6802H171.674V9.38811H173.202V26.6802Z" fill="#111827"/>
<path d="M210.803 17.7365C210.803 18.049 210.773 18.3095 210.712 18.5252H194.711C194.832 20.6533 195.566 22.3646 196.913 23.6519C198.259 24.9465 200.007 25.5864 202.171 25.5864C203.298 25.5864 204.44 25.4004 205.605 25.0284C206.914 24.6191 207.905 24.0685 208.586 23.3617L209.713 24.4183C208.019 26.137 205.499 26.9927 202.171 26.9927C199.477 26.9927 197.291 26.1594 195.619 24.5001C193.939 22.8334 193.1 20.683 193.1 18.0342C193.1 15.3853 193.924 13.287 195.574 11.598C197.223 9.90896 199.364 9.06072 201.989 9.06072C204.614 9.06072 206.657 9.8792 208.314 11.5161C209.971 13.1531 210.803 15.229 210.803 17.7365ZM209.184 17.1115C208.987 15.1174 208.246 13.5102 206.944 12.2751C205.651 11.0399 203.986 10.4224 201.966 10.4224C199.946 10.4224 198.274 11.0399 196.966 12.2751C195.657 13.5102 194.908 15.1249 194.711 17.1115H209.184Z" fill="#111827"/>
<path d="M239.93 11.0251L239.824 11.0027C239.945 11.0027 239.257 10.9209 237.766 10.7572C236.079 10.7423 234.657 11.4715 233.492 12.9448C232.387 14.3436 231.835 16.3377 231.835 18.9419V26.6728H230.344V9.38067H231.835V12.7587C233.25 10.4596 235.3 9.30627 237.978 9.30627C238.182 9.32859 238.833 9.41788 239.922 9.57413V11.0251H239.93Z" fill="#111827"/>
<path d="M13.412 18.5401C13.412 20.8914 12.9732 22.7887 12.1032 24.2471C11.0364 26.0478 9.38715 26.9481 7.15534 26.9481C6.48958 26.9481 5.77086 26.8588 4.99161 26.6802L1.08026 25.7873L1.55688 24.2397L5.55902 25.207C6.05834 25.326 6.5274 25.3855 6.98133 25.3855C8.62304 25.3855 9.87135 24.6787 10.7338 23.2575C11.4374 22.0893 11.793 20.6384 11.793 18.9122V1.06201H13.412V18.5401Z" stroke="#111827" stroke-width="1.52577" stroke-linecap="round" stroke-linejoin="round"/>
<path d="M50.7022 18.0416C50.7022 20.6533 49.8852 22.7962 48.2586 24.4778C46.6244 26.1594 44.491 27.0002 41.8506 27.0002C39.2103 27.0002 37.0844 26.1594 35.4351 24.4703C33.7858 22.7813 32.9612 20.6384 32.9612 18.0416C32.9612 15.4448 33.7858 13.2945 35.4351 11.6054C37.0844 9.9164 39.2254 9.06816 41.8506 9.06816C44.4758 9.06816 46.6396 9.92384 48.2888 11.6278C49.9003 13.2945 50.7098 15.4374 50.7098 18.049L50.7022 18.0416ZM49.0832 18.0044C49.0832 15.802 48.4401 13.9939 47.1616 12.5876C45.8452 11.1441 44.0749 10.4224 41.8506 10.4224C39.6264 10.4224 37.8409 11.1441 36.5018 12.5876C35.2233 13.979 34.5802 15.7871 34.5802 18.0044C34.5802 20.2217 35.2233 22.0298 36.5018 23.4212C37.8334 24.8647 39.6188 25.5864 41.8506 25.5864C44.0824 25.5864 45.8149 24.8573 47.1464 23.4063C48.4401 21.9852 49.0832 20.1845 49.0832 18.0044Z" stroke="#111827" stroke-width="1.52577" stroke-linecap="round" stroke-linejoin="round"/>
<path d="M86.3886 26.6728V23.451C85.4278 24.7605 84.0962 25.7427 82.3864 26.4049C81.3575 26.7993 80.2681 26.9927 79.1333 26.9927C76.4551 26.9927 74.3065 26.1594 72.6799 24.5001C71.0534 22.8334 70.2439 20.683 70.2439 18.0342C70.2439 15.3853 71.0231 13.1829 72.5892 11.5608C74.1779 9.89408 76.3341 9.06072 79.0652 9.06072C82.1822 9.06072 84.6258 10.3331 86.3961 12.8852V9.3658H87.9244V26.6728H86.3886ZM86.3886 21.256V18.9122C86.3886 16.4939 85.806 14.5222 84.6485 12.9894C83.3548 11.2706 81.5164 10.4149 79.1484 10.4149C76.7804 10.4149 75.1085 11.1292 73.7921 12.5578C72.5059 13.9418 71.8704 15.7499 71.8704 17.997C71.8704 20.244 72.4984 22.0893 73.7618 23.451C75.0706 24.8721 76.8637 25.579 79.156 25.579C80.3211 25.579 81.4029 25.3334 82.4091 24.8424C84.1492 23.9941 85.4807 22.7962 86.4037 21.2485L86.3886 21.256Z" stroke="#111827" stroke-width="1.52577" stroke-linecap="round" stroke-linejoin="round"/>
<path d="M109.66 4.52192C109.66 5.2511 109.282 5.61569 108.533 5.61569C107.784 5.61569 107.458 5.2511 107.458 4.52192C107.458 3.79273 107.814 3.46534 108.533 3.46534C109.282 3.46534 109.66 3.81505 109.66 4.52192ZM109.312 26.6802H107.784V9.38811H109.312V26.6802Z" stroke="#111827" stroke-width="1.52577" stroke-linecap="round" stroke-linejoin="round"/>
<path d="M130.737 26.6728H129.209V1.06945H130.737V26.6728Z" stroke="#111827" stroke-width="1.52577" stroke-linecap="round" stroke-linejoin="round"/>
<path d="M151.807 26.6728H150.279V1.06945H151.807V26.6728Z" stroke="#111827" stroke-width="1.52577" stroke-linecap="round" stroke-linejoin="round"/>
<path d="M173.55 4.52192C173.55 5.2511 173.172 5.61569 172.423 5.61569C171.674 5.61569 171.349 5.2511 171.349 4.52192C171.349 3.79273 171.704 3.46534 172.423 3.46534C173.172 3.46534 173.55 3.81505 173.55 4.52192ZM173.202 26.6802H171.674V9.38811H173.202V26.6802Z" stroke="#111827" stroke-width="1.52577" stroke-linecap="round" stroke-linejoin="round"/>
<path d="M210.803 17.7365C210.803 18.049 210.773 18.3095 210.712 18.5252H194.711C194.832 20.6533 195.566 22.3646 196.913 23.6519C198.259 24.9465 200.007 25.5864 202.171 25.5864C203.298 25.5864 204.44 25.4004 205.605 25.0284C206.914 24.6191 207.905 24.0685 208.586 23.3617L209.713 24.4183C208.019 26.137 205.499 26.9927 202.171 26.9927C199.477 26.9927 197.291 26.1594 195.619 24.5001C193.939 22.8334 193.1 20.683 193.1 18.0342C193.1 15.3853 193.924 13.287 195.574 11.598C197.223 9.90896 199.364 9.06072 201.989 9.06072C204.614 9.06072 206.657 9.8792 208.314 11.5161C209.971 13.1531 210.803 15.229 210.803 17.7365ZM209.184 17.1115C208.987 15.1174 208.246 13.5102 206.944 12.2751C205.651 11.0399 203.986 10.4224 201.966 10.4224C199.946 10.4224 198.274 11.0399 196.966 12.2751C195.657 13.5102 194.908 15.1249 194.711 17.1115H209.184Z" stroke="#111827" stroke-width="1.52577" stroke-linecap="round" stroke-linejoin="round"/>
<path d="M239.93 11.0251L239.824 11.0027C239.945 11.0027 239.257 10.9209 237.766 10.7572C236.079 10.7423 234.657 11.4715 233.492 12.9448C232.387 14.3436 231.835 16.3377 231.835 18.9419V26.6728H230.344V9.38067H231.835V12.7587C233.25 10.4596 235.3 9.30627 237.978 9.30627C238.182 9.32859 238.833 9.41788 239.922 9.57413V11.0251H239.93Z" stroke="#111827" stroke-width="1.52577" stroke-linecap="round" stroke-linejoin="round"/>
</svg>
