<svg width="241" height="28" viewBox="0 0 241 28" fill="none" xmlns="http://www.w3.org/2000/svg">
<path d="M13.4121 18.5396C13.4121 20.8909 12.9733 22.7883 12.1033 24.2466C11.0366 26.0473 9.38728 26.9476 7.15546 26.9476C6.4897 26.9476 5.77098 26.8583 4.99173 26.6797L1.08038 25.7868L1.55701 24.2392L5.55914 25.2065C6.05847 25.3255 6.52752 25.3851 6.98145 25.3851C8.62316 25.3851 9.87147 24.6782 10.7339 23.257C11.4375 22.0888 11.7931 20.6379 11.7931 18.9117V1.06152H13.4121V18.5396Z" fill="#111827"/>
<path d="M50.7024 18.0411C50.7024 20.6528 49.8853 22.7957 48.2587 24.4773C46.6246 26.1589 44.4911 26.9997 41.8507 26.9997C39.2104 26.9997 37.0845 26.1589 35.4352 24.4698C33.7859 22.7808 32.9613 20.6379 32.9613 18.0411C32.9613 15.4443 33.7859 13.294 35.4352 11.6049C37.0845 9.91591 39.2255 9.06767 41.8507 9.06767C44.476 9.06767 46.6397 9.92335 48.289 11.6273C49.9004 13.294 50.7099 15.4369 50.7099 18.0486L50.7024 18.0411ZM49.0833 18.0039C49.0833 15.8015 48.4403 13.9934 47.1617 12.5871C45.8453 11.1436 44.075 10.4219 41.8507 10.4219C39.6265 10.4219 37.841 11.1436 36.5019 12.5871C35.2234 13.9785 34.5803 15.7866 34.5803 18.0039C34.5803 20.2212 35.2234 22.0293 36.5019 23.4207C37.8335 24.8642 39.6189 25.5859 41.8507 25.5859C44.0826 25.5859 45.815 24.8568 47.1466 23.4058C48.4403 21.9847 49.0833 20.184 49.0833 18.0039Z" fill="#111827"/>
<path d="M86.3887 26.6723V23.4505C85.4279 24.76 84.0964 25.7422 82.3866 26.4044C81.3577 26.7988 80.2682 26.9922 79.1334 26.9922C76.4552 26.9922 74.3066 26.1589 72.6801 24.4996C71.0535 22.8329 70.244 20.6826 70.244 18.0337C70.244 15.3848 71.0232 13.1824 72.5893 11.5603C74.178 9.89359 76.3342 9.06024 79.0653 9.06024C82.1823 9.06024 84.6259 10.3326 86.3963 12.8847V9.36531H87.9245V26.6723H86.3887ZM86.3887 21.2555V18.9117C86.3887 16.4935 85.8062 14.5217 84.6487 12.9889C83.3549 11.2701 81.5165 10.4144 79.1485 10.4144C76.7805 10.4144 75.1086 11.1287 73.7922 12.5573C72.5061 13.9413 71.8706 15.7494 71.8706 17.9965C71.8706 20.2435 72.4985 22.0888 73.7619 23.4505C75.0708 24.8716 76.8638 25.5785 79.1561 25.5785C80.3212 25.5785 81.4031 25.333 82.4093 24.8419C84.1493 23.9936 85.4808 22.7957 86.4038 21.248L86.3887 21.2555Z" fill="#111827"/>
<path d="M109.66 4.52143C109.66 5.25061 109.282 5.61521 108.533 5.61521C107.784 5.61521 107.459 5.25061 107.459 4.52143C107.459 3.79224 107.814 3.46485 108.533 3.46485C109.282 3.46485 109.66 3.81456 109.66 4.52143ZM109.312 26.6797H107.784V9.38763H109.312V26.6797Z" fill="#111827"/>
<path d="M130.738 26.6723H129.209V1.06896H130.738V26.6723Z" fill="#111827"/>
<path d="M151.807 26.6723H150.279V1.06896H151.807V26.6723Z" fill="#111827"/>
<path d="M173.551 4.52143C173.551 5.25061 173.172 5.61521 172.423 5.61521C171.674 5.61521 171.349 5.25061 171.349 4.52143C171.349 3.79224 171.705 3.46485 172.423 3.46485C173.172 3.46485 173.551 3.81456 173.551 4.52143ZM173.203 26.6797H171.674V9.38763H173.203V26.6797Z" fill="#111827"/>
<path d="M210.803 17.7361C210.803 18.0486 210.773 18.309 210.712 18.5248H194.711C194.832 20.6528 195.566 22.3641 196.913 23.6514C198.259 24.9461 200.007 25.5859 202.171 25.5859C203.298 25.5859 204.44 25.3999 205.605 25.0279C206.914 24.6187 207.905 24.0681 208.586 23.3612L209.714 24.4178C208.019 26.1366 205.5 26.9922 202.171 26.9922C199.477 26.9922 197.291 26.1589 195.619 24.4996C193.94 22.8329 193.1 20.6826 193.1 18.0337C193.1 15.3848 193.924 13.2865 195.574 11.5975C197.223 9.90847 199.364 9.06024 201.989 9.06024C204.614 9.06024 206.657 9.87871 208.314 11.5157C209.971 13.1526 210.803 15.2285 210.803 17.7361ZM209.184 17.111C208.987 15.1169 208.246 13.5097 206.945 12.2746C205.651 11.0394 203.986 10.4219 201.967 10.4219C199.947 10.4219 198.275 11.0394 196.966 12.2746C195.657 13.5097 194.908 15.1244 194.711 17.111H209.184Z" fill="#111827"/>
<path d="M239.93 11.0246L239.824 11.0022C239.945 11.0022 239.257 10.9204 237.766 10.7567C236.079 10.7418 234.657 11.471 233.492 12.9443C232.387 14.3431 231.835 16.3372 231.835 18.9414V26.6723H230.345V9.38018H231.835V12.7582C233.25 10.4591 235.3 9.30578 237.978 9.30578C238.182 9.3281 238.833 9.41739 239.923 9.57364V11.0246H239.93Z" fill="#111827"/>
<path d="M13.4121 18.5396C13.4121 20.8909 12.9733 22.7883 12.1033 24.2466C11.0366 26.0473 9.38728 26.9476 7.15546 26.9476C6.4897 26.9476 5.77098 26.8583 4.99173 26.6797L1.08038 25.7868L1.55701 24.2392L5.55914 25.2065C6.05847 25.3255 6.52752 25.3851 6.98145 25.3851C8.62316 25.3851 9.87147 24.6782 10.7339 23.257C11.4375 22.0888 11.7931 20.6379 11.7931 18.9117V1.06152H13.4121V18.5396Z" stroke="#111827" stroke-width="1.52577" stroke-linecap="round" stroke-linejoin="round"/>
<path d="M50.7024 18.0411C50.7024 20.6528 49.8853 22.7957 48.2587 24.4773C46.6246 26.1589 44.4911 26.9997 41.8507 26.9997C39.2104 26.9997 37.0845 26.1589 35.4352 24.4698C33.7859 22.7808 32.9613 20.6379 32.9613 18.0411C32.9613 15.4443 33.7859 13.294 35.4352 11.6049C37.0845 9.91591 39.2255 9.06767 41.8507 9.06767C44.476 9.06767 46.6397 9.92335 48.289 11.6273C49.9004 13.294 50.7099 15.4369 50.7099 18.0486L50.7024 18.0411ZM49.0833 18.0039C49.0833 15.8015 48.4403 13.9934 47.1617 12.5871C45.8453 11.1436 44.075 10.4219 41.8507 10.4219C39.6265 10.4219 37.841 11.1436 36.5019 12.5871C35.2234 13.9785 34.5803 15.7866 34.5803 18.0039C34.5803 20.2212 35.2234 22.0293 36.5019 23.4207C37.8335 24.8642 39.6189 25.5859 41.8507 25.5859C44.0826 25.5859 45.815 24.8568 47.1466 23.4058C48.4403 21.9847 49.0833 20.184 49.0833 18.0039Z" stroke="#111827" stroke-width="1.52577" stroke-linecap="round" stroke-linejoin="round"/>
<path d="M86.3887 26.6723V23.4505C85.4279 24.76 84.0964 25.7422 82.3866 26.4044C81.3577 26.7988 80.2682 26.9922 79.1334 26.9922C76.4552 26.9922 74.3066 26.1589 72.6801 24.4996C71.0535 22.8329 70.244 20.6826 70.244 18.0337C70.244 15.3848 71.0232 13.1824 72.5893 11.5603C74.178 9.89359 76.3342 9.06024 79.0653 9.06024C82.1823 9.06024 84.6259 10.3326 86.3963 12.8847V9.36531H87.9245V26.6723H86.3887ZM86.3887 21.2555V18.9117C86.3887 16.4935 85.8062 14.5217 84.6487 12.9889C83.3549 11.2701 81.5165 10.4144 79.1485 10.4144C76.7805 10.4144 75.1086 11.1287 73.7922 12.5573C72.5061 13.9413 71.8706 15.7494 71.8706 17.9965C71.8706 20.2435 72.4985 22.0888 73.7619 23.4505C75.0708 24.8716 76.8638 25.5785 79.1561 25.5785C80.3212 25.5785 81.4031 25.333 82.4093 24.8419C84.1493 23.9936 85.4808 22.7957 86.4038 21.248L86.3887 21.2555Z" stroke="#111827" stroke-width="1.52577" stroke-linecap="round" stroke-linejoin="round"/>
<path d="M109.66 4.52143C109.66 5.25061 109.282 5.61521 108.533 5.61521C107.784 5.61521 107.459 5.25061 107.459 4.52143C107.459 3.79224 107.814 3.46485 108.533 3.46485C109.282 3.46485 109.66 3.81456 109.66 4.52143ZM109.312 26.6797H107.784V9.38763H109.312V26.6797Z" stroke="#111827" stroke-width="1.52577" stroke-linecap="round" stroke-linejoin="round"/>
<path d="M130.738 26.6723H129.209V1.06896H130.738V26.6723Z" stroke="#111827" stroke-width="1.52577" stroke-linecap="round" stroke-linejoin="round"/>
<path d="M151.807 26.6723H150.279V1.06896H151.807V26.6723Z" stroke="#111827" stroke-width="1.52577" stroke-linecap="round" stroke-linejoin="round"/>
<path d="M173.551 4.52143C173.551 5.25061 173.172 5.61521 172.423 5.61521C171.674 5.61521 171.349 5.25061 171.349 4.52143C171.349 3.79224 171.705 3.46485 172.423 3.46485C173.172 3.46485 173.551 3.81456 173.551 4.52143ZM173.203 26.6797H171.674V9.38763H173.203V26.6797Z" stroke="#111827" stroke-width="1.52577" stroke-linecap="round" stroke-linejoin="round"/>
<path d="M210.803 17.7361C210.803 18.0486 210.773 18.309 210.712 18.5248H194.711C194.832 20.6528 195.566 22.3641 196.913 23.6514C198.259 24.9461 200.007 25.5859 202.171 25.5859C203.298 25.5859 204.44 25.3999 205.605 25.0279C206.914 24.6187 207.905 24.0681 208.586 23.3612L209.714 24.4178C208.019 26.1366 205.5 26.9922 202.171 26.9922C199.477 26.9922 197.291 26.1589 195.619 24.4996C193.94 22.8329 193.1 20.6826 193.1 18.0337C193.1 15.3848 193.924 13.2865 195.574 11.5975C197.223 9.90847 199.364 9.06024 201.989 9.06024C204.614 9.06024 206.657 9.87871 208.314 11.5157C209.971 13.1526 210.803 15.2285 210.803 17.7361ZM209.184 17.111C208.987 15.1169 208.246 13.5097 206.945 12.2746C205.651 11.0394 203.986 10.4219 201.967 10.4219C199.947 10.4219 198.275 11.0394 196.966 12.2746C195.657 13.5097 194.908 15.1244 194.711 17.111H209.184Z" stroke="#111827" stroke-width="1.52577" stroke-linecap="round" stroke-linejoin="round"/>
<path d="M239.93 11.0246L239.824 11.0022C239.945 11.0022 239.257 10.9204 237.766 10.7567C236.079 10.7418 234.657 11.471 233.492 12.9443C232.387 14.3431 231.835 16.3372 231.835 18.9414V26.6723H230.345V9.38018H231.835V12.7582C233.25 10.4591 235.3 9.30578 237.978 9.30578C238.182 9.3281 238.833 9.41739 239.923 9.57364V11.0246H239.93Z" stroke="#111827" stroke-width="1.52577" stroke-linecap="round" stroke-linejoin="round"/>
</svg>
