<svg width="104" height="13" viewBox="0 0 104 13" fill="none" xmlns="http://www.w3.org/2000/svg">
<path d="M5.68957 8.70263C5.68957 9.71939 5.49982 10.5399 5.12359 11.1705C4.6623 11.9492 3.9491 12.3385 2.98399 12.3385C2.6961 12.3385 2.3853 12.2999 2.04833 12.2227L0.356934 11.8366L0.563041 11.1673L2.29369 11.5856C2.50962 11.6371 2.71245 11.6628 2.90875 11.6628C3.61867 11.6628 4.15848 11.3571 4.53144 10.7426C4.8357 10.2374 4.98946 9.60999 4.98946 8.86351V1.14453H5.68957V8.70263Z" fill="#111827"/>
<path d="M21.8151 8.48705C21.8151 9.61642 21.4617 10.5431 20.7584 11.2703C20.0517 11.9974 19.1291 12.361 17.9873 12.361C16.8456 12.361 15.9263 11.9974 15.2131 11.267C14.4999 10.5367 14.1433 9.60999 14.1433 8.48705C14.1433 7.36412 14.4999 6.43424 15.2131 5.70385C15.9263 4.97345 16.8521 4.60665 17.9873 4.60665C19.1226 4.60665 20.0582 4.97667 20.7714 5.7135C21.4683 6.43424 21.8183 7.3609 21.8183 8.49027L21.8151 8.48705ZM21.115 8.47096C21.115 7.51856 20.8369 6.73669 20.284 6.12856C19.7147 5.50435 18.9492 5.19225 17.9873 5.19225C17.0255 5.19225 16.2534 5.50435 15.6744 6.12856C15.1215 6.73025 14.8434 7.51212 14.8434 8.47096C14.8434 9.4298 15.1215 10.2117 15.6744 10.8134C16.2502 11.4376 17.0222 11.7497 17.9873 11.7497C18.9525 11.7497 19.7016 11.4344 20.2774 10.8069C20.8369 10.1924 21.115 9.41372 21.115 8.47096Z" fill="#111827"/>
<path d="M37.247 12.2195V10.8262C36.8315 11.3925 36.2557 11.8173 35.5163 12.1036C35.0714 12.2741 34.6003 12.3578 34.1096 12.3578C32.9515 12.3578 32.0223 11.9974 31.3189 11.2799C30.6156 10.5592 30.2655 9.6293 30.2655 8.48384C30.2655 7.33838 30.6025 6.38597 31.2797 5.68454C31.9667 4.9638 32.8991 4.60343 34.0801 4.60343C35.428 4.60343 36.4847 5.15364 37.2503 6.25727V4.73535H37.9111V12.2195H37.247ZM37.247 9.87705V8.86351C37.247 7.81779 36.9951 6.96514 36.4945 6.30232C35.9351 5.55905 35.1401 5.18903 34.1161 5.18903C33.0921 5.18903 32.3691 5.49792 31.7999 6.1157C31.2437 6.71417 30.9689 7.49604 30.9689 8.46775C30.9689 9.43946 31.2404 10.2374 31.7868 10.8262C32.3528 11.4408 33.1281 11.7465 34.1194 11.7465C34.6232 11.7465 35.091 11.6403 35.5262 11.4279C36.2786 11.0611 36.8544 10.5431 37.2535 9.87383L37.247 9.87705Z" fill="#111827"/>
<path d="M47.3103 2.64071C47.3103 2.95603 47.1467 3.11369 46.8228 3.11369C46.499 3.11369 46.3583 2.95603 46.3583 2.64071C46.3583 2.32538 46.512 2.18381 46.8228 2.18381C47.1467 2.18381 47.3103 2.33503 47.3103 2.64071ZM47.1598 12.2227H46.499V4.74501H47.1598V12.2227Z" fill="#111827"/>
<path d="M56.4249 12.2195H55.764V1.14775H56.4249V12.2195Z" fill="#111827"/>
<path d="M65.5362 12.2195H64.8753V1.14775H65.5362V12.2195Z" fill="#111827"/>
<path d="M74.9386 2.64071C74.9386 2.95603 74.775 3.11369 74.4511 3.11369C74.1273 3.11369 73.9866 2.95603 73.9866 2.64071C73.9866 2.32538 74.1404 2.18381 74.4511 2.18381C74.775 2.18381 74.9386 2.33503 74.9386 2.64071ZM74.7881 12.2227H74.1273V4.74501H74.7881V12.2227Z" fill="#111827"/>
<path d="M91.0477 8.35514C91.0477 8.49027 91.0347 8.60289 91.0085 8.6962H84.0892C84.1415 9.61643 84.4588 10.3565 85.0412 10.9131C85.6235 11.473 86.3792 11.7497 87.3149 11.7497C87.8024 11.7497 88.2964 11.6692 88.8002 11.5084C89.3662 11.3314 89.7947 11.0933 90.0892 10.7876L90.5767 11.2445C89.8438 11.9878 88.7544 12.3578 87.3149 12.3578C86.1502 12.3578 85.2048 11.9974 84.4817 11.2799C83.7555 10.5592 83.3923 9.6293 83.3923 8.48384C83.3923 7.33838 83.7489 6.43102 84.4621 5.70063C85.1753 4.97024 86.1012 4.60343 87.2364 4.60343C88.3716 4.60343 89.2549 4.95737 89.9714 5.66524C90.6879 6.3731 91.0477 7.27081 91.0477 8.35514ZM90.3476 8.08485C90.2626 7.22254 89.942 6.52754 89.3793 5.99343C88.8198 5.45931 88.1001 5.19225 87.2266 5.19225C86.3531 5.19225 85.6301 5.45931 85.0641 5.99343C84.4981 6.52754 84.1742 7.22576 84.0892 8.08485H90.3476Z" fill="#111827"/>
<path d="M103.643 5.45287L103.597 5.44322C103.65 5.44322 103.352 5.40783 102.708 5.33704C101.978 5.33061 101.363 5.64593 100.859 6.28301C100.382 6.88792 100.143 7.75023 100.143 8.87638V12.2195H99.4982V4.74179H100.143V6.20257C100.754 5.20834 101.641 4.70961 102.799 4.70961C102.888 4.71927 103.169 4.75788 103.64 4.82545V5.45287H103.643Z" fill="#111827"/>
<path d="M5.68957 8.70263C5.68957 9.71939 5.49982 10.5399 5.12359 11.1705C4.6623 11.9492 3.9491 12.3385 2.98399 12.3385C2.6961 12.3385 2.3853 12.2999 2.04833 12.2227L0.356934 11.8366L0.563041 11.1673L2.29369 11.5856C2.50962 11.6371 2.71245 11.6628 2.90875 11.6628C3.61867 11.6628 4.15848 11.3571 4.53144 10.7426C4.8357 10.2374 4.98946 9.60999 4.98946 8.86351V1.14453H5.68957V8.70263Z" stroke="#111827" stroke-width="0.659794" stroke-linecap="round" stroke-linejoin="round"/>
<path d="M21.8151 8.48705C21.8151 9.61642 21.4617 10.5431 20.7584 11.2703C20.0517 11.9974 19.1291 12.361 17.9873 12.361C16.8456 12.361 15.9263 11.9974 15.2131 11.267C14.4999 10.5367 14.1433 9.60999 14.1433 8.48705C14.1433 7.36412 14.4999 6.43424 15.2131 5.70385C15.9263 4.97345 16.8521 4.60665 17.9873 4.60665C19.1226 4.60665 20.0582 4.97667 20.7714 5.7135C21.4683 6.43424 21.8183 7.3609 21.8183 8.49027L21.8151 8.48705ZM21.115 8.47096C21.115 7.51856 20.8369 6.73669 20.284 6.12856C19.7147 5.50435 18.9492 5.19225 17.9873 5.19225C17.0255 5.19225 16.2534 5.50435 15.6744 6.12856C15.1215 6.73025 14.8434 7.51212 14.8434 8.47096C14.8434 9.4298 15.1215 10.2117 15.6744 10.8134C16.2502 11.4376 17.0222 11.7497 17.9873 11.7497C18.9525 11.7497 19.7016 11.4344 20.2774 10.8069C20.8369 10.1924 21.115 9.41372 21.115 8.47096Z" stroke="#111827" stroke-width="0.659794" stroke-linecap="round" stroke-linejoin="round"/>
<path d="M37.247 12.2195V10.8262C36.8315 11.3925 36.2557 11.8173 35.5163 12.1036C35.0714 12.2741 34.6003 12.3578 34.1096 12.3578C32.9515 12.3578 32.0223 11.9974 31.3189 11.2799C30.6156 10.5592 30.2655 9.6293 30.2655 8.48384C30.2655 7.33838 30.6025 6.38597 31.2797 5.68454C31.9667 4.9638 32.8991 4.60343 34.0801 4.60343C35.428 4.60343 36.4847 5.15364 37.2503 6.25727V4.73535H37.9111V12.2195H37.247ZM37.247 9.87705V8.86351C37.247 7.81779 36.9951 6.96514 36.4945 6.30232C35.9351 5.55905 35.1401 5.18903 34.1161 5.18903C33.0921 5.18903 32.3691 5.49792 31.7999 6.1157C31.2437 6.71417 30.9689 7.49604 30.9689 8.46775C30.9689 9.43946 31.2404 10.2374 31.7868 10.8262C32.3528 11.4408 33.1281 11.7465 34.1194 11.7465C34.6232 11.7465 35.091 11.6403 35.5262 11.4279C36.2786 11.0611 36.8544 10.5431 37.2535 9.87383L37.247 9.87705Z" stroke="#111827" stroke-width="0.659794" stroke-linecap="round" stroke-linejoin="round"/>
<path d="M47.3103 2.64071C47.3103 2.95603 47.1467 3.11369 46.8228 3.11369C46.499 3.11369 46.3583 2.95603 46.3583 2.64071C46.3583 2.32538 46.512 2.18381 46.8228 2.18381C47.1467 2.18381 47.3103 2.33503 47.3103 2.64071ZM47.1598 12.2227H46.499V4.74501H47.1598V12.2227Z" stroke="#111827" stroke-width="0.659794" stroke-linecap="round" stroke-linejoin="round"/>
<path d="M56.4249 12.2195H55.764V1.14775H56.4249V12.2195Z" stroke="#111827" stroke-width="0.659794" stroke-linecap="round" stroke-linejoin="round"/>
<path d="M65.5362 12.2195H64.8753V1.14775H65.5362V12.2195Z" stroke="#111827" stroke-width="0.659794" stroke-linecap="round" stroke-linejoin="round"/>
<path d="M74.9386 2.64071C74.9386 2.95603 74.775 3.11369 74.4511 3.11369C74.1273 3.11369 73.9866 2.95603 73.9866 2.64071C73.9866 2.32538 74.1404 2.18381 74.4511 2.18381C74.775 2.18381 74.9386 2.33503 74.9386 2.64071ZM74.7881 12.2227H74.1273V4.74501H74.7881V12.2227Z" stroke="#111827" stroke-width="0.659794" stroke-linecap="round" stroke-linejoin="round"/>
<path d="M91.0477 8.35514C91.0477 8.49027 91.0347 8.60289 91.0085 8.6962H84.0892C84.1415 9.61643 84.4588 10.3565 85.0412 10.9131C85.6235 11.473 86.3792 11.7497 87.3149 11.7497C87.8024 11.7497 88.2964 11.6692 88.8002 11.5084C89.3662 11.3314 89.7947 11.0933 90.0892 10.7876L90.5767 11.2445C89.8438 11.9878 88.7544 12.3578 87.3149 12.3578C86.1502 12.3578 85.2048 11.9974 84.4817 11.2799C83.7555 10.5592 83.3923 9.6293 83.3923 8.48384C83.3923 7.33838 83.7489 6.43102 84.4621 5.70063C85.1753 4.97024 86.1012 4.60343 87.2364 4.60343C88.3716 4.60343 89.2549 4.95737 89.9714 5.66524C90.6879 6.3731 91.0477 7.27081 91.0477 8.35514ZM90.3476 8.08485C90.2626 7.22254 89.942 6.52754 89.3793 5.99343C88.8198 5.45931 88.1001 5.19225 87.2266 5.19225C86.3531 5.19225 85.6301 5.45931 85.0641 5.99343C84.4981 6.52754 84.1742 7.22576 84.0892 8.08485H90.3476Z" stroke="#111827" stroke-width="0.659794" stroke-linecap="round" stroke-linejoin="round"/>
<path d="M103.643 5.45287L103.597 5.44322C103.65 5.44322 103.352 5.40783 102.708 5.33704C101.978 5.33061 101.363 5.64593 100.859 6.28301C100.382 6.88792 100.143 7.75023 100.143 8.87638V12.2195H99.4982V4.74179H100.143V6.20257C100.754 5.20834 101.641 4.70961 102.799 4.70961C102.888 4.71927 103.169 4.75788 103.64 4.82545V5.45287H103.643Z" stroke="#111827" stroke-width="0.659794" stroke-linecap="round" stroke-linejoin="round"/>
</svg>
