<svg width="20" height="20" viewBox="0 0 20 20" fill="none" xmlns="http://www.w3.org/2000/svg">
<path fill-rule="evenodd" clip-rule="evenodd" d="M7.59266 15.1853C3.39935 15.1853 0 11.786 0 7.59266C0 3.39935 3.39935 0 7.59266 0C11.786 0 15.1853 3.39935 15.1853 7.59266C15.1853 9.53752 14.4541 11.3116 13.2515 12.655L20 19.4035L19.4035 20L12.655 13.2515C11.3116 14.4541 9.53752 15.1853 7.59266 15.1853ZM7.59266 14.3417C11.3201 14.3417 14.3417 11.3201 14.3417 7.59266C14.3417 3.86527 11.3201 0.843629 7.59266 0.843629C3.86527 0.843629 0.843629 3.86527 0.843629 7.59266C0.843629 11.3201 3.86527 14.3417 7.59266 14.3417Z" fill="#111827"/>
</svg>
