<svg width="104" height="13" viewBox="0 0 104 13" fill="none" xmlns="http://www.w3.org/2000/svg">
<path d="M5.68948 8.70263C5.68948 9.71939 5.49973 10.5399 5.1235 11.1705C4.66221 11.9492 3.94901 12.3385 2.9839 12.3385C2.696 12.3385 2.38521 12.2999 2.04824 12.2227L0.356842 11.8366L0.562949 11.1673L2.2936 11.5856C2.50953 11.6371 2.71236 11.6628 2.90865 11.6628C3.61858 11.6628 4.15839 11.3571 4.53135 10.7426C4.8356 10.2374 4.98936 9.60999 4.98936 8.86351V1.14453H5.68948V8.70263Z" fill="#111827"/>
<path d="M21.815 8.48705C21.815 9.61642 21.4617 10.5431 20.7583 11.2703C20.0516 11.9974 19.129 12.361 17.9873 12.361C16.8455 12.361 15.9262 11.9974 15.213 11.267C14.4998 10.5367 14.1432 9.60999 14.1432 8.48705C14.1432 7.36412 14.4998 6.43424 15.213 5.70385C15.9262 4.97345 16.852 4.60665 17.9873 4.60665C19.1225 4.60665 20.0582 4.97667 20.7714 5.7135C21.4682 6.43424 21.8183 7.3609 21.8183 8.49027L21.815 8.48705ZM21.1149 8.47096C21.1149 7.51856 20.8368 6.73669 20.2839 6.12856C19.7146 5.50435 18.9491 5.19225 17.9873 5.19225C17.0254 5.19225 16.2533 5.50435 15.6743 6.12856C15.1214 6.73025 14.8433 7.51212 14.8433 8.47096C14.8433 9.4298 15.1214 10.2117 15.6743 10.8134C16.2501 11.4376 17.0221 11.7497 17.9873 11.7497C18.9524 11.7497 19.7016 11.4344 20.2773 10.8069C20.8368 10.1924 21.1149 9.41372 21.1149 8.47096Z" fill="#111827"/>
<path d="M37.2469 12.2195V10.8262C36.8314 11.3925 36.2556 11.8173 35.5163 12.1036C35.0713 12.2741 34.6002 12.3578 34.1095 12.3578C32.9514 12.3578 32.0222 11.9974 31.3188 11.2799C30.6155 10.5592 30.2654 9.6293 30.2654 8.48384C30.2654 7.33838 30.6024 6.38597 31.2796 5.68454C31.9666 4.9638 32.899 4.60343 34.08 4.60343C35.4279 4.60343 36.4846 5.15364 37.2502 6.25727V4.73535H37.911V12.2195H37.2469ZM37.2469 9.87705V8.86351C37.2469 7.81779 36.995 6.96514 36.4945 6.30232C35.935 5.55905 35.14 5.18903 34.116 5.18903C33.092 5.18903 32.369 5.49792 31.7998 6.1157C31.2436 6.71417 30.9688 7.49604 30.9688 8.46775C30.9688 9.43946 31.2403 10.2374 31.7867 10.8262C32.3527 11.4408 33.128 11.7465 34.1193 11.7465C34.6231 11.7465 35.091 11.6403 35.5261 11.4279C36.2785 11.0611 36.8543 10.5431 37.2535 9.87383L37.2469 9.87705Z" fill="#111827"/>
<path d="M47.3102 2.64071C47.3102 2.95603 47.1466 3.11369 46.8228 3.11369C46.4989 3.11369 46.3582 2.95603 46.3582 2.64071C46.3582 2.32538 46.512 2.18381 46.8228 2.18381C47.1466 2.18381 47.3102 2.33503 47.3102 2.64071ZM47.1597 12.2227H46.4989V4.74501H47.1597V12.2227Z" fill="#111827"/>
<path d="M56.4248 12.2195H55.7639V1.14775H56.4248V12.2195Z" fill="#111827"/>
<path d="M65.5361 12.2195H64.8752V1.14775H65.5361V12.2195Z" fill="#111827"/>
<path d="M74.9385 2.64071C74.9385 2.95603 74.7749 3.11369 74.4511 3.11369C74.1272 3.11369 73.9865 2.95603 73.9865 2.64071C73.9865 2.32538 74.1403 2.18381 74.4511 2.18381C74.7749 2.18381 74.9385 2.33503 74.9385 2.64071ZM74.788 12.2227H74.1272V4.74501H74.788V12.2227Z" fill="#111827"/>
<path d="M91.0477 8.35514C91.0477 8.49027 91.0346 8.60289 91.0084 8.6962H84.0891C84.1414 9.61643 84.4588 10.3565 85.0411 10.9131C85.6234 11.473 86.3792 11.7497 87.3148 11.7497C87.8023 11.7497 88.2963 11.6692 88.8001 11.5084C89.3661 11.3314 89.7947 11.0933 90.0891 10.7876L90.5766 11.2445C89.8437 11.9878 88.7543 12.3578 87.3148 12.3578C86.1501 12.3578 85.2047 11.9974 84.4817 11.2799C83.7554 10.5592 83.3922 9.6293 83.3922 8.48384C83.3922 7.33838 83.7488 6.43102 84.462 5.70063C85.1752 4.97024 86.1011 4.60343 87.2363 4.60343C88.3715 4.60343 89.2549 4.95737 89.9713 5.66524C90.6878 6.3731 91.0477 7.27081 91.0477 8.35514ZM90.3475 8.08485C90.2625 7.22254 89.9419 6.52754 89.3792 5.99343C88.8197 5.45931 88.1 5.19225 87.2265 5.19225C86.353 5.19225 85.63 5.45931 85.064 5.99343C84.498 6.52754 84.1741 7.22576 84.0891 8.08485H90.3475Z" fill="#111827"/>
<path d="M103.643 5.45287L103.597 5.44322C103.65 5.44322 103.352 5.40783 102.707 5.33704C101.978 5.33061 101.363 5.64593 100.859 6.28301C100.381 6.88792 100.143 7.75023 100.143 8.87638V12.2195H99.4981V4.74179H100.143V6.20257C100.754 5.20834 101.641 4.70961 102.799 4.70961C102.887 4.71927 103.169 4.75788 103.64 4.82545V5.45287H103.643Z" fill="#111827"/>
<path d="M5.68948 8.70263C5.68948 9.71939 5.49973 10.5399 5.1235 11.1705C4.66221 11.9492 3.94901 12.3385 2.9839 12.3385C2.696 12.3385 2.38521 12.2999 2.04824 12.2227L0.356842 11.8366L0.562949 11.1673L2.2936 11.5856C2.50953 11.6371 2.71236 11.6628 2.90865 11.6628C3.61858 11.6628 4.15839 11.3571 4.53135 10.7426C4.8356 10.2374 4.98936 9.60999 4.98936 8.86351V1.14453H5.68948V8.70263Z" stroke="#111827" stroke-width="0.659794" stroke-linecap="round" stroke-linejoin="round"/>
<path d="M21.815 8.48705C21.815 9.61642 21.4617 10.5431 20.7583 11.2703C20.0516 11.9974 19.129 12.361 17.9873 12.361C16.8455 12.361 15.9262 11.9974 15.213 11.267C14.4998 10.5367 14.1432 9.60999 14.1432 8.48705C14.1432 7.36412 14.4998 6.43424 15.213 5.70385C15.9262 4.97345 16.852 4.60665 17.9873 4.60665C19.1225 4.60665 20.0582 4.97667 20.7714 5.7135C21.4682 6.43424 21.8183 7.3609 21.8183 8.49027L21.815 8.48705ZM21.1149 8.47096C21.1149 7.51856 20.8368 6.73669 20.2839 6.12856C19.7146 5.50435 18.9491 5.19225 17.9873 5.19225C17.0254 5.19225 16.2533 5.50435 15.6743 6.12856C15.1214 6.73025 14.8433 7.51212 14.8433 8.47096C14.8433 9.4298 15.1214 10.2117 15.6743 10.8134C16.2501 11.4376 17.0221 11.7497 17.9873 11.7497C18.9524 11.7497 19.7016 11.4344 20.2773 10.8069C20.8368 10.1924 21.1149 9.41372 21.1149 8.47096Z" stroke="#111827" stroke-width="0.659794" stroke-linecap="round" stroke-linejoin="round"/>
<path d="M37.2469 12.2195V10.8262C36.8314 11.3925 36.2556 11.8173 35.5163 12.1036C35.0713 12.2741 34.6002 12.3578 34.1095 12.3578C32.9514 12.3578 32.0222 11.9974 31.3188 11.2799C30.6155 10.5592 30.2654 9.6293 30.2654 8.48384C30.2654 7.33838 30.6024 6.38597 31.2796 5.68454C31.9666 4.9638 32.899 4.60343 34.08 4.60343C35.4279 4.60343 36.4846 5.15364 37.2502 6.25727V4.73535H37.911V12.2195H37.2469ZM37.2469 9.87705V8.86351C37.2469 7.81779 36.995 6.96514 36.4945 6.30232C35.935 5.55905 35.14 5.18903 34.116 5.18903C33.092 5.18903 32.369 5.49792 31.7998 6.1157C31.2436 6.71417 30.9688 7.49604 30.9688 8.46775C30.9688 9.43946 31.2403 10.2374 31.7867 10.8262C32.3527 11.4408 33.128 11.7465 34.1193 11.7465C34.6231 11.7465 35.091 11.6403 35.5261 11.4279C36.2785 11.0611 36.8543 10.5431 37.2535 9.87383L37.2469 9.87705Z" stroke="#111827" stroke-width="0.659794" stroke-linecap="round" stroke-linejoin="round"/>
<path d="M47.3102 2.64071C47.3102 2.95603 47.1466 3.11369 46.8228 3.11369C46.4989 3.11369 46.3582 2.95603 46.3582 2.64071C46.3582 2.32538 46.512 2.18381 46.8228 2.18381C47.1466 2.18381 47.3102 2.33503 47.3102 2.64071ZM47.1597 12.2227H46.4989V4.74501H47.1597V12.2227Z" stroke="#111827" stroke-width="0.659794" stroke-linecap="round" stroke-linejoin="round"/>
<path d="M56.4248 12.2195H55.7639V1.14775H56.4248V12.2195Z" stroke="#111827" stroke-width="0.659794" stroke-linecap="round" stroke-linejoin="round"/>
<path d="M65.5361 12.2195H64.8752V1.14775H65.5361V12.2195Z" stroke="#111827" stroke-width="0.659794" stroke-linecap="round" stroke-linejoin="round"/>
<path d="M74.9385 2.64071C74.9385 2.95603 74.7749 3.11369 74.4511 3.11369C74.1272 3.11369 73.9865 2.95603 73.9865 2.64071C73.9865 2.32538 74.1403 2.18381 74.4511 2.18381C74.7749 2.18381 74.9385 2.33503 74.9385 2.64071ZM74.788 12.2227H74.1272V4.74501H74.788V12.2227Z" stroke="#111827" stroke-width="0.659794" stroke-linecap="round" stroke-linejoin="round"/>
<path d="M91.0477 8.35514C91.0477 8.49027 91.0346 8.60289 91.0084 8.6962H84.0891C84.1414 9.61643 84.4588 10.3565 85.0411 10.9131C85.6234 11.473 86.3792 11.7497 87.3148 11.7497C87.8023 11.7497 88.2963 11.6692 88.8001 11.5084C89.3661 11.3314 89.7947 11.0933 90.0891 10.7876L90.5766 11.2445C89.8437 11.9878 88.7543 12.3578 87.3148 12.3578C86.1501 12.3578 85.2047 11.9974 84.4817 11.2799C83.7554 10.5592 83.3922 9.6293 83.3922 8.48384C83.3922 7.33838 83.7488 6.43102 84.462 5.70063C85.1752 4.97024 86.1011 4.60343 87.2363 4.60343C88.3715 4.60343 89.2549 4.95737 89.9713 5.66524C90.6878 6.3731 91.0477 7.27081 91.0477 8.35514ZM90.3475 8.08485C90.2625 7.22254 89.9419 6.52754 89.3792 5.99343C88.8197 5.45931 88.1 5.19225 87.2265 5.19225C86.353 5.19225 85.63 5.45931 85.064 5.99343C84.498 6.52754 84.1741 7.22576 84.0891 8.08485H90.3475Z" stroke="#111827" stroke-width="0.659794" stroke-linecap="round" stroke-linejoin="round"/>
<path d="M103.643 5.45287L103.597 5.44322C103.65 5.44322 103.352 5.40783 102.707 5.33704C101.978 5.33061 101.363 5.64593 100.859 6.28301C100.381 6.88792 100.143 7.75023 100.143 8.87638V12.2195H99.4981V4.74179H100.143V6.20257C100.754 5.20834 101.641 4.70961 102.799 4.70961C102.887 4.71927 103.169 4.75788 103.64 4.82545V5.45287H103.643Z" stroke="#111827" stroke-width="0.659794" stroke-linecap="round" stroke-linejoin="round"/>
</svg>
