<svg width="303" height="36" viewBox="0 0 303 36" fill="none" xmlns="http://www.w3.org/2000/svg">
<path d="M16.9422 23.4195C16.9422 26.3737 16.3909 28.7577 15.2977 30.5901C13.9574 32.8525 11.8852 33.9837 9.08102 33.9837C8.24452 33.9837 7.34148 33.8715 6.36239 33.6471L1.44795 32.5253L2.04681 30.5807L7.07532 31.7961C7.70269 31.9456 8.29204 32.0204 8.86238 32.0204C10.9251 32.0204 12.4936 31.1323 13.5772 29.3467C14.4612 27.8789 14.908 26.0558 14.908 23.8869V1.45898H16.9422V23.4195Z" fill="#111827"/>
<path d="M63.7958 22.7931C63.7958 26.0745 62.7691 28.767 60.7254 30.8799C58.6722 32.9927 55.9916 34.0491 52.6741 34.0491C49.3566 34.0491 46.6855 32.9927 44.6133 30.8705C42.541 28.7483 41.5049 26.0558 41.5049 22.7931C41.5049 19.5303 42.541 16.8285 44.6133 14.7063C46.6855 12.5841 49.3756 11.5184 52.6741 11.5184C55.9726 11.5184 58.6912 12.5935 60.7634 14.7344C62.7882 16.8285 63.8053 19.521 63.8053 22.8024L63.7958 22.7931ZM61.7616 22.7463C61.7616 19.9791 60.9536 17.7073 59.3471 15.9404C57.6931 14.1267 55.4688 13.2199 52.6741 13.2199C49.8794 13.2199 47.6361 14.1267 45.9536 15.9404C44.3471 17.6886 43.5391 19.9604 43.5391 22.7463C43.5391 25.5323 44.3471 27.8041 45.9536 29.5523C47.6266 31.366 49.8699 32.2728 52.6741 32.2728C55.4783 32.2728 57.6551 31.3567 59.3281 29.5336C60.9536 27.748 61.7616 25.4856 61.7616 22.7463Z" fill="#111827"/>
<path d="M108.634 33.6378V29.5897C107.427 31.2351 105.754 32.4692 103.606 33.3012C102.313 33.7967 100.944 34.0398 99.5181 34.0398C96.1531 34.0398 93.4535 32.9927 91.4098 30.9079C89.3661 28.8138 88.349 26.1119 88.349 22.7837C88.349 19.4555 89.328 16.6883 91.2957 14.6502C93.2919 12.5561 96.001 11.509 99.4326 11.509C103.349 11.509 106.419 13.1077 108.644 16.3143V11.8923H110.564V33.6378H108.634ZM108.634 26.8318V23.8869C108.634 20.8485 107.902 18.3711 106.448 16.4452C104.822 14.2856 102.512 13.2105 99.5371 13.2105C96.5619 13.2105 94.4611 14.108 92.8071 15.903C91.1911 17.6419 90.3927 19.9136 90.3927 22.737C90.3927 25.5604 91.1817 27.8789 92.7691 29.5897C94.4136 31.3754 96.6664 32.2635 99.5467 32.2635C101.011 32.2635 102.37 31.955 103.634 31.338C105.82 30.2722 107.493 28.767 108.653 26.8224L108.634 26.8318Z" fill="#111827"/>
<path d="M137.874 5.8062C137.874 6.72239 137.398 7.18049 136.457 7.18049C135.516 7.18049 135.107 6.72239 135.107 5.8062C135.107 4.89001 135.554 4.47866 136.457 4.47866C137.398 4.47866 137.874 4.91806 137.874 5.8062ZM137.436 33.6471H135.516V11.9204H137.436V33.6471Z" fill="#111827"/>
<path d="M164.356 33.6378H162.436V1.46833H164.356V33.6378Z" fill="#111827"/>
<path d="M190.83 33.6378H188.91V1.46833H190.83V33.6378Z" fill="#111827"/>
<path d="M218.149 5.8062C218.149 6.72239 217.674 7.18049 216.733 7.18049C215.792 7.18049 215.383 6.72239 215.383 5.8062C215.383 4.89001 215.83 4.47866 216.733 4.47866C217.674 4.47866 218.149 4.91806 218.149 5.8062ZM217.712 33.6471H215.792V11.9204H217.712V33.6471Z" fill="#111827"/>
<path d="M264.955 22.4098C264.955 22.8024 264.917 23.1297 264.841 23.4008H244.737C244.889 26.0745 245.811 28.2248 247.503 29.8421C249.195 31.4688 251.391 32.2728 254.109 32.2728C255.526 32.2728 256.961 32.0391 258.425 31.5717C260.069 31.0575 261.314 30.3657 262.17 29.4775L263.586 30.8051C261.457 32.9647 258.292 34.0398 254.109 34.0398C250.725 34.0398 247.978 32.9927 245.877 30.9079C243.767 28.8138 242.712 26.1119 242.712 22.7837C242.712 19.4555 243.748 16.8192 245.82 14.697C247.892 12.5748 250.583 11.509 253.881 11.509C257.18 11.509 259.746 12.5374 261.828 14.5941C263.91 16.6509 264.955 19.2592 264.955 22.4098ZM262.921 21.6245C262.674 19.119 261.742 17.0996 260.107 15.5477C258.482 13.9958 256.391 13.2199 253.853 13.2199C251.314 13.2199 249.214 13.9958 247.569 15.5477C245.925 17.0996 244.984 19.1283 244.737 21.6245H262.921Z" fill="#111827"/>
<path d="M301.552 13.9771L301.419 13.9491C301.571 13.9491 300.706 13.8462 298.833 13.6406C296.714 13.6219 294.927 14.538 293.463 16.3891C292.075 18.1467 291.381 20.6522 291.381 23.9243V33.6378H289.508V11.911H291.381V16.1554C293.159 13.2666 295.735 11.8175 299.1 11.8175C299.356 11.8456 300.174 11.9578 301.543 12.1541V13.9771H301.552Z" fill="#111827"/>
<path d="M16.9422 23.4195C16.9422 26.3737 16.3909 28.7577 15.2977 30.5901C13.9574 32.8525 11.8852 33.9837 9.08102 33.9837C8.24452 33.9837 7.34148 33.8715 6.36239 33.6471L1.44795 32.5253L2.04681 30.5807L7.07532 31.7961C7.70269 31.9456 8.29204 32.0204 8.86238 32.0204C10.9251 32.0204 12.4936 31.1323 13.5772 29.3467C14.4612 27.8789 14.908 26.0558 14.908 23.8869V1.45898H16.9422V23.4195Z" stroke="#111827" stroke-width="1.91707" stroke-linecap="round" stroke-linejoin="round"/>
<path d="M63.7958 22.7931C63.7958 26.0745 62.7691 28.767 60.7254 30.8799C58.6722 32.9927 55.9916 34.0491 52.6741 34.0491C49.3566 34.0491 46.6855 32.9927 44.6133 30.8705C42.541 28.7483 41.5049 26.0558 41.5049 22.7931C41.5049 19.5303 42.541 16.8285 44.6133 14.7063C46.6855 12.5841 49.3756 11.5184 52.6741 11.5184C55.9726 11.5184 58.6912 12.5935 60.7634 14.7344C62.7882 16.8285 63.8053 19.521 63.8053 22.8024L63.7958 22.7931ZM61.7616 22.7463C61.7616 19.9791 60.9536 17.7073 59.3471 15.9404C57.6931 14.1267 55.4688 13.2199 52.6741 13.2199C49.8794 13.2199 47.6361 14.1267 45.9536 15.9404C44.3471 17.6886 43.5391 19.9604 43.5391 22.7463C43.5391 25.5323 44.3471 27.8041 45.9536 29.5523C47.6266 31.366 49.8699 32.2728 52.6741 32.2728C55.4783 32.2728 57.6551 31.3567 59.3281 29.5336C60.9536 27.748 61.7616 25.4856 61.7616 22.7463Z" stroke="#111827" stroke-width="1.91707" stroke-linecap="round" stroke-linejoin="round"/>
<path d="M108.634 33.6378V29.5897C107.427 31.2351 105.754 32.4692 103.606 33.3012C102.313 33.7967 100.944 34.0398 99.5181 34.0398C96.1531 34.0398 93.4535 32.9927 91.4098 30.9079C89.3661 28.8138 88.349 26.1119 88.349 22.7837C88.349 19.4555 89.328 16.6883 91.2957 14.6502C93.2919 12.5561 96.001 11.509 99.4326 11.509C103.349 11.509 106.419 13.1077 108.644 16.3143V11.8923H110.564V33.6378H108.634ZM108.634 26.8318V23.8869C108.634 20.8485 107.902 18.3711 106.448 16.4452C104.822 14.2856 102.512 13.2105 99.5371 13.2105C96.5619 13.2105 94.4611 14.108 92.8071 15.903C91.1911 17.6419 90.3927 19.9136 90.3927 22.737C90.3927 25.5604 91.1817 27.8789 92.7691 29.5897C94.4136 31.3754 96.6664 32.2635 99.5467 32.2635C101.011 32.2635 102.37 31.955 103.634 31.338C105.82 30.2722 107.493 28.767 108.653 26.8224L108.634 26.8318Z" stroke="#111827" stroke-width="1.91707" stroke-linecap="round" stroke-linejoin="round"/>
<path d="M137.874 5.8062C137.874 6.72239 137.398 7.18049 136.457 7.18049C135.516 7.18049 135.107 6.72239 135.107 5.8062C135.107 4.89001 135.554 4.47866 136.457 4.47866C137.398 4.47866 137.874 4.91806 137.874 5.8062ZM137.436 33.6471H135.516V11.9204H137.436V33.6471Z" stroke="#111827" stroke-width="1.91707" stroke-linecap="round" stroke-linejoin="round"/>
<path d="M164.356 33.6378H162.436V1.46833H164.356V33.6378Z" stroke="#111827" stroke-width="1.91707" stroke-linecap="round" stroke-linejoin="round"/>
<path d="M190.83 33.6378H188.91V1.46833H190.83V33.6378Z" stroke="#111827" stroke-width="1.91707" stroke-linecap="round" stroke-linejoin="round"/>
<path d="M218.149 5.8062C218.149 6.72239 217.674 7.18049 216.733 7.18049C215.792 7.18049 215.383 6.72239 215.383 5.8062C215.383 4.89001 215.83 4.47866 216.733 4.47866C217.674 4.47866 218.149 4.91806 218.149 5.8062ZM217.712 33.6471H215.792V11.9204H217.712V33.6471Z" stroke="#111827" stroke-width="1.91707" stroke-linecap="round" stroke-linejoin="round"/>
<path d="M264.955 22.4098C264.955 22.8024 264.917 23.1297 264.841 23.4008H244.737C244.889 26.0745 245.811 28.2248 247.503 29.8421C249.195 31.4688 251.391 32.2728 254.109 32.2728C255.526 32.2728 256.961 32.0391 258.425 31.5717C260.069 31.0575 261.314 30.3657 262.17 29.4775L263.586 30.8051C261.457 32.9647 258.292 34.0398 254.109 34.0398C250.725 34.0398 247.978 32.9927 245.877 30.9079C243.767 28.8138 242.712 26.1119 242.712 22.7837C242.712 19.4555 243.748 16.8192 245.82 14.697C247.892 12.5748 250.583 11.509 253.881 11.509C257.18 11.509 259.746 12.5374 261.828 14.5941C263.91 16.6509 264.955 19.2592 264.955 22.4098ZM262.921 21.6245C262.674 19.119 261.742 17.0996 260.107 15.5477C258.482 13.9958 256.391 13.2199 253.853 13.2199C251.314 13.2199 249.214 13.9958 247.569 15.5477C245.925 17.0996 244.984 19.1283 244.737 21.6245H262.921Z" stroke="#111827" stroke-width="1.91707" stroke-linecap="round" stroke-linejoin="round"/>
<path d="M301.552 13.9771L301.419 13.9491C301.571 13.9491 300.706 13.8462 298.833 13.6406C296.714 13.6219 294.927 14.538 293.463 16.3891C292.075 18.1467 291.381 20.6522 291.381 23.9243V33.6378H289.508V11.911H291.381V16.1554C293.159 13.2666 295.735 11.8175 299.1 11.8175C299.356 11.8456 300.174 11.9578 301.543 12.1541V13.9771H301.552Z" stroke="#111827" stroke-width="1.91707" stroke-linecap="round" stroke-linejoin="round"/>
</svg>
