<svg width="241" height="28" viewBox="0 0 241 28" fill="none" xmlns="http://www.w3.org/2000/svg">
<path d="M13.412 18.54C13.412 20.8912 12.9732 22.7886 12.1032 24.247C11.0364 26.0476 9.38715 26.9479 7.15534 26.9479C6.48958 26.9479 5.77086 26.8586 4.99161 26.6801L1.08026 25.7872L1.55688 24.2395L5.55902 25.2068C6.05834 25.3259 6.5274 25.3854 6.98133 25.3854C8.62304 25.3854 9.87135 24.6785 10.7338 23.2574C11.4374 22.0892 11.793 20.6382 11.793 18.912V1.06186H13.412V18.54Z" fill="#111827"/>
<path d="M50.7022 18.0414C50.7022 20.6531 49.8852 22.796 48.2586 24.4776C46.6244 26.1592 44.491 27 41.8506 27C39.2103 27 37.0844 26.1592 35.4351 24.4702C33.7858 22.7811 32.9612 20.6382 32.9612 18.0414C32.9612 15.4447 33.7858 13.2943 35.4351 11.6053C37.0844 9.91625 39.2254 9.06801 41.8506 9.06801C44.4758 9.06801 46.6396 9.92369 48.2888 11.6276C49.9003 13.2943 50.7098 15.4372 50.7098 18.0489L50.7022 18.0414ZM49.0832 18.0042C49.0832 15.8018 48.4401 13.9937 47.1616 12.5874C45.8452 11.144 44.0749 10.4222 41.8506 10.4222C39.6264 10.4222 37.8409 11.144 36.5018 12.5874C35.2233 13.9788 34.5802 15.7869 34.5802 18.0042C34.5802 20.2216 35.2233 22.0296 36.5018 23.4211C37.8334 24.8645 39.6188 25.5863 41.8506 25.5863C44.0824 25.5863 45.8149 24.8571 47.1464 23.4062C48.4401 21.985 49.0832 20.1844 49.0832 18.0042Z" fill="#111827"/>
<path d="M86.3886 26.6726V23.4508C85.4278 24.7604 84.0962 25.7425 82.3864 26.4048C81.3575 26.7991 80.2681 26.9926 79.1333 26.9926C76.4551 26.9926 74.3065 26.1592 72.6799 24.4999C71.0534 22.8332 70.2439 20.6829 70.2439 18.034C70.2439 15.3851 71.0231 13.1827 72.5892 11.5606C74.1779 9.89393 76.3341 9.06057 79.0652 9.06057C82.1822 9.06057 84.6258 10.3329 86.3961 12.8851V9.36564H87.9244V26.6726H86.3886ZM86.3886 21.2558V18.912C86.3886 16.4938 85.806 14.522 84.6485 12.9892C83.3548 11.2704 81.5164 10.4148 79.1484 10.4148C76.7804 10.4148 75.1085 11.1291 73.7921 12.5577C72.5059 13.9416 71.8704 15.7497 71.8704 17.9968C71.8704 20.2439 72.4984 22.0892 73.7618 23.4508C75.0706 24.872 76.8637 25.5788 79.156 25.5788C80.3211 25.5788 81.4029 25.3333 82.4091 24.8422C84.1492 23.994 85.4807 22.796 86.4037 21.2484L86.3886 21.2558Z" fill="#111827"/>
<path d="M109.66 4.52176C109.66 5.25095 109.282 5.61554 108.533 5.61554C107.784 5.61554 107.458 5.25095 107.458 4.52176C107.458 3.79258 107.814 3.46519 108.533 3.46519C109.282 3.46519 109.66 3.8149 109.66 4.52176ZM109.312 26.6801H107.784V9.38796H109.312V26.6801Z" fill="#111827"/>
<path d="M130.737 26.6726H129.209V1.0693H130.737V26.6726Z" fill="#111827"/>
<path d="M151.807 26.6726H150.279V1.0693H151.807V26.6726Z" fill="#111827"/>
<path d="M173.55 4.52176C173.55 5.25095 173.172 5.61554 172.423 5.61554C171.674 5.61554 171.349 5.25095 171.349 4.52176C171.349 3.79258 171.704 3.46519 172.423 3.46519C173.172 3.46519 173.55 3.8149 173.55 4.52176ZM173.202 26.6801H171.674V9.38796H173.202V26.6801Z" fill="#111827"/>
<path d="M210.803 17.7364C210.803 18.0489 210.773 18.3093 210.712 18.5251H194.711C194.832 20.6531 195.566 22.3645 196.913 23.6517C198.259 24.9464 200.007 25.5863 202.171 25.5863C203.298 25.5863 204.44 25.4003 205.605 25.0282C206.914 24.619 207.905 24.0684 208.586 23.3615L209.713 24.4181C208.019 26.1369 205.499 26.9926 202.171 26.9926C199.477 26.9926 197.291 26.1592 195.619 24.4999C193.939 22.8332 193.1 20.6829 193.1 18.034C193.1 15.3851 193.924 13.2869 195.574 11.5978C197.223 9.90881 199.364 9.06057 201.989 9.06057C204.614 9.06057 206.657 9.87905 208.314 11.516C209.971 13.1529 210.803 15.2289 210.803 17.7364ZM209.184 17.1114C208.987 15.1173 208.246 13.5101 206.944 12.2749C205.651 11.0398 203.986 10.4222 201.966 10.4222C199.946 10.4222 198.274 11.0398 196.966 12.2749C195.657 13.5101 194.908 15.1247 194.711 17.1114H209.184Z" fill="#111827"/>
<path d="M239.93 11.0249L239.824 11.0026C239.945 11.0026 239.257 10.9207 237.766 10.757C236.079 10.7422 234.657 11.4713 233.492 12.9446C232.387 14.3434 231.835 16.3375 231.835 18.9418V26.6726H230.344V9.38052H231.835V12.7586C233.25 10.4594 235.3 9.30612 237.978 9.30612C238.182 9.32844 238.833 9.41773 239.922 9.57398V11.0249H239.93Z" fill="#111827"/>
<path d="M13.412 18.54C13.412 20.8912 12.9732 22.7886 12.1032 24.247C11.0364 26.0476 9.38715 26.9479 7.15534 26.9479C6.48958 26.9479 5.77086 26.8586 4.99161 26.6801L1.08026 25.7872L1.55688 24.2395L5.55902 25.2068C6.05834 25.3259 6.5274 25.3854 6.98133 25.3854C8.62304 25.3854 9.87135 24.6785 10.7338 23.2574C11.4374 22.0892 11.793 20.6382 11.793 18.912V1.06186H13.412V18.54Z" stroke="#111827" stroke-width="1.52577" stroke-linecap="round" stroke-linejoin="round"/>
<path d="M50.7022 18.0414C50.7022 20.6531 49.8852 22.796 48.2586 24.4776C46.6244 26.1592 44.491 27 41.8506 27C39.2103 27 37.0844 26.1592 35.4351 24.4702C33.7858 22.7811 32.9612 20.6382 32.9612 18.0414C32.9612 15.4447 33.7858 13.2943 35.4351 11.6053C37.0844 9.91625 39.2254 9.06801 41.8506 9.06801C44.4758 9.06801 46.6396 9.92369 48.2888 11.6276C49.9003 13.2943 50.7098 15.4372 50.7098 18.0489L50.7022 18.0414ZM49.0832 18.0042C49.0832 15.8018 48.4401 13.9937 47.1616 12.5874C45.8452 11.144 44.0749 10.4222 41.8506 10.4222C39.6264 10.4222 37.8409 11.144 36.5018 12.5874C35.2233 13.9788 34.5802 15.7869 34.5802 18.0042C34.5802 20.2216 35.2233 22.0296 36.5018 23.4211C37.8334 24.8645 39.6188 25.5863 41.8506 25.5863C44.0824 25.5863 45.8149 24.8571 47.1464 23.4062C48.4401 21.985 49.0832 20.1844 49.0832 18.0042Z" stroke="#111827" stroke-width="1.52577" stroke-linecap="round" stroke-linejoin="round"/>
<path d="M86.3886 26.6726V23.4508C85.4278 24.7604 84.0962 25.7425 82.3864 26.4048C81.3575 26.7991 80.2681 26.9926 79.1333 26.9926C76.4551 26.9926 74.3065 26.1592 72.6799 24.4999C71.0534 22.8332 70.2439 20.6829 70.2439 18.034C70.2439 15.3851 71.0231 13.1827 72.5892 11.5606C74.1779 9.89393 76.3341 9.06057 79.0652 9.06057C82.1822 9.06057 84.6258 10.3329 86.3961 12.8851V9.36564H87.9244V26.6726H86.3886ZM86.3886 21.2558V18.912C86.3886 16.4938 85.806 14.522 84.6485 12.9892C83.3548 11.2704 81.5164 10.4148 79.1484 10.4148C76.7804 10.4148 75.1085 11.1291 73.7921 12.5577C72.5059 13.9416 71.8704 15.7497 71.8704 17.9968C71.8704 20.2439 72.4984 22.0892 73.7618 23.4508C75.0706 24.872 76.8637 25.5788 79.156 25.5788C80.3211 25.5788 81.4029 25.3333 82.4091 24.8422C84.1492 23.994 85.4807 22.796 86.4037 21.2484L86.3886 21.2558Z" stroke="#111827" stroke-width="1.52577" stroke-linecap="round" stroke-linejoin="round"/>
<path d="M109.66 4.52176C109.66 5.25095 109.282 5.61554 108.533 5.61554C107.784 5.61554 107.458 5.25095 107.458 4.52176C107.458 3.79258 107.814 3.46519 108.533 3.46519C109.282 3.46519 109.66 3.8149 109.66 4.52176ZM109.312 26.6801H107.784V9.38796H109.312V26.6801Z" stroke="#111827" stroke-width="1.52577" stroke-linecap="round" stroke-linejoin="round"/>
<path d="M130.737 26.6726H129.209V1.0693H130.737V26.6726Z" stroke="#111827" stroke-width="1.52577" stroke-linecap="round" stroke-linejoin="round"/>
<path d="M151.807 26.6726H150.279V1.0693H151.807V26.6726Z" stroke="#111827" stroke-width="1.52577" stroke-linecap="round" stroke-linejoin="round"/>
<path d="M173.55 4.52176C173.55 5.25095 173.172 5.61554 172.423 5.61554C171.674 5.61554 171.349 5.25095 171.349 4.52176C171.349 3.79258 171.704 3.46519 172.423 3.46519C173.172 3.46519 173.55 3.8149 173.55 4.52176ZM173.202 26.6801H171.674V9.38796H173.202V26.6801Z" stroke="#111827" stroke-width="1.52577" stroke-linecap="round" stroke-linejoin="round"/>
<path d="M210.803 17.7364C210.803 18.0489 210.773 18.3093 210.712 18.5251H194.711C194.832 20.6531 195.566 22.3645 196.913 23.6517C198.259 24.9464 200.007 25.5863 202.171 25.5863C203.298 25.5863 204.44 25.4003 205.605 25.0282C206.914 24.619 207.905 24.0684 208.586 23.3615L209.713 24.4181C208.019 26.1369 205.499 26.9926 202.171 26.9926C199.477 26.9926 197.291 26.1592 195.619 24.4999C193.939 22.8332 193.1 20.6829 193.1 18.034C193.1 15.3851 193.924 13.2869 195.574 11.5978C197.223 9.90881 199.364 9.06057 201.989 9.06057C204.614 9.06057 206.657 9.87905 208.314 11.516C209.971 13.1529 210.803 15.2289 210.803 17.7364ZM209.184 17.1114C208.987 15.1173 208.246 13.5101 206.944 12.2749C205.651 11.0398 203.986 10.4222 201.966 10.4222C199.946 10.4222 198.274 11.0398 196.966 12.2749C195.657 13.5101 194.908 15.1247 194.711 17.1114H209.184Z" stroke="#111827" stroke-width="1.52577" stroke-linecap="round" stroke-linejoin="round"/>
<path d="M239.93 11.0249L239.824 11.0026C239.945 11.0026 239.257 10.9207 237.766 10.757C236.079 10.7422 234.657 11.4713 233.492 12.9446C232.387 14.3434 231.835 16.3375 231.835 18.9418V26.6726H230.344V9.38052H231.835V12.7586C233.25 10.4594 235.3 9.30612 237.978 9.30612C238.182 9.32844 238.833 9.41773 239.922 9.57398V11.0249H239.93Z" stroke="#111827" stroke-width="1.52577" stroke-linecap="round" stroke-linejoin="round"/>
</svg>
