<svg width="20" height="20" viewBox="0 0 20 20" fill="none" xmlns="http://www.w3.org/2000/svg">
<path fill-rule="evenodd" clip-rule="evenodd" d="M13.3333 0H6.66667V0.833333H9.58333V4.17692C5.17454 4.394 1.66667 8.03733 1.66667 12.5V13.3333V14.1667H17.5H18.3331L18.3333 13.3333V12.5C18.3333 8.03733 14.8255 4.394 10.4167 4.17692V0.833333H13.3333V0ZM17.5 12.5C17.5 8.35787 14.1421 5 10 5C5.85787 5 2.5 8.35787 2.5 12.5V13.3333H17.4998L17.5 12.5ZM20 19.1667V20H0V19.1667H0.416667V19.0427L2.26016 16.25H17.7194L19.5799 19.0417V19.1667H20ZM18.6617 19.1667L17.2733 17.0833H2.70859L1.33337 19.1667H18.6617Z" fill="#111827"/>
</svg>
