<svg width="416" height="116" viewBox="0 0 416 116" fill="none" xmlns="http://www.w3.org/2000/svg">
<path d="M86.0616 14.6029C89.3721 13.6763 94.3379 12.7497 98.5931 12.5199C113.483 11.5934 128.615 15.7667 126.014 29.91C123.414 44.2831 98.5931 51.2362 80.6272 51.2362C67.3927 51.2362 53.4402 48.2192 44.9372 41.9629C26.9712 57.7296 14.2053 78.826 14.2053 93.8885C14.2053 107.335 22.7159 112.665 34.537 112.665C48.482 112.665 59.5926 106.638 68.8137 100.612C74.9585 96.4384 80.6348 91.5683 83.4691 89.0184C86.7796 86.0014 87.9587 85.0749 88.6692 85.7716C89.1453 86.2386 87.9587 87.6248 86.7796 88.7886C81.1034 93.8885 74.9585 99.2182 69.7584 102.695C60.0688 109.418 48.0134 115.215 34.0684 115.911C14.4396 116.608 0.728992 109.655 0.0185167 92.5023C-0.691958 72.1027 19.1636 50.0798 38.7848 36.1663C35.4742 31.993 32.8742 26.8931 32.8742 21.5634C32.8818 8.57642 44.2267 0 56.9926 0C68.3375 0 79.6824 5.56689 86.0691 14.6029H86.0616ZM35.9504 21.7932C35.9504 26.1963 37.6057 30.8366 40.6743 34.7727C53.4402 26.4261 69.0404 19.2432 82.2749 15.5295C74.9434 7.64984 65.0194 3.00953 55.0879 3.00953C45.1564 3.00953 35.9429 10.1998 35.9429 21.7857L35.9504 21.7932ZM117.262 29.443C119.628 18.7762 112.062 13.9135 99.5304 14.1433C95.9855 14.1433 89.8407 15.2997 86.9988 16.4635C88.8884 19.7102 90.5436 25.0399 91.0198 29.2132C91.496 32.9195 91.0198 35.2397 90.3093 35.0099C89.8407 34.7801 90.075 33.6163 89.3645 30.377C88.4198 25.7441 85.8197 20.407 83.6883 17.6273C71.1567 22.2602 56.9774 31.3036 46.8116 40.347C55.0879 46.3735 68.3224 48.9234 81.0883 48.9234C98.3437 48.9234 114.654 40.8066 117.254 29.4504L117.262 29.443Z" fill="#111827"/>
<path d="M91.6849 95.9862C86.054 100.256 82.9854 103.139 77.3545 107.402C76.2056 108.284 75.4347 108.528 74.0289 108.528C72.2375 108.528 71.4666 108.276 72.366 106.52C73.6434 104.133 75.5632 101.249 77.74 98.1137C79.2743 95.9788 84.1342 89.5817 88.7448 83.9333C92.0704 79.7896 96.2954 74.7713 100.135 70.509C104.61 65.6167 109.983 60.0942 115.486 55.0759C116.892 53.8232 118.426 52.9411 120.089 52.9411C121.366 52.9411 121.88 53.1931 122.009 53.8157C119.575 56.2026 108.321 68.3742 102.947 74.6453C92.3274 87.0688 84.2703 98.2323 81.1941 102.628L81.3226 102.754C84.3912 100.241 88.6163 96.6089 93.0908 93.3399C97.5652 90.0784 103.196 86.5648 107.036 86.5648C109.726 86.5648 111.261 87.8175 111.004 89.9524C110.618 92.2132 107.935 95.0967 105.887 97.6096C103.839 99.9965 102.433 101.879 101.662 103.132C100.762 104.637 100.641 105.519 101.148 105.89C101.79 106.394 103.196 105.89 104.216 105.385C105.751 104.629 107.414 103.755 110.361 101.494C112.538 99.8631 115.093 97.6022 116.506 96.3495C117.527 95.4748 117.912 95.3488 118.169 95.5934C118.426 95.8454 118.041 96.3495 117.149 97.2242C116 98.3509 112.16 101.738 109.469 103.747C106.907 105.63 101.919 108.766 97.9507 108.766C95.3885 108.766 93.9826 107.639 94.1111 105.504C94.2396 102.747 97.0513 99.6036 99.485 96.7201C101.405 94.4592 103.325 92.4504 104.859 90.575C105.373 89.945 105.63 89.1963 104.987 88.8182C104.345 88.4402 102.939 88.9442 101.662 89.5743C99.3565 90.701 95.7739 92.8359 91.6849 95.9714V95.9862Z" fill="#111827"/>
<path d="M121.366 93.8514C119.446 95.3562 118.041 96.4829 116.763 97.6171C115.743 98.4992 115.229 98.8698 114.843 98.6178C114.586 98.3657 114.843 97.8617 116.249 96.6089C117.655 95.3562 122.266 91.5906 125.334 89.5817C128.66 87.3209 130.323 86.8242 132.756 86.8242C135.447 86.8242 135.697 87.2023 134.162 88.8331C131.857 91.346 129.809 93.7254 127.254 96.861C125.077 99.4999 123.543 101.753 122.78 103.006C122.009 104.385 121.88 105.267 122.394 105.764C123.037 106.268 124.185 106.016 125.463 105.385C126.74 104.755 128.917 103.377 131.094 101.62C133.784 99.485 134.933 98.4843 136.981 96.6015C138.13 95.6008 138.644 95.0968 139.03 95.4748C139.415 95.8529 138.009 97.1056 137.624 97.4836C136.09 98.9884 132.892 101.753 130.33 103.755C127.768 105.764 123.422 108.899 119.197 108.899C116.514 108.899 115.357 107.646 115.357 105.638C115.357 104.007 116.257 102.376 117.277 100.871C119.839 96.9796 124.828 91.8352 126.876 90.0784C125.977 90.4564 123.294 92.3393 121.374 93.844L121.366 93.8514ZM144.782 69.8864C146.444 69.8864 147.215 71.2651 145.681 73.1479C144.147 75.1568 140.95 76.5355 139.665 76.5355C139.022 75.7794 138.894 73.904 139.536 72.2658C140.307 70.383 142.219 69.879 144.653 69.879H144.782V69.8864Z" fill="#111827"/>
<path d="M142.227 109.159C137.495 109.159 135.19 107.276 135.447 103.888C135.704 101.375 137.11 98.7438 139.158 96.3569L139.03 96.2309C138.644 96.6089 137.624 97.4836 136.853 98.1137C136.082 98.7438 135.447 99.1144 135.19 98.8698C134.933 98.4917 135.447 97.9951 135.961 97.491C137.624 95.9863 138.773 95.1042 140.693 93.7254C142.098 92.7247 144.661 91.0939 146.837 89.9598C151.191 87.6989 155.28 86.0681 158.606 86.5722C161.546 87.0763 162.574 88.9591 162.06 91.3385C161.546 93.7254 159.377 95.6082 157.706 95.6082C155.529 95.6082 155.529 93.8514 156.686 91.9686C158.092 89.5817 158.606 88.077 157.071 87.8249C155.665 87.5729 152.718 89.4557 149.135 93.0953C145.681 96.4829 142.355 101.249 141.97 104.266C141.713 106.149 142.869 107.15 144.91 107.15C146.573 107.15 151.055 106.394 156.678 102.635C159.112 101.005 162.309 98.3731 164.357 96.6163C165.128 95.9863 165.506 95.8602 165.763 96.1123C166.02 96.4903 165.506 96.9944 164.743 97.743C163.08 99.2478 159.497 102.257 157.192 103.762C152.718 106.772 146.701 109.159 142.348 109.159H142.219H142.227Z" fill="#111827"/>
<path d="M186.624 108.78C184.062 108.78 182.656 107.654 182.784 105.519C182.913 102.761 185.725 99.6184 188.158 96.7349C190.078 94.4741 191.998 92.4652 193.532 90.5898C194.046 89.9598 194.303 89.2111 193.661 88.833C193.018 88.455 191.612 88.9591 190.335 89.5891C188.03 90.7159 184.447 92.8507 180.358 95.9862C174.727 100.256 171.659 103.139 166.028 107.402C164.879 108.284 164.108 108.528 162.702 108.528C160.911 108.528 160.14 108.276 161.039 106.52C162.317 104.133 164.108 101.249 166.285 98.1137C167.305 96.6089 168.59 94.9781 170.124 93.0953V92.9693C168.205 94.6001 166.67 95.9788 165.264 97.2316C164.493 97.8616 164.116 97.9876 163.859 97.6096C163.73 97.2316 164.116 96.8535 164.501 96.4829C165.015 95.9788 169.875 91.8426 172.815 89.4557C177.169 83.8073 182.543 77.0321 188.294 70.635C195.717 62.2291 211.324 46.1659 217.976 41.6516C221.558 39.1387 225.141 36.6332 228.852 36.6332C232.178 36.6332 233.206 38.8941 232.82 41.1475C231.8 47.1666 219.51 57.2107 206.593 67.7515C198.785 74.0226 189.957 80.0491 180.494 88.203C178.318 90.5898 172.944 98.2397 169.875 102.635L170.003 102.761C173.072 100.249 177.297 96.6163 181.772 93.3473C186.246 90.0858 191.877 86.5722 195.717 86.5722C198.4 86.5722 199.942 87.8249 199.685 89.9598C199.299 92.2206 196.616 95.1041 194.568 97.617C192.519 100.004 191.114 101.887 190.343 103.139C189.451 104.644 189.322 105.526 189.829 105.897C190.471 106.401 191.877 105.897 192.897 105.393C194.432 104.637 196.094 103.762 199.042 101.501C201.219 99.8705 203.774 97.6096 205.187 96.3569C206.207 95.4822 206.593 95.3562 206.85 95.6008C207.107 95.8528 206.721 96.3569 205.83 97.2316C204.681 98.3583 200.841 101.746 198.15 103.755C195.588 105.638 190.6 108.773 186.632 108.773L186.624 108.78ZM205.429 66.3653C217.711 55.9506 229.101 45.9139 229.608 40.3915C229.736 38.7607 228.837 38.0046 227.431 38.0046C225.254 38.0046 221.8 40.5175 219.117 43.0229C214.892 47.1666 208.755 53.1857 202.103 60.9689C192.761 71.8878 189.436 75.898 182.527 84.934C194.681 74.5192 199.541 71.3837 205.429 66.3653Z" fill="#111827"/>
<path d="M210.674 92.9767C208.755 94.6075 207.22 95.9863 205.814 97.239C205.043 97.8691 204.666 97.9951 204.409 97.617C204.28 97.239 204.666 96.861 205.051 96.4903C205.565 95.9863 210.425 91.85 213.237 89.4631C217.59 83.8147 222.964 77.0396 228.844 70.6424C236.267 62.2365 250.854 47.3 258.526 41.659C262.237 39.0275 265.691 36.6407 269.402 36.6407C272.728 36.6407 273.748 38.9015 273.37 41.155C272.35 47.174 260.067 57.2182 247.143 67.7589C239.335 74.03 228.587 81.5613 221.044 88.2104C218.867 90.5973 212.473 99.6259 210.81 102.013L211.067 102.139C214.65 99.0032 217.719 96.1123 222.072 92.8507C224.377 91.0939 228.089 88.707 230.515 87.7063C232.691 86.8316 234.868 86.4536 236.909 86.5796C240.363 86.8316 242.283 89.2111 241.134 91.598C240.242 93.2288 238.065 93.8588 235.118 94.2295C232.555 94.6075 230.386 94.8595 229.615 95.9863C228.844 97.113 228.466 98.8698 228.595 101.131C228.852 104.14 229.487 105.519 230.772 105.771C231.664 105.897 232.691 105.519 234.097 104.77C235.246 104.14 236.909 103.139 238.957 101.509C241.64 99.3738 243.56 97.7431 245.095 96.3643C245.223 96.2383 246.372 95.2376 246.757 95.6082C247.143 96.1123 245.858 97.113 245.48 97.491C243.817 98.9958 241.006 101.509 237.929 103.888C235.496 105.771 230.893 108.78 226.925 108.78C224.362 108.78 222.443 107.15 222.571 102.88C222.699 99.6184 224.362 96.9795 225.383 95.9788C226.532 94.8521 228.837 94.096 230.628 93.844C232.034 93.592 233.568 93.2139 234.596 92.0872C235.367 91.2125 236.002 89.0777 234.468 88.4476C233.576 88.0696 231.913 88.4476 230.5 89.0777C227.174 90.5824 224.612 92.3392 220.772 95.3488C215.27 99.8631 209.125 105.512 206.699 107.268C205.421 108.143 204.779 108.521 203.373 108.521C201.325 108.521 200.811 108.143 201.582 106.512C202.731 103.999 204.65 101.242 206.827 98.1063C208.362 95.9714 209.389 94.7187 210.667 93.0879V92.9619L210.674 92.9767ZM245.986 66.3728C258.14 55.958 269.659 45.9213 270.165 40.3989C270.294 38.7681 269.394 38.012 267.989 38.012C265.812 38.012 262.358 40.5249 259.674 43.0304C255.449 47.174 249.312 53.1931 242.653 60.9764C236.765 67.8775 233.183 72.0212 223.077 84.9414C235.231 74.5267 240.091 71.3911 245.979 66.3728H245.986Z" fill="#111827"/>
<path d="M263.265 77.0395C270.173 68.7596 275.804 63.7413 284.76 56.8401C292.182 51.3177 302.673 44.4165 312.907 44.4165C323.141 44.4165 329.414 50.8136 328.643 57.7148C328.515 59.3456 327.752 60.4723 327.366 60.3463C327.109 60.2203 327.623 59.3456 327.752 57.7148C328.137 52.3184 322.121 47.6781 312.529 47.6781C300.119 47.6781 292.953 52.0664 286.174 58.0928C280.8 62.9852 272.743 72.1472 264.549 83.066C258.919 90.5973 253.288 98.3731 250.348 102.643L250.476 102.769C253.545 100.256 257.77 96.6237 262.244 93.3548C266.719 90.0932 272.35 86.5796 276.189 86.5796C278.872 86.5796 280.414 87.8324 280.157 89.9672C279.772 92.228 277.089 95.1116 275.04 97.6244C272.992 100.011 271.586 101.894 270.815 103.147C269.923 104.652 269.795 105.534 270.301 105.904C270.944 106.408 272.35 105.904 273.37 105.4C274.904 104.644 276.567 103.77 279.507 101.509C281.684 99.8779 284.239 97.617 285.652 96.3643C286.672 95.4896 287.058 95.3636 287.315 95.6082C287.572 95.8602 287.186 96.3643 286.295 97.239C285.146 98.3657 281.306 101.753 278.615 103.762C276.053 105.645 271.065 108.78 267.097 108.78C264.534 108.78 263.129 107.654 263.257 105.519C263.386 102.761 266.197 99.6184 268.631 96.7349C270.551 94.4741 272.471 92.4652 274.005 90.5898C274.519 89.9598 274.776 89.2111 274.133 88.833C273.491 88.455 272.085 88.9591 270.808 89.5891C268.502 90.7159 264.92 92.8507 260.831 95.9862C255.2 100.256 252.131 103.139 246.5 107.402C245.352 108.284 244.581 108.528 243.175 108.528C241.383 108.528 240.613 108.276 241.512 106.52C242.789 104.133 244.581 101.249 246.757 98.1137C247.778 96.6089 249.063 94.9781 250.597 93.0953V92.9693C248.677 94.6001 247.143 95.9788 245.737 97.2316C244.966 97.8616 244.588 97.9877 244.331 97.6096C244.203 97.2316 244.588 96.8535 244.974 96.4829C245.488 95.9788 250.348 91.8426 253.288 89.4557C255.336 86.8242 260.196 80.6717 263.265 77.0321V77.0395Z" fill="#111827"/>
<path d="M317.896 86.5722C320.586 86.4462 320.836 87.0763 319.558 88.581C317.896 90.4639 315.084 93.5994 312.393 96.861C310.73 98.8698 309.068 101.005 307.919 103.006C307.019 104.511 307.019 105.519 307.533 105.89C308.176 106.394 309.453 105.89 310.473 105.385C311.751 104.755 314.185 103.125 316.233 101.494C318.924 99.359 320.964 97.6022 322.378 96.3495C323.149 95.7194 323.783 95.0968 324.169 95.4748C324.554 95.8528 323.912 96.4755 322.506 97.7357C320.843 99.2404 317.775 101.879 315.341 103.755C312.779 105.764 308.561 108.773 304.336 108.773C301.902 108.773 300.754 107.646 300.625 106.142C300.497 104.763 301.267 103.006 302.416 101.627L302.288 101.501C298.962 104.385 293.074 108.528 288.214 108.78C285.403 108.907 282.455 107.78 282.969 103.762C283.226 101.879 284.246 99.8705 286.552 97.239L286.423 97.113C286.038 97.491 285.524 97.9951 284.76 98.6178C284.246 98.9958 283.868 99.2478 283.611 98.9958C283.354 98.6178 283.997 97.8691 285.403 96.6089C285.788 96.2309 287.957 94.4741 289.242 93.5994C290.52 92.7247 292.696 91.3385 295.13 90.0858C300.119 87.5729 304.601 86.0682 307.926 86.5722C310.481 86.9503 311.38 89.2037 310.609 91.3385C313.678 88.203 315.855 86.5722 317.903 86.5722H317.896ZM295.637 95.7342C290.391 100.753 288.214 104.014 288.471 105.645C288.6 106.527 289.242 106.898 290.134 106.898C292.568 106.898 297.428 104.14 300.882 100.997C304.979 97.4836 309.582 92.0872 309.71 90.0784C309.839 88.4476 308.818 87.8175 307.405 87.8175C304.85 87.8175 300.24 91.2051 295.637 95.7194V95.7342Z" fill="#111827"/>
<path d="M345.015 105.519C345.143 102.761 347.955 99.6185 350.389 96.7349C352.308 94.4741 354.228 92.3467 355.762 90.5899C356.276 89.9598 356.533 89.2111 355.891 88.8331C355.248 88.455 353.843 88.9591 352.565 89.5892C350.26 90.7159 346.677 92.8507 342.588 95.9863C336.958 100.256 333.889 103.139 328.258 107.402C327.109 108.284 326.338 108.528 324.932 108.528C323.141 108.528 322.249 108.276 323.27 106.52C324.169 104.889 326.852 100.745 328.9 98.1137C330.306 96.2309 332.612 93.3474 334.017 91.5906C334.909 90.4638 335.166 89.8338 334.909 89.4557C334.524 88.9517 333.76 89.2037 332.989 89.5817C331.455 90.3378 329.535 91.7166 328.001 92.9693C326.338 94.3481 324.29 96.1049 322.499 97.7356C321.221 98.8624 320.707 99.2404 320.322 98.8624C320.065 98.4843 320.707 97.8617 322.242 96.4755C323.776 95.0967 326.595 92.4578 328.893 90.701C332.347 88.0622 334.909 86.5574 337.592 86.5574C340.026 86.5574 340.79 87.9361 340.79 89.3149C340.79 90.8197 339.769 92.4504 338.106 94.7113C336.187 97.2168 333.503 100.612 332.09 102.613L332.219 102.739C335.287 100.226 339.512 96.5941 343.987 93.3251C348.461 90.0636 354.092 86.55 357.932 86.55C360.622 86.55 362.157 87.8027 361.9 89.9376C361.514 92.1984 358.831 95.0819 356.783 97.5948C354.735 99.9817 353.2 102.109 352.558 103.117C351.537 104.748 351.537 105.504 352.044 105.875C352.686 106.379 354.092 105.875 355.112 105.371C356.647 104.615 358.438 103.614 361.257 101.479C363.434 99.8482 365.989 97.5874 367.395 96.3347C368.415 95.46 368.8 95.334 369.057 95.5786C369.314 95.8306 368.929 96.3347 368.029 97.2094C366.881 98.3361 363.041 101.724 360.35 103.732C357.788 105.615 352.8 108.751 348.832 108.751C346.398 108.751 344.863 107.624 344.992 105.489L345.015 105.519Z" fill="#111827"/>
<path d="M369.329 96.3643L369.201 96.2383C368.815 96.6163 367.41 97.8691 366.639 98.4992C365.996 99.0032 365.618 99.1292 365.361 98.8772C365.104 98.4992 365.618 98.0025 366.132 97.4985C367.795 95.9937 368.944 95.1116 370.864 93.7328C372.27 92.7321 374.703 91.2199 377.13 89.9672C380.07 88.3364 384.68 86.4536 388.134 86.4536C390.818 86.4536 392.102 87.9584 391.974 89.8412C391.717 93.1028 387.62 95.6156 383.788 97.4985C379.949 99.3813 375.981 100.76 373.298 101.39C373.041 101.894 372.655 103.525 372.655 104.4C372.655 106.534 373.547 109.04 378.414 109.04C383.531 109.04 389.805 106.779 393.637 104.896C399.011 102.265 404.642 97.491 407.71 93.4808C410.522 89.7152 413.976 84.0667 413.976 78.4257C413.976 75.7942 413.462 75.4162 413.848 75.1642C414.233 74.9121 414.868 76.2909 414.996 78.4257C415.253 85.5789 411.928 90.8493 409.109 94.4889C405.526 99.1292 400.152 103.147 394.015 106.156C390.432 107.913 384.159 110.426 378.021 110.671C369.836 110.923 365.739 109.04 365.996 103.518C366.125 101.005 367.788 98.1211 369.322 96.3643H369.329ZM382.254 96.3643C385.451 94.2295 387.499 91.472 387.499 89.7152C387.499 88.7145 387.114 88.0844 385.965 88.0844C384.816 88.0844 382.897 89.3371 380.334 91.724C378.286 93.6068 375.217 97.2464 373.812 100.13C376.374 99.4999 379.571 98.1211 382.254 96.3643Z" fill="#111827"/>
</svg>
