<svg width="20" height="20" viewBox="0 0 20 20" fill="none" xmlns="http://www.w3.org/2000/svg">
<path fill-rule="evenodd" clip-rule="evenodd" d="M13.3334 0H6.66673V0.833333H9.58339V4.17692C5.1746 4.394 1.66673 8.03733 1.66673 12.5V13.3333V14.1667H17.5001H18.3332L18.3334 13.3333V12.5C18.3334 8.03733 14.8255 4.394 10.4167 4.17692V0.833333H13.3334V0ZM17.5001 12.5C17.5001 8.35787 14.1422 5 10.0001 5C5.85794 5 2.50006 8.35787 2.50006 12.5V13.3333H17.4999L17.5001 12.5ZM20.0001 19.1667V20H6.10352e-05V19.1667H0.416728V19.0427L2.26022 16.25H17.7194L19.5799 19.0417V19.1667H20.0001ZM18.6618 19.1667L17.2734 17.0833H2.70865L1.33343 19.1667H18.6618Z" fill="#111827"/>
</svg>
