<svg width="180" height="51" viewBox="0 0 180 51" fill="none" xmlns="http://www.w3.org/2000/svg">
<path d="M37.327 6.31476C38.7628 5.91408 40.9166 5.5134 42.7622 5.41403C49.2203 5.01335 55.7832 6.81802 54.6555 12.934C53.5278 19.1494 42.7622 22.1562 34.97 22.1562C29.2298 22.1562 23.1783 20.8515 19.4903 18.1461C11.6981 24.9642 6.1612 34.0869 6.1612 40.6004C6.1612 46.4151 9.85244 48.7199 14.9795 48.7199C21.0278 48.7199 25.8467 46.1138 29.8461 43.5078C32.5113 41.7031 34.9732 39.5971 36.2026 38.4944C37.6384 37.1898 38.1498 36.7891 38.458 37.0904C38.6645 37.2924 38.1498 37.8918 37.6384 38.3951C35.1765 40.6004 32.5113 42.9051 30.2559 44.4085C26.0533 47.3159 20.8246 49.8225 14.7763 50.1238C6.26282 50.4252 0.316181 47.4184 0.00803116 40.001C-0.300119 31.1796 8.3117 21.6561 16.8219 15.6395C15.386 13.8348 14.2583 11.6294 14.2583 9.3247C14.2616 3.70872 19.1822 0 24.719 0C29.6396 0 34.5602 2.4073 37.3303 6.31476H37.327ZM15.5926 9.42406C15.5926 11.3281 16.3105 13.3347 17.6414 15.0368C23.1783 11.4275 29.9445 8.32139 35.6846 6.71545C32.5048 3.30804 28.2005 1.30142 23.8929 1.30142C19.5854 1.30142 15.5893 4.41072 15.5893 9.42086L15.5926 9.42406ZM50.8594 12.7321C51.8854 8.11944 48.604 6.01666 43.1687 6.11603C41.6312 6.11603 38.9661 6.61608 37.7335 7.11934C38.553 8.52333 39.271 10.8281 39.4775 12.6327C39.684 14.2355 39.4775 15.2388 39.1693 15.1394C38.9661 15.04 39.0677 14.5368 38.7596 13.136C38.3498 11.1326 37.2221 8.82464 36.2976 7.62259C30.8624 9.62601 24.7125 13.5367 20.3033 17.4473C23.8929 20.0534 29.6331 21.1561 35.1699 21.1561C42.654 21.1561 49.7284 17.6461 50.8561 12.7353L50.8594 12.7321Z" fill="#111827"/>
<path d="M39.766 41.5076C37.3237 43.3539 35.9928 44.6008 33.5505 46.444C33.0522 46.8254 32.7178 46.9312 32.1081 46.9312C31.3312 46.9312 30.9968 46.8222 31.3869 46.0625C31.9409 45.0304 32.7736 43.7834 33.7177 42.4275C34.3832 41.5043 36.491 38.738 38.4907 36.2955C39.9331 34.5036 41.7657 32.3335 43.431 30.4904C45.3717 28.3748 47.7025 25.9867 50.089 23.8166C50.6987 23.2749 51.3642 22.8934 52.0854 22.8934C52.6394 22.8934 52.8623 23.0024 52.9181 23.2717C51.8625 24.3038 46.9813 29.5672 44.6505 32.279C40.0446 37.6514 36.5501 42.4788 35.2158 44.3796L35.2716 44.4341C36.6025 43.3475 38.435 41.7768 40.3757 40.3632C42.3164 38.9528 44.7586 37.4334 46.424 37.4334C47.591 37.4334 48.2565 37.9751 48.145 38.8983C47.9778 39.876 46.8141 41.1229 45.9257 42.2095C45.0373 43.2417 44.4276 44.0559 44.0932 44.5976C43.7031 45.2483 43.6506 45.6298 43.8703 45.7901C44.1489 46.008 44.7586 45.7901 45.2012 45.5721C45.8667 45.2451 46.5879 44.8669 47.8664 43.8892C48.8105 43.184 49.9185 42.2063 50.5315 41.6646C50.9741 41.2864 51.1413 41.2319 51.2527 41.3377C51.3642 41.4467 51.197 41.6646 50.8102 42.0429C50.3119 42.5301 48.6466 43.995 47.4795 44.8637C46.3682 45.6779 44.2046 47.0338 42.4836 47.0338C41.3723 47.0338 40.7625 46.5465 40.8183 45.6234C40.874 44.4309 42.0935 43.0718 43.1491 41.8249C43.9817 40.8472 44.8144 39.9785 45.4798 39.1676C45.7028 38.8951 45.8142 38.5713 45.5356 38.4079C45.2569 38.2444 44.6472 38.4624 44.0932 38.7348C43.0933 39.2221 41.5395 40.1452 39.766 41.5011V41.5076Z" fill="#111827"/>
<path d="M52.6394 40.5844C51.8068 41.2351 51.197 41.7223 50.643 42.2128C50.2004 42.5942 49.9775 42.7545 49.8103 42.6455C49.6989 42.5365 49.8103 42.3185 50.4201 41.7768C51.0298 41.2351 53.0295 39.6067 54.3605 38.738C55.8029 37.7604 56.5241 37.5456 57.5797 37.5456C58.7467 37.5456 58.8549 37.7091 58.1894 38.4143C57.1896 39.5009 56.3012 40.5299 55.1931 41.8858C54.249 43.027 53.5835 44.0014 53.2524 44.5431C52.9181 45.1394 52.8623 45.5208 53.0853 45.7356C53.3639 45.9535 53.8622 45.8446 54.4162 45.5721C54.9702 45.2996 55.9143 44.7034 56.8585 43.9437C58.0255 43.0205 58.5238 42.5878 59.4122 41.7736C59.9105 41.3409 60.1334 41.1229 60.3006 41.2864C60.4677 41.4499 59.858 41.9916 59.6908 42.1551C59.0253 42.8058 57.6387 44.0014 56.5274 44.8669C55.416 45.7356 53.5311 47.0915 51.6986 47.0915C50.5348 47.0915 50.0333 46.5498 50.0333 45.6811C50.0333 44.9759 50.4234 44.2707 50.8659 43.62C51.9772 41.9371 54.1408 39.7125 55.0292 38.9528C54.6391 39.1163 53.4754 39.9305 52.6427 40.5812L52.6394 40.5844ZM62.7953 30.2211C63.5165 30.2211 63.8508 30.8173 63.1854 31.6315C62.5199 32.5002 61.1332 33.0964 60.5759 33.0964C60.2973 32.7695 60.2416 31.9585 60.5202 31.2501C60.8546 30.4359 61.684 30.2179 62.7395 30.2179H62.7953V30.2211Z" fill="#111827"/>
<path d="M61.6872 47.2037C59.6351 47.2037 58.6352 46.3895 58.7467 44.9246C58.8581 43.8379 59.4679 42.7 60.3563 41.6678L60.3006 41.6133C60.1334 41.7768 59.6908 42.1551 59.3564 42.4275C59.0221 42.7 58.7467 42.8603 58.6352 42.7545C58.5238 42.591 58.7467 42.3762 58.9696 42.1583C59.6908 41.5076 60.1891 41.1261 61.0218 40.5299C61.6315 40.0972 62.7428 39.3919 63.6869 38.9015C65.5752 37.9238 67.3487 37.2186 68.7911 37.4366C70.0663 37.6546 70.5121 38.4688 70.2892 39.4977C70.0663 40.5299 69.1254 41.3441 68.401 41.3441C67.4568 41.3441 67.4568 40.5844 67.9584 39.7702C68.5682 38.738 68.7911 38.0873 68.1256 37.9783C67.5159 37.8694 66.2374 38.6835 64.6835 40.2574C63.1854 41.7223 61.743 43.7834 61.5758 45.0881C61.4643 45.9023 61.9659 46.335 62.851 46.335C63.5722 46.335 65.5162 46.008 67.9551 44.3829C69.0107 43.6777 70.3974 42.5397 71.2858 41.78C71.6201 41.5076 71.7841 41.4531 71.8955 41.562C72.007 41.7255 71.7841 41.9435 71.453 42.2673C70.7318 42.918 69.1779 44.2194 68.1781 44.8701C66.2374 46.1715 63.6279 47.2037 61.7397 47.2037H61.6839H61.6872Z" fill="#111827"/>
<path d="M80.9433 47.0402C79.832 47.0402 79.2223 46.553 79.278 45.6298C79.3337 44.4373 80.5532 43.0782 81.6088 41.8313C82.4415 40.8536 83.2741 39.985 83.9396 39.174C84.1625 38.9015 84.274 38.5778 83.9953 38.4143C83.7167 38.2508 83.1069 38.4688 82.5529 38.7412C81.5531 39.2285 79.9992 40.1516 78.2257 41.5076C75.7835 43.3539 74.4525 44.6008 72.0103 46.444C71.512 46.8254 71.1776 46.9312 70.5678 46.9312C69.7909 46.9312 69.4565 46.8222 69.8466 46.0625C70.4007 45.0304 71.1776 43.7834 72.1217 42.4275C72.5643 41.7768 73.1216 41.0716 73.787 40.2574V40.2029C72.9544 40.9081 72.2889 41.5043 71.6792 42.0461C71.3448 42.3185 71.1809 42.373 71.0694 42.2095C71.0137 42.0461 71.1809 41.8826 71.3481 41.7223C71.571 41.5043 73.6789 39.7157 74.9541 38.6835C76.8423 36.241 79.1731 33.3112 81.6678 30.5449C84.887 26.9099 91.6565 19.9636 94.5413 18.0115C96.0951 16.9248 97.649 15.8414 99.2586 15.8414C100.701 15.8414 101.147 16.8191 100.98 17.7935C100.537 20.3964 95.2067 24.7398 89.6043 29.2979C86.2179 32.0098 82.389 34.6158 78.2847 38.1418C77.3406 39.174 75.0098 42.482 73.6789 44.3829L73.7346 44.4373C75.0655 43.3507 76.898 41.78 78.8387 40.3664C80.7794 38.956 83.2217 37.4366 84.887 37.4366C86.0508 37.4366 86.7195 37.9783 86.6081 38.9015C86.4409 39.8792 85.2771 41.1261 84.3887 42.2128C83.5003 43.2449 82.8906 44.0591 82.5562 44.6008C82.1694 45.2515 82.1136 45.633 82.3333 45.7933C82.6119 46.0112 83.2217 45.7933 83.6642 45.5753C84.3297 45.2483 85.0509 44.8701 86.3294 43.8924C87.2735 43.1872 88.3816 42.2095 88.9946 41.6678C89.4371 41.2896 89.6043 41.2351 89.7158 41.3409C89.8272 41.4499 89.6601 41.6678 89.2732 42.0461C88.7749 42.5333 87.1096 43.9982 85.9426 44.8669C84.8313 45.6811 82.6677 47.037 80.9466 47.037L80.9433 47.0402ZM89.0995 28.6985C94.4266 24.1948 99.3668 19.8546 99.5864 17.4666C99.6422 16.7614 99.252 16.4344 98.6423 16.4344C97.6982 16.4344 96.2 17.5211 95.0363 18.6045C93.2038 20.3964 90.5419 22.9992 87.6571 26.3649C83.6052 31.0866 82.1628 32.8207 79.1666 36.7282C84.4379 32.2245 86.5458 30.8686 89.0995 28.6985Z" fill="#111827"/>
<path d="M91.3745 40.2061C90.5419 40.9113 89.8764 41.5076 89.2667 42.0493C88.9323 42.3217 88.7684 42.3762 88.6569 42.2128C88.6012 42.0493 88.7684 41.8858 88.9356 41.7255C89.1585 41.5076 91.2664 39.7189 92.4858 38.6867C94.3741 36.2442 96.7049 33.3144 99.2553 30.5481C102.474 26.9131 108.801 20.4541 112.129 18.0147C113.738 16.8768 115.236 15.8446 116.846 15.8446C118.288 15.8446 118.731 16.8223 118.567 17.7967C118.125 20.3996 112.798 24.743 107.192 29.3011C103.805 32.013 99.1439 35.2697 95.8722 38.145C94.9281 39.1772 92.1547 43.0814 91.4335 44.1136L91.545 44.1681C93.0989 42.8122 94.4298 41.562 96.3181 40.1516C97.3179 39.3919 98.9275 38.3598 99.9798 37.9271C100.924 37.5488 101.868 37.3853 102.753 37.4398C104.251 37.5488 105.084 38.5778 104.586 39.6099C104.199 40.3151 103.255 40.5876 101.976 40.7479C100.865 40.9113 99.9241 41.0203 99.5897 41.5076C99.2553 41.9948 99.0914 42.7545 99.1471 43.7321C99.2586 45.0336 99.534 45.6298 100.091 45.7388C100.478 45.7933 100.924 45.6298 101.534 45.306C102.032 45.0336 102.753 44.6008 103.642 43.8956C104.805 42.9725 105.638 42.2673 106.303 41.671C106.359 41.6165 106.857 41.1838 107.025 41.3441C107.192 41.562 106.635 41.9948 106.471 42.1583C105.749 42.809 104.53 43.8956 103.196 44.9246C102.14 45.7388 100.144 47.0402 98.4227 47.0402C97.3113 47.0402 96.4787 46.335 96.5344 44.4886C96.5901 43.0782 97.3113 41.9371 97.7539 41.5043C98.2522 41.0171 99.252 40.6902 100.029 40.5812C100.639 40.4722 101.304 40.3087 101.75 39.8215C102.084 39.4432 102.36 38.5201 101.694 38.2476C101.307 38.0841 100.586 38.2476 99.9732 38.5201C98.5308 39.1708 97.4195 39.9305 95.7542 41.2319C93.3677 43.184 90.7025 45.6266 89.6502 46.3863C89.0962 46.7645 88.8175 46.928 88.2078 46.928C87.3194 46.928 87.0965 46.7645 87.4309 46.0593C87.9292 44.9727 88.7618 43.7802 89.7059 42.4243C90.3714 41.5011 90.8172 40.9594 91.3713 40.2542V40.1997L91.3745 40.2061ZM106.69 28.7017C111.962 24.198 116.958 19.8578 117.177 17.4698C117.233 16.7646 116.843 16.4376 116.233 16.4376C115.289 16.4376 113.791 17.5243 112.627 18.6077C110.795 20.3996 108.133 23.0024 105.245 26.3681C102.691 29.3524 101.137 31.1443 96.7541 36.7314C102.025 32.2277 104.133 30.8718 106.687 28.7017H106.69Z" fill="#111827"/>
<path d="M114.184 33.3144C117.18 29.7339 119.623 27.5638 123.507 24.5795C126.727 22.1914 131.277 19.2071 135.715 19.2071C140.154 19.2071 142.875 21.9735 142.541 24.9577C142.485 25.6629 142.154 26.1502 141.987 26.0957C141.875 26.0412 142.098 25.6629 142.154 24.9577C142.321 22.6242 139.711 20.6175 135.551 20.6175C130.169 20.6175 127.061 22.5152 124.12 25.1212C121.79 27.2368 118.295 31.1988 114.742 35.9204C112.299 39.1772 109.857 42.5397 108.582 44.3861L108.638 44.4406C109.968 43.3539 111.801 41.7832 113.742 40.3696C115.682 38.9592 118.125 37.4398 119.79 37.4398C120.954 37.4398 121.622 37.9815 121.511 38.9047C121.344 39.8824 120.18 41.1293 119.292 42.216C118.403 43.2481 117.793 44.0623 117.459 44.604C117.072 45.2547 117.017 45.6362 117.236 45.7965C117.515 46.0144 118.125 45.7965 118.567 45.5785C119.233 45.2515 119.954 44.8733 121.229 43.8956C122.173 43.1904 123.281 42.2128 123.894 41.671C124.337 41.2928 124.504 41.2383 124.615 41.3441C124.727 41.4531 124.56 41.671 124.173 42.0493C123.675 42.5365 122.009 44.0014 120.842 44.8701C119.731 45.6843 117.567 47.0402 115.846 47.0402C114.735 47.0402 114.125 46.553 114.181 45.6298C114.237 44.4373 115.456 43.0782 116.512 41.8313C117.344 40.8536 118.177 39.985 118.843 39.174C119.065 38.9015 119.177 38.5778 118.898 38.4143C118.62 38.2508 118.01 38.4688 117.456 38.7412C116.456 39.2285 114.902 40.1516 113.129 41.5076C110.686 43.3539 109.355 44.6008 106.913 46.444C106.415 46.8254 106.081 46.9312 105.471 46.9312C104.694 46.9312 104.359 46.8222 104.75 46.0625C105.304 45.0304 106.081 43.7834 107.025 42.4275C107.467 41.7768 108.024 41.0716 108.69 40.2574V40.2029C107.857 40.9081 107.192 41.5043 106.582 42.0461C106.248 42.3185 106.084 42.373 105.972 42.2095C105.917 42.0461 106.084 41.8826 106.251 41.7223C106.474 41.5043 108.582 39.7157 109.857 38.6835C110.745 37.5456 112.853 34.8851 114.184 33.3112V33.3144Z" fill="#111827"/>
<path d="M137.879 37.4366C139.046 37.3821 139.154 37.6546 138.6 38.3053C137.879 39.1195 136.66 40.4754 135.492 41.8858C134.771 42.7545 134.05 43.6777 133.552 44.5431C133.162 45.1938 133.162 45.6298 133.385 45.7901C133.663 46.008 134.217 45.7901 134.66 45.5721C135.214 45.2996 136.269 44.5944 137.158 43.8892C138.325 42.966 139.21 42.2064 139.823 41.6646C140.157 41.3922 140.433 41.1229 140.6 41.2864C140.767 41.4499 140.488 41.7191 139.879 42.2641C139.157 42.9148 137.827 44.0559 136.771 44.8669C135.66 45.7356 133.83 47.037 131.998 47.037C130.942 47.037 130.444 46.5498 130.388 45.8991C130.333 45.3028 130.667 44.5431 131.165 43.9469L131.11 43.8924C129.667 45.1394 127.113 46.9312 125.006 47.0402C123.786 47.0947 122.508 46.6075 122.73 44.8701C122.842 44.0559 123.284 43.1872 124.284 42.0493L124.229 41.9948C124.061 42.1583 123.838 42.3762 123.507 42.6455C123.284 42.809 123.121 42.918 123.009 42.809C122.898 42.6455 123.176 42.3218 123.786 41.7768C123.953 41.6133 124.894 40.8536 125.451 40.4754C126.005 40.0972 126.949 39.4977 128.005 38.956C130.169 37.8694 132.113 37.2187 133.555 37.4366C134.663 37.6001 135.053 38.5746 134.719 39.4977C136.05 38.1418 136.994 37.4366 137.882 37.4366H137.879ZM128.225 41.3986C125.95 43.5687 125.006 44.9791 125.117 45.6843C125.173 46.0657 125.451 46.226 125.838 46.226C126.894 46.226 129.002 45.0336 130.5 43.6745C132.277 42.1551 134.273 39.8215 134.329 38.9528C134.384 38.2476 133.942 37.9751 133.329 37.9751C132.221 37.9751 130.221 39.44 128.225 41.3922V41.3986Z" fill="#111827"/>
<path d="M149.641 45.6298C149.697 44.4374 150.916 43.0782 151.972 41.8313C152.805 40.8536 153.637 39.9337 154.303 39.174C154.526 38.9015 154.637 38.5778 154.358 38.4143C154.08 38.2508 153.47 38.4688 152.916 38.7412C151.916 39.2285 150.362 40.1516 148.589 41.5076C146.147 43.3539 144.816 44.6008 142.373 46.444C141.875 46.8254 141.541 46.9312 140.931 46.9312C140.154 46.9312 139.767 46.8222 140.21 46.0625C140.6 45.3573 141.764 43.5655 142.652 42.4275C143.262 41.6133 144.262 40.3664 144.871 39.6067C145.258 39.1195 145.37 38.847 145.258 38.6835C145.091 38.4656 144.76 38.5746 144.426 38.738C143.76 39.065 142.927 39.6612 142.262 40.2029C141.541 40.7992 140.652 41.5588 139.875 42.264C139.321 42.7513 139.098 42.9148 138.931 42.7513C138.82 42.5878 139.098 42.3185 139.764 41.7191C140.429 41.1229 141.652 39.9818 142.649 39.2221C144.147 38.0809 145.258 37.4302 146.422 37.4302C147.478 37.4302 147.809 38.0264 147.809 38.6226C147.809 39.2733 147.366 39.9786 146.645 40.9562C145.812 42.0397 144.648 43.5078 144.035 44.3732L144.091 44.4277C145.422 43.3411 147.255 41.7704 149.195 40.3568C151.136 38.9464 153.578 37.427 155.244 37.427C156.411 37.427 157.076 37.9687 156.965 38.8919C156.797 39.8696 155.634 41.1165 154.745 42.2031C153.857 43.2353 153.191 44.1553 152.913 44.5912C152.47 45.2964 152.47 45.6234 152.69 45.7837C152.969 46.0016 153.578 45.7836 154.021 45.5657C154.686 45.2387 155.463 44.806 156.686 43.8828C157.63 43.1776 158.738 42.1999 159.348 41.6582C159.79 41.28 159.958 41.2255 160.069 41.3313C160.181 41.4402 160.013 41.6582 159.623 42.0365C159.125 42.5237 157.46 43.9886 156.293 44.8573C155.181 45.6715 153.018 47.0274 151.297 47.0274C150.241 47.0274 149.576 46.5401 149.631 45.617L149.641 45.6298Z" fill="#111827"/>
<path d="M160.187 41.671L160.131 41.6165C159.964 41.78 159.354 42.3218 159.02 42.5942C158.741 42.8122 158.577 42.8667 158.466 42.7577C158.355 42.5942 158.577 42.3794 158.8 42.1615C159.522 41.5108 160.02 41.1293 160.853 40.5331C161.462 40.1004 162.518 39.4464 163.57 38.9047C164.845 38.1995 166.845 37.3853 168.343 37.3853C169.507 37.3853 170.064 38.036 170.009 38.8502C169.897 40.2606 168.12 41.3473 166.458 42.1615C164.793 42.9757 163.072 43.5719 161.908 43.8443C161.797 44.0623 161.63 44.7675 161.63 45.1458C161.63 46.0689 162.016 47.1524 164.127 47.1524C166.347 47.1524 169.068 46.1747 170.73 45.3605C173.061 44.2226 175.503 42.1583 176.834 40.4241C178.053 38.7957 179.551 36.3532 179.551 33.9138C179.551 32.7759 179.328 32.6124 179.496 32.5034C179.663 32.3944 179.938 32.9906 179.994 33.9138C180.105 37.0071 178.663 39.2862 177.44 40.8601C175.886 42.8667 173.556 44.604 170.894 45.9055C169.34 46.6652 166.619 47.7518 163.957 47.8576C160.407 47.9666 158.63 47.1524 158.741 44.7643C158.797 43.6777 159.518 42.4307 160.184 41.671H160.187ZM165.793 41.671C167.179 40.7479 168.068 39.5554 168.068 38.7957C168.068 38.363 167.901 38.0905 167.402 38.0905C166.904 38.0905 166.071 38.6323 164.96 39.6644C164.072 40.4786 162.741 42.0525 162.131 43.2994C163.242 43.027 164.629 42.4307 165.793 41.671Z" fill="#111827"/>
</svg>
