<svg width="104" height="13" viewBox="0 0 104 13" fill="none" xmlns="http://www.w3.org/2000/svg">
<path d="M5.68948 8.70239C5.68948 9.71914 5.49973 10.5396 5.1235 11.1703C4.66221 11.9489 3.94901 12.3383 2.9839 12.3383C2.696 12.3383 2.38521 12.2996 2.04824 12.2224L0.356842 11.8363L0.562949 11.1671L2.2936 11.5853C2.50953 11.6368 2.71236 11.6626 2.90865 11.6626C3.61858 11.6626 4.15839 11.3569 4.53135 10.7423C4.8356 10.2372 4.98936 9.60974 4.98936 8.86327V1.14429H5.68948V8.70239Z" fill="#111827"/>
<path d="M21.815 8.48681C21.815 9.61618 21.4617 10.5428 20.7583 11.27C20.0516 11.9972 19.129 12.3608 17.9873 12.3608C16.8455 12.3608 15.9262 11.9972 15.213 11.2668C14.4998 10.5364 14.1432 9.60975 14.1432 8.48681C14.1432 7.36387 14.4998 6.43399 15.213 5.7036C15.9262 4.97321 16.852 4.6064 17.9873 4.6064C19.1225 4.6064 20.0582 4.97643 20.7714 5.71325C21.4682 6.43399 21.8183 7.36066 21.8183 8.49003L21.815 8.48681ZM21.1149 8.47072C21.1149 7.51832 20.8368 6.73644 20.2839 6.12832C19.7146 5.50411 18.9491 5.19201 17.9873 5.19201C17.0254 5.19201 16.2533 5.50411 15.6743 6.12832C15.1214 6.73001 14.8433 7.51188 14.8433 8.47072C14.8433 9.42956 15.1214 10.2114 15.6743 10.8131C16.2501 11.4373 17.0221 11.7494 17.9873 11.7494C18.9524 11.7494 19.7016 11.4341 20.2773 10.8067C20.8368 10.1921 21.1149 9.41347 21.1149 8.47072Z" fill="#111827"/>
<path d="M37.2469 12.2192V10.826C36.8314 11.3923 36.2556 11.817 35.5163 12.1034C35.0713 12.2739 34.6002 12.3576 34.1095 12.3576C32.9514 12.3576 32.0222 11.9972 31.3188 11.2797C30.6155 10.5589 30.2654 9.62905 30.2654 8.48359C30.2654 7.33813 30.6024 6.38573 31.2796 5.6843C31.9666 4.96356 32.899 4.60319 34.08 4.60319C35.4279 4.60319 36.4846 5.1534 37.2502 6.25703V4.73511H37.911V12.2192H37.2469ZM37.2469 9.87681V8.86327C37.2469 7.81755 36.995 6.96489 36.4945 6.30207C35.935 5.55881 35.14 5.18879 34.116 5.18879C33.092 5.18879 32.369 5.49768 31.7998 6.11545C31.2436 6.71392 30.9688 7.49579 30.9688 8.4675C30.9688 9.43921 31.2403 10.2372 31.7867 10.826C32.3527 11.4406 33.128 11.7462 34.1193 11.7462C34.6231 11.7462 35.091 11.64 35.5261 11.4277C36.2785 11.0609 36.8543 10.5428 37.2535 9.87359L37.2469 9.87681Z" fill="#111827"/>
<path d="M47.3102 2.64046C47.3102 2.95578 47.1466 3.11345 46.8228 3.11345C46.4989 3.11345 46.3582 2.95578 46.3582 2.64046C46.3582 2.32514 46.512 2.18357 46.8228 2.18357C47.1466 2.18357 47.3102 2.33479 47.3102 2.64046ZM47.1597 12.2224H46.4989V4.74476H47.1597V12.2224Z" fill="#111827"/>
<path d="M56.4248 12.2192H55.7639V1.1475H56.4248V12.2192Z" fill="#111827"/>
<path d="M65.5361 12.2192H64.8752V1.1475H65.5361V12.2192Z" fill="#111827"/>
<path d="M74.9385 2.64046C74.9385 2.95578 74.7749 3.11345 74.4511 3.11345C74.1272 3.11345 73.9865 2.95578 73.9865 2.64046C73.9865 2.32514 74.1403 2.18357 74.4511 2.18357C74.7749 2.18357 74.9385 2.33479 74.9385 2.64046ZM74.788 12.2224H74.1272V4.74476H74.788V12.2224Z" fill="#111827"/>
<path d="M91.0477 8.35489C91.0477 8.49003 91.0346 8.60264 91.0084 8.69595H84.0891C84.1414 9.61618 84.4588 10.3562 85.0411 10.9129C85.6234 11.4727 86.3792 11.7494 87.3148 11.7494C87.8023 11.7494 88.2963 11.669 88.8001 11.5081C89.3661 11.3312 89.7947 11.0931 90.0891 10.7874L90.5766 11.2443C89.8437 11.9875 88.7543 12.3576 87.3148 12.3576C86.1501 12.3576 85.2047 11.9972 84.4817 11.2797C83.7554 10.5589 83.3922 9.62905 83.3922 8.48359C83.3922 7.33813 83.7488 6.43078 84.462 5.70039C85.1752 4.96999 86.1011 4.60319 87.2363 4.60319C88.3715 4.60319 89.2549 4.95712 89.9713 5.66499C90.6878 6.37286 91.0477 7.27057 91.0477 8.35489ZM90.3475 8.08461C90.2625 7.2223 89.9419 6.5273 89.3792 5.99318C88.8197 5.45906 88.1 5.19201 87.2265 5.19201C86.353 5.19201 85.63 5.45906 85.064 5.99318C84.498 6.5273 84.1741 7.22552 84.0891 8.08461H90.3475Z" fill="#111827"/>
<path d="M103.643 5.45263L103.597 5.44298C103.65 5.44298 103.352 5.40758 102.707 5.3368C101.978 5.33036 101.363 5.64569 100.859 6.28277C100.381 6.88767 100.143 7.74998 100.143 8.87614V12.2192H99.4981V4.74154H100.143V6.20233C100.754 5.20809 101.641 4.70937 102.799 4.70937C102.887 4.71902 103.169 4.75763 103.64 4.8252V5.45263H103.643Z" fill="#111827"/>
<path d="M5.68948 8.70239C5.68948 9.71914 5.49973 10.5396 5.1235 11.1703C4.66221 11.9489 3.94901 12.3383 2.9839 12.3383C2.696 12.3383 2.38521 12.2996 2.04824 12.2224L0.356842 11.8363L0.562949 11.1671L2.2936 11.5853C2.50953 11.6368 2.71236 11.6626 2.90865 11.6626C3.61858 11.6626 4.15839 11.3569 4.53135 10.7423C4.8356 10.2372 4.98936 9.60974 4.98936 8.86327V1.14429H5.68948V8.70239Z" stroke="#111827" stroke-width="0.659794" stroke-linecap="round" stroke-linejoin="round"/>
<path d="M21.815 8.48681C21.815 9.61618 21.4617 10.5428 20.7583 11.27C20.0516 11.9972 19.129 12.3608 17.9873 12.3608C16.8455 12.3608 15.9262 11.9972 15.213 11.2668C14.4998 10.5364 14.1432 9.60975 14.1432 8.48681C14.1432 7.36387 14.4998 6.43399 15.213 5.7036C15.9262 4.97321 16.852 4.6064 17.9873 4.6064C19.1225 4.6064 20.0582 4.97643 20.7714 5.71325C21.4682 6.43399 21.8183 7.36066 21.8183 8.49003L21.815 8.48681ZM21.1149 8.47072C21.1149 7.51832 20.8368 6.73644 20.2839 6.12832C19.7146 5.50411 18.9491 5.19201 17.9873 5.19201C17.0254 5.19201 16.2533 5.50411 15.6743 6.12832C15.1214 6.73001 14.8433 7.51188 14.8433 8.47072C14.8433 9.42956 15.1214 10.2114 15.6743 10.8131C16.2501 11.4373 17.0221 11.7494 17.9873 11.7494C18.9524 11.7494 19.7016 11.4341 20.2773 10.8067C20.8368 10.1921 21.1149 9.41347 21.1149 8.47072Z" stroke="#111827" stroke-width="0.659794" stroke-linecap="round" stroke-linejoin="round"/>
<path d="M37.2469 12.2192V10.826C36.8314 11.3923 36.2556 11.817 35.5163 12.1034C35.0713 12.2739 34.6002 12.3576 34.1095 12.3576C32.9514 12.3576 32.0222 11.9972 31.3188 11.2797C30.6155 10.5589 30.2654 9.62905 30.2654 8.48359C30.2654 7.33813 30.6024 6.38573 31.2796 5.6843C31.9666 4.96356 32.899 4.60319 34.08 4.60319C35.4279 4.60319 36.4846 5.1534 37.2502 6.25703V4.73511H37.911V12.2192H37.2469ZM37.2469 9.87681V8.86327C37.2469 7.81755 36.995 6.96489 36.4945 6.30207C35.935 5.55881 35.14 5.18879 34.116 5.18879C33.092 5.18879 32.369 5.49768 31.7998 6.11545C31.2436 6.71392 30.9688 7.49579 30.9688 8.4675C30.9688 9.43921 31.2403 10.2372 31.7867 10.826C32.3527 11.4406 33.128 11.7462 34.1193 11.7462C34.6231 11.7462 35.091 11.64 35.5261 11.4277C36.2785 11.0609 36.8543 10.5428 37.2535 9.87359L37.2469 9.87681Z" stroke="#111827" stroke-width="0.659794" stroke-linecap="round" stroke-linejoin="round"/>
<path d="M47.3102 2.64046C47.3102 2.95578 47.1466 3.11345 46.8228 3.11345C46.4989 3.11345 46.3582 2.95578 46.3582 2.64046C46.3582 2.32514 46.512 2.18357 46.8228 2.18357C47.1466 2.18357 47.3102 2.33479 47.3102 2.64046ZM47.1597 12.2224H46.4989V4.74476H47.1597V12.2224Z" stroke="#111827" stroke-width="0.659794" stroke-linecap="round" stroke-linejoin="round"/>
<path d="M56.4248 12.2192H55.7639V1.1475H56.4248V12.2192Z" stroke="#111827" stroke-width="0.659794" stroke-linecap="round" stroke-linejoin="round"/>
<path d="M65.5361 12.2192H64.8752V1.1475H65.5361V12.2192Z" stroke="#111827" stroke-width="0.659794" stroke-linecap="round" stroke-linejoin="round"/>
<path d="M74.9385 2.64046C74.9385 2.95578 74.7749 3.11345 74.4511 3.11345C74.1272 3.11345 73.9865 2.95578 73.9865 2.64046C73.9865 2.32514 74.1403 2.18357 74.4511 2.18357C74.7749 2.18357 74.9385 2.33479 74.9385 2.64046ZM74.788 12.2224H74.1272V4.74476H74.788V12.2224Z" stroke="#111827" stroke-width="0.659794" stroke-linecap="round" stroke-linejoin="round"/>
<path d="M91.0477 8.35489C91.0477 8.49003 91.0346 8.60264 91.0084 8.69595H84.0891C84.1414 9.61618 84.4588 10.3562 85.0411 10.9129C85.6234 11.4727 86.3792 11.7494 87.3148 11.7494C87.8023 11.7494 88.2963 11.669 88.8001 11.5081C89.3661 11.3312 89.7947 11.0931 90.0891 10.7874L90.5766 11.2443C89.8437 11.9875 88.7543 12.3576 87.3148 12.3576C86.1501 12.3576 85.2047 11.9972 84.4817 11.2797C83.7554 10.5589 83.3922 9.62905 83.3922 8.48359C83.3922 7.33813 83.7488 6.43078 84.462 5.70039C85.1752 4.96999 86.1011 4.60319 87.2363 4.60319C88.3715 4.60319 89.2549 4.95712 89.9713 5.66499C90.6878 6.37286 91.0477 7.27057 91.0477 8.35489ZM90.3475 8.08461C90.2625 7.2223 89.9419 6.5273 89.3792 5.99318C88.8197 5.45906 88.1 5.19201 87.2265 5.19201C86.353 5.19201 85.63 5.45906 85.064 5.99318C84.498 6.5273 84.1741 7.22552 84.0891 8.08461H90.3475Z" stroke="#111827" stroke-width="0.659794" stroke-linecap="round" stroke-linejoin="round"/>
<path d="M103.643 5.45263L103.597 5.44298C103.65 5.44298 103.352 5.40758 102.707 5.3368C101.978 5.33036 101.363 5.64569 100.859 6.28277C100.381 6.88767 100.143 7.74998 100.143 8.87614V12.2192H99.4981V4.74154H100.143V6.20233C100.754 5.20809 101.641 4.70937 102.799 4.70937C102.887 4.71902 103.169 4.75763 103.64 4.8252V5.45263H103.643Z" stroke="#111827" stroke-width="0.659794" stroke-linecap="round" stroke-linejoin="round"/>
</svg>
