<svg width="241" height="28" viewBox="0 0 241 28" fill="none" xmlns="http://www.w3.org/2000/svg">
<path d="M13.412 18.5396C13.412 20.8909 12.9733 22.7883 12.1032 24.2466C11.0365 26.0473 9.38722 26.9476 7.1554 26.9476C6.48964 26.9476 5.77092 26.8583 4.99167 26.6797L1.08032 25.7868L1.55695 24.2392L5.55908 25.2065C6.05841 25.3255 6.52746 25.3851 6.98139 25.3851C8.6231 25.3851 9.87141 24.6782 10.7339 23.257C11.4375 22.0888 11.793 20.6379 11.793 18.9117V1.06152H13.412V18.5396Z" fill="#111827"/>
<path d="M50.7023 18.0411C50.7023 20.6528 49.8852 22.7957 48.2586 24.4773C46.6245 26.1589 44.491 26.9997 41.8507 26.9997C39.2103 26.9997 37.0844 26.1589 35.4352 24.4698C33.7859 22.7808 32.9612 20.6379 32.9612 18.0411C32.9612 15.4443 33.7859 13.294 35.4352 11.6049C37.0844 9.91591 39.2255 9.06767 41.8507 9.06767C44.4759 9.06767 46.6396 9.92335 48.2889 11.6273C49.9003 13.294 50.7099 15.4369 50.7099 18.0486L50.7023 18.0411ZM49.0833 18.0039C49.0833 15.8015 48.4402 13.9934 47.1616 12.5871C45.8453 11.1436 44.0749 10.4219 41.8507 10.4219C39.6264 10.4219 37.841 11.1436 36.5019 12.5871C35.2233 13.9785 34.5802 15.7866 34.5802 18.0039C34.5802 20.2212 35.2233 22.0293 36.5019 23.4207C37.8334 24.8642 39.6189 25.5859 41.8507 25.5859C44.0825 25.5859 45.815 24.8568 47.1465 23.4058C48.4402 21.9847 49.0833 20.184 49.0833 18.0039Z" fill="#111827"/>
<path d="M86.3886 26.6723V23.4505C85.4278 24.76 84.0963 25.7422 82.3865 26.4044C81.3576 26.7988 80.2682 26.9922 79.1334 26.9922C76.4552 26.9922 74.3066 26.1589 72.68 24.4996C71.0534 22.8329 70.2439 20.6826 70.2439 18.0337C70.2439 15.3848 71.0232 13.1824 72.5892 11.5603C74.178 9.89359 76.3341 9.06024 79.0653 9.06024C82.1822 9.06024 84.6259 10.3326 86.3962 12.8847V9.36531H87.9244V26.6723H86.3886ZM86.3886 21.2555V18.9117C86.3886 16.4935 85.8061 14.5217 84.6486 12.9889C83.3549 11.2701 81.5165 10.4144 79.1485 10.4144C76.7805 10.4144 75.1085 11.1287 73.7921 12.5573C72.506 13.9413 71.8705 15.7494 71.8705 17.9965C71.8705 20.2435 72.4984 22.0888 73.7619 23.4505C75.0707 24.8716 76.8637 25.5785 79.1561 25.5785C80.3211 25.5785 81.403 25.333 82.4092 24.8419C84.1493 23.9936 85.4808 22.7957 86.4038 21.248L86.3886 21.2555Z" fill="#111827"/>
<path d="M109.66 4.52143C109.66 5.25061 109.282 5.61521 108.533 5.61521C107.784 5.61521 107.458 5.25061 107.458 4.52143C107.458 3.79224 107.814 3.46485 108.533 3.46485C109.282 3.46485 109.66 3.81456 109.66 4.52143ZM109.312 26.6797H107.784V9.38763H109.312V26.6797Z" fill="#111827"/>
<path d="M130.737 26.6723H129.209V1.06896H130.737V26.6723Z" fill="#111827"/>
<path d="M151.807 26.6723H150.279V1.06896H151.807V26.6723Z" fill="#111827"/>
<path d="M173.551 4.52143C173.551 5.25061 173.172 5.61521 172.423 5.61521C171.674 5.61521 171.349 5.25061 171.349 4.52143C171.349 3.79224 171.705 3.46485 172.423 3.46485C173.172 3.46485 173.551 3.81456 173.551 4.52143ZM173.202 26.6797H171.674V9.38763H173.202V26.6797Z" fill="#111827"/>
<path d="M210.803 17.7361C210.803 18.0486 210.773 18.309 210.712 18.5248H194.711C194.832 20.6528 195.566 22.3641 196.913 23.6514C198.259 24.9461 200.007 25.5859 202.171 25.5859C203.298 25.5859 204.44 25.3999 205.605 25.0279C206.914 24.6187 207.905 24.0681 208.586 23.3612L209.714 24.4178C208.019 26.1366 205.5 26.9922 202.171 26.9922C199.477 26.9922 197.291 26.1589 195.619 24.4996C193.939 22.8329 193.1 20.6826 193.1 18.0337C193.1 15.3848 193.924 13.2865 195.574 11.5975C197.223 9.90847 199.364 9.06024 201.989 9.06024C204.614 9.06024 206.657 9.87871 208.314 11.5157C209.971 13.1526 210.803 15.2285 210.803 17.7361ZM209.184 17.111C208.987 15.1169 208.246 13.5097 206.945 12.2746C205.651 11.0394 203.986 10.4219 201.966 10.4219C199.946 10.4219 198.274 11.0394 196.966 12.2746C195.657 13.5097 194.908 15.1244 194.711 17.111H209.184Z" fill="#111827"/>
<path d="M239.93 11.0246L239.824 11.0022C239.945 11.0022 239.257 10.9204 237.766 10.7567C236.079 10.7418 234.657 11.471 233.492 12.9443C232.387 14.3431 231.835 16.3372 231.835 18.9414V26.6723H230.345V9.38018H231.835V12.7582C233.25 10.4591 235.3 9.30578 237.978 9.30578C238.182 9.3281 238.833 9.41739 239.922 9.57364V11.0246H239.93Z" fill="#111827"/>
<path d="M13.412 18.5396C13.412 20.8909 12.9733 22.7883 12.1032 24.2466C11.0365 26.0473 9.38722 26.9476 7.1554 26.9476C6.48964 26.9476 5.77092 26.8583 4.99167 26.6797L1.08032 25.7868L1.55695 24.2392L5.55908 25.2065C6.05841 25.3255 6.52746 25.3851 6.98139 25.3851C8.6231 25.3851 9.87141 24.6782 10.7339 23.257C11.4375 22.0888 11.793 20.6379 11.793 18.9117V1.06152H13.412V18.5396Z" stroke="#111827" stroke-width="1.52577" stroke-linecap="round" stroke-linejoin="round"/>
<path d="M50.7023 18.0411C50.7023 20.6528 49.8852 22.7957 48.2586 24.4773C46.6245 26.1589 44.491 26.9997 41.8507 26.9997C39.2103 26.9997 37.0844 26.1589 35.4352 24.4698C33.7859 22.7808 32.9612 20.6379 32.9612 18.0411C32.9612 15.4443 33.7859 13.294 35.4352 11.6049C37.0844 9.91591 39.2255 9.06767 41.8507 9.06767C44.4759 9.06767 46.6396 9.92335 48.2889 11.6273C49.9003 13.294 50.7099 15.4369 50.7099 18.0486L50.7023 18.0411ZM49.0833 18.0039C49.0833 15.8015 48.4402 13.9934 47.1616 12.5871C45.8453 11.1436 44.0749 10.4219 41.8507 10.4219C39.6264 10.4219 37.841 11.1436 36.5019 12.5871C35.2233 13.9785 34.5802 15.7866 34.5802 18.0039C34.5802 20.2212 35.2233 22.0293 36.5019 23.4207C37.8334 24.8642 39.6189 25.5859 41.8507 25.5859C44.0825 25.5859 45.815 24.8568 47.1465 23.4058C48.4402 21.9847 49.0833 20.184 49.0833 18.0039Z" stroke="#111827" stroke-width="1.52577" stroke-linecap="round" stroke-linejoin="round"/>
<path d="M86.3886 26.6723V23.4505C85.4278 24.76 84.0963 25.7422 82.3865 26.4044C81.3576 26.7988 80.2682 26.9922 79.1334 26.9922C76.4552 26.9922 74.3066 26.1589 72.68 24.4996C71.0534 22.8329 70.2439 20.6826 70.2439 18.0337C70.2439 15.3848 71.0232 13.1824 72.5892 11.5603C74.178 9.89359 76.3341 9.06024 79.0653 9.06024C82.1822 9.06024 84.6259 10.3326 86.3962 12.8847V9.36531H87.9244V26.6723H86.3886ZM86.3886 21.2555V18.9117C86.3886 16.4935 85.8061 14.5217 84.6486 12.9889C83.3549 11.2701 81.5165 10.4144 79.1485 10.4144C76.7805 10.4144 75.1085 11.1287 73.7921 12.5573C72.506 13.9413 71.8705 15.7494 71.8705 17.9965C71.8705 20.2435 72.4984 22.0888 73.7619 23.4505C75.0707 24.8716 76.8637 25.5785 79.1561 25.5785C80.3211 25.5785 81.403 25.333 82.4092 24.8419C84.1493 23.9936 85.4808 22.7957 86.4038 21.248L86.3886 21.2555Z" stroke="#111827" stroke-width="1.52577" stroke-linecap="round" stroke-linejoin="round"/>
<path d="M109.66 4.52143C109.66 5.25061 109.282 5.61521 108.533 5.61521C107.784 5.61521 107.458 5.25061 107.458 4.52143C107.458 3.79224 107.814 3.46485 108.533 3.46485C109.282 3.46485 109.66 3.81456 109.66 4.52143ZM109.312 26.6797H107.784V9.38763H109.312V26.6797Z" stroke="#111827" stroke-width="1.52577" stroke-linecap="round" stroke-linejoin="round"/>
<path d="M130.737 26.6723H129.209V1.06896H130.737V26.6723Z" stroke="#111827" stroke-width="1.52577" stroke-linecap="round" stroke-linejoin="round"/>
<path d="M151.807 26.6723H150.279V1.06896H151.807V26.6723Z" stroke="#111827" stroke-width="1.52577" stroke-linecap="round" stroke-linejoin="round"/>
<path d="M173.551 4.52143C173.551 5.25061 173.172 5.61521 172.423 5.61521C171.674 5.61521 171.349 5.25061 171.349 4.52143C171.349 3.79224 171.705 3.46485 172.423 3.46485C173.172 3.46485 173.551 3.81456 173.551 4.52143ZM173.202 26.6797H171.674V9.38763H173.202V26.6797Z" stroke="#111827" stroke-width="1.52577" stroke-linecap="round" stroke-linejoin="round"/>
<path d="M210.803 17.7361C210.803 18.0486 210.773 18.309 210.712 18.5248H194.711C194.832 20.6528 195.566 22.3641 196.913 23.6514C198.259 24.9461 200.007 25.5859 202.171 25.5859C203.298 25.5859 204.44 25.3999 205.605 25.0279C206.914 24.6187 207.905 24.0681 208.586 23.3612L209.714 24.4178C208.019 26.1366 205.5 26.9922 202.171 26.9922C199.477 26.9922 197.291 26.1589 195.619 24.4996C193.939 22.8329 193.1 20.6826 193.1 18.0337C193.1 15.3848 193.924 13.2865 195.574 11.5975C197.223 9.90847 199.364 9.06024 201.989 9.06024C204.614 9.06024 206.657 9.87871 208.314 11.5157C209.971 13.1526 210.803 15.2285 210.803 17.7361ZM209.184 17.111C208.987 15.1169 208.246 13.5097 206.945 12.2746C205.651 11.0394 203.986 10.4219 201.966 10.4219C199.946 10.4219 198.274 11.0394 196.966 12.2746C195.657 13.5097 194.908 15.1244 194.711 17.111H209.184Z" stroke="#111827" stroke-width="1.52577" stroke-linecap="round" stroke-linejoin="round"/>
<path d="M239.93 11.0246L239.824 11.0022C239.945 11.0022 239.257 10.9204 237.766 10.7567C236.079 10.7418 234.657 11.471 233.492 12.9443C232.387 14.3431 231.835 16.3372 231.835 18.9414V26.6723H230.345V9.38018H231.835V12.7582C233.25 10.4591 235.3 9.30578 237.978 9.30578C238.182 9.3281 238.833 9.41739 239.922 9.57364V11.0246H239.93Z" stroke="#111827" stroke-width="1.52577" stroke-linecap="round" stroke-linejoin="round"/>
</svg>
