<svg width="22" height="28" viewBox="0 0 22 28" fill="none" xmlns="http://www.w3.org/2000/svg">
<path fill-rule="evenodd" clip-rule="evenodd" d="M5.72043 5.43081C6.08934 2.7374 8.31257 0.666687 11.0001 0.666687C13.6888 0.666687 15.9127 2.7392 16.2802 5.43432C19.1846 5.68409 21.6666 8.69562 21.6666 12.5189C21.6666 18.6558 16.3333 24.5561 10.9999 27.3334C5.66117 24.5525 0.333252 18.6558 0.333252 12.5189C0.333252 8.69673 2.81673 5.68255 5.72043 5.43081ZM15.2057 5.4692C14.8622 3.37327 13.11 1.77788 11.0001 1.77788C8.89151 1.77788 7.14023 3.37119 6.79506 5.4651C7.98195 5.64433 9.19578 6.30094 10.3056 7.55904L10.505 7.79311C10.505 7.79311 10.8379 8.21448 10.9999 8.44699C11.1623 8.21475 11.4957 7.79389 11.4957 7.79389L11.6956 7.56009C12.806 6.30461 14.0195 5.64878 15.2057 5.4692ZM11 26.083C16.4248 23.0712 20.5999 17.5242 20.5999 12.519C20.5999 6.87671 15.2102 4.31239 11.8622 9.10126L10.9986 10.3365L10.1368 9.09993C6.79607 4.30643 1.39993 6.87532 1.39993 12.519C1.39993 17.5255 5.57157 23.0688 11 26.083Z" fill="#111827"/>
</svg>
