<svg width="241" height="28" viewBox="0 0 241 28" fill="none" xmlns="http://www.w3.org/2000/svg">
<path d="M13.412 18.54C13.412 20.8912 12.9733 22.7886 12.1032 24.247C11.0365 26.0476 9.38722 26.948 7.1554 26.948C6.48964 26.948 5.77092 26.8587 4.99167 26.6801L1.08032 25.7872L1.55695 24.2395L5.55908 25.2068C6.05841 25.3259 6.52746 25.3854 6.98139 25.3854C8.6231 25.3854 9.87141 24.6786 10.7339 23.2574C11.4375 22.0892 11.793 20.6383 11.793 18.912V1.06189H13.412V18.54Z" fill="#111827"/>
<path d="M50.7023 18.0415C50.7023 20.6532 49.8852 22.7961 48.2586 24.4777C46.6245 26.1592 44.491 27 41.8507 27C39.2103 27 37.0844 26.1592 35.4352 24.4702C33.7859 22.7812 32.9612 20.6383 32.9612 18.0415C32.9612 15.4447 33.7859 13.2943 35.4352 11.6053C37.0844 9.91628 39.2255 9.06804 41.8507 9.06804C44.4759 9.06804 46.6396 9.92372 48.2889 11.6276C49.9003 13.2943 50.7099 15.4373 50.7099 18.0489L50.7023 18.0415ZM49.0833 18.0043C49.0833 15.8018 48.4402 13.9938 47.1616 12.5875C45.8453 11.144 44.0749 10.4222 41.8507 10.4222C39.6264 10.4222 37.841 11.144 36.5019 12.5875C35.2233 13.9789 34.5802 15.787 34.5802 18.0043C34.5802 20.2216 35.2233 22.0297 36.5019 23.4211C37.8334 24.8646 39.6189 25.5863 41.8507 25.5863C44.0825 25.5863 45.815 24.8571 47.1465 23.4062C48.4402 21.985 49.0833 20.1844 49.0833 18.0043Z" fill="#111827"/>
<path d="M86.3886 26.6727V23.4508C85.4278 24.7604 84.0963 25.7426 82.3865 26.4048C81.3576 26.7991 80.2682 26.9926 79.1334 26.9926C76.4552 26.9926 74.3066 26.1592 72.68 24.5C71.0534 22.8333 70.2439 20.6829 70.2439 18.034C70.2439 15.3852 71.0232 13.1827 72.5892 11.5607C74.178 9.89396 76.3341 9.0606 79.0653 9.0606C82.1822 9.0606 84.6259 10.333 86.3962 12.8851V9.36567H87.9244V26.6727H86.3886ZM86.3886 21.2558V18.912C86.3886 16.4938 85.8061 14.522 84.6486 12.9893C83.3549 11.2705 81.5165 10.4148 79.1485 10.4148C76.7805 10.4148 75.1085 11.1291 73.7921 12.5577C72.506 13.9417 71.8705 15.7498 71.8705 17.9968C71.8705 20.2439 72.4984 22.0892 73.7619 23.4508C75.0707 24.872 76.8637 25.5789 79.1561 25.5789C80.3211 25.5789 81.403 25.3333 82.4092 24.8422C84.1493 23.994 85.4808 22.7961 86.4038 21.2484L86.3886 21.2558Z" fill="#111827"/>
<path d="M109.66 4.52179C109.66 5.25098 109.282 5.61557 108.533 5.61557C107.784 5.61557 107.458 5.25098 107.458 4.52179C107.458 3.79261 107.814 3.46522 108.533 3.46522C109.282 3.46522 109.66 3.81493 109.66 4.52179ZM109.312 26.6801H107.784V9.38799H109.312V26.6801Z" fill="#111827"/>
<path d="M130.737 26.6727H129.209V1.06933H130.737V26.6727Z" fill="#111827"/>
<path d="M151.807 26.6727H150.279V1.06933H151.807V26.6727Z" fill="#111827"/>
<path d="M173.551 4.52179C173.551 5.25098 173.172 5.61557 172.423 5.61557C171.674 5.61557 171.349 5.25098 171.349 4.52179C171.349 3.79261 171.705 3.46522 172.423 3.46522C173.172 3.46522 173.551 3.81493 173.551 4.52179ZM173.202 26.6801H171.674V9.38799H173.202V26.6801Z" fill="#111827"/>
<path d="M210.803 17.7364C210.803 18.0489 210.773 18.3093 210.712 18.5251H194.711C194.832 20.6532 195.566 22.3645 196.913 23.6517C198.259 24.9464 200.007 25.5863 202.171 25.5863C203.298 25.5863 204.44 25.4003 205.605 25.0283C206.914 24.619 207.905 24.0684 208.586 23.3616L209.714 24.4181C208.019 26.1369 205.5 26.9926 202.171 26.9926C199.477 26.9926 197.291 26.1592 195.619 24.5C193.939 22.8333 193.1 20.6829 193.1 18.034C193.1 15.3852 193.924 13.2869 195.574 11.5979C197.223 9.90884 199.364 9.0606 201.989 9.0606C204.614 9.0606 206.657 9.87908 208.314 11.516C209.971 13.153 210.803 15.2289 210.803 17.7364ZM209.184 17.1114C208.987 15.1173 208.246 13.5101 206.945 12.275C205.651 11.0398 203.986 10.4222 201.966 10.4222C199.946 10.4222 198.274 11.0398 196.966 12.275C195.657 13.5101 194.908 15.1247 194.711 17.1114H209.184Z" fill="#111827"/>
<path d="M239.93 11.0249L239.824 11.0026C239.945 11.0026 239.257 10.9208 237.766 10.7571C236.079 10.7422 234.657 11.4714 233.492 12.9446C232.387 14.3435 231.835 16.3376 231.835 18.9418V26.6727H230.345V9.38055H231.835V12.7586C233.25 10.4594 235.3 9.30615 237.978 9.30615C238.182 9.32847 238.833 9.41776 239.922 9.57401V11.0249H239.93Z" fill="#111827"/>
<path d="M13.412 18.54C13.412 20.8912 12.9733 22.7886 12.1032 24.247C11.0365 26.0476 9.38722 26.948 7.1554 26.948C6.48964 26.948 5.77092 26.8587 4.99167 26.6801L1.08032 25.7872L1.55695 24.2395L5.55908 25.2068C6.05841 25.3259 6.52746 25.3854 6.98139 25.3854C8.6231 25.3854 9.87141 24.6786 10.7339 23.2574C11.4375 22.0892 11.793 20.6383 11.793 18.912V1.06189H13.412V18.54Z" stroke="#111827" stroke-width="1.52577" stroke-linecap="round" stroke-linejoin="round"/>
<path d="M50.7023 18.0415C50.7023 20.6532 49.8852 22.7961 48.2586 24.4777C46.6245 26.1592 44.491 27 41.8507 27C39.2103 27 37.0844 26.1592 35.4352 24.4702C33.7859 22.7812 32.9612 20.6383 32.9612 18.0415C32.9612 15.4447 33.7859 13.2943 35.4352 11.6053C37.0844 9.91628 39.2255 9.06804 41.8507 9.06804C44.4759 9.06804 46.6396 9.92372 48.2889 11.6276C49.9003 13.2943 50.7099 15.4373 50.7099 18.0489L50.7023 18.0415ZM49.0833 18.0043C49.0833 15.8018 48.4402 13.9938 47.1616 12.5875C45.8453 11.144 44.0749 10.4222 41.8507 10.4222C39.6264 10.4222 37.841 11.144 36.5019 12.5875C35.2233 13.9789 34.5802 15.787 34.5802 18.0043C34.5802 20.2216 35.2233 22.0297 36.5019 23.4211C37.8334 24.8646 39.6189 25.5863 41.8507 25.5863C44.0825 25.5863 45.815 24.8571 47.1465 23.4062C48.4402 21.985 49.0833 20.1844 49.0833 18.0043Z" stroke="#111827" stroke-width="1.52577" stroke-linecap="round" stroke-linejoin="round"/>
<path d="M86.3886 26.6727V23.4508C85.4278 24.7604 84.0963 25.7426 82.3865 26.4048C81.3576 26.7991 80.2682 26.9926 79.1334 26.9926C76.4552 26.9926 74.3066 26.1592 72.68 24.5C71.0534 22.8333 70.2439 20.6829 70.2439 18.034C70.2439 15.3852 71.0232 13.1827 72.5892 11.5607C74.178 9.89396 76.3341 9.0606 79.0653 9.0606C82.1822 9.0606 84.6259 10.333 86.3962 12.8851V9.36567H87.9244V26.6727H86.3886ZM86.3886 21.2558V18.912C86.3886 16.4938 85.8061 14.522 84.6486 12.9893C83.3549 11.2705 81.5165 10.4148 79.1485 10.4148C76.7805 10.4148 75.1085 11.1291 73.7921 12.5577C72.506 13.9417 71.8705 15.7498 71.8705 17.9968C71.8705 20.2439 72.4984 22.0892 73.7619 23.4508C75.0707 24.872 76.8637 25.5789 79.1561 25.5789C80.3211 25.5789 81.403 25.3333 82.4092 24.8422C84.1493 23.994 85.4808 22.7961 86.4038 21.2484L86.3886 21.2558Z" stroke="#111827" stroke-width="1.52577" stroke-linecap="round" stroke-linejoin="round"/>
<path d="M109.66 4.52179C109.66 5.25098 109.282 5.61557 108.533 5.61557C107.784 5.61557 107.458 5.25098 107.458 4.52179C107.458 3.79261 107.814 3.46522 108.533 3.46522C109.282 3.46522 109.66 3.81493 109.66 4.52179ZM109.312 26.6801H107.784V9.38799H109.312V26.6801Z" stroke="#111827" stroke-width="1.52577" stroke-linecap="round" stroke-linejoin="round"/>
<path d="M130.737 26.6727H129.209V1.06933H130.737V26.6727Z" stroke="#111827" stroke-width="1.52577" stroke-linecap="round" stroke-linejoin="round"/>
<path d="M151.807 26.6727H150.279V1.06933H151.807V26.6727Z" stroke="#111827" stroke-width="1.52577" stroke-linecap="round" stroke-linejoin="round"/>
<path d="M173.551 4.52179C173.551 5.25098 173.172 5.61557 172.423 5.61557C171.674 5.61557 171.349 5.25098 171.349 4.52179C171.349 3.79261 171.705 3.46522 172.423 3.46522C173.172 3.46522 173.551 3.81493 173.551 4.52179ZM173.202 26.6801H171.674V9.38799H173.202V26.6801Z" stroke="#111827" stroke-width="1.52577" stroke-linecap="round" stroke-linejoin="round"/>
<path d="M210.803 17.7364C210.803 18.0489 210.773 18.3093 210.712 18.5251H194.711C194.832 20.6532 195.566 22.3645 196.913 23.6517C198.259 24.9464 200.007 25.5863 202.171 25.5863C203.298 25.5863 204.44 25.4003 205.605 25.0283C206.914 24.619 207.905 24.0684 208.586 23.3616L209.714 24.4181C208.019 26.1369 205.5 26.9926 202.171 26.9926C199.477 26.9926 197.291 26.1592 195.619 24.5C193.939 22.8333 193.1 20.6829 193.1 18.034C193.1 15.3852 193.924 13.2869 195.574 11.5979C197.223 9.90884 199.364 9.0606 201.989 9.0606C204.614 9.0606 206.657 9.87908 208.314 11.516C209.971 13.153 210.803 15.2289 210.803 17.7364ZM209.184 17.1114C208.987 15.1173 208.246 13.5101 206.945 12.275C205.651 11.0398 203.986 10.4222 201.966 10.4222C199.946 10.4222 198.274 11.0398 196.966 12.275C195.657 13.5101 194.908 15.1247 194.711 17.1114H209.184Z" stroke="#111827" stroke-width="1.52577" stroke-linecap="round" stroke-linejoin="round"/>
<path d="M239.93 11.0249L239.824 11.0026C239.945 11.0026 239.257 10.9208 237.766 10.7571C236.079 10.7422 234.657 11.4714 233.492 12.9446C232.387 14.3435 231.835 16.3376 231.835 18.9418V26.6727H230.345V9.38055H231.835V12.7586C233.25 10.4594 235.3 9.30615 237.978 9.30615C238.182 9.32847 238.833 9.41776 239.922 9.57401V11.0249H239.93Z" stroke="#111827" stroke-width="1.52577" stroke-linecap="round" stroke-linejoin="round"/>
</svg>
