<svg width="104" height="13" viewBox="0 0 104 13" fill="none" xmlns="http://www.w3.org/2000/svg">
<path d="M5.68957 8.70239C5.68957 9.71914 5.49982 10.5396 5.12359 11.1703C4.6623 11.9489 3.9491 12.3383 2.98399 12.3383C2.6961 12.3383 2.3853 12.2996 2.04833 12.2224L0.356934 11.8363L0.563041 11.1671L2.29369 11.5853C2.50962 11.6368 2.71245 11.6626 2.90875 11.6626C3.61867 11.6626 4.15848 11.3569 4.53144 10.7423C4.8357 10.2372 4.98946 9.60974 4.98946 8.86327V1.14429H5.68957V8.70239Z" fill="#111827"/>
<path d="M21.8151 8.48681C21.8151 9.61618 21.4617 10.5428 20.7584 11.27C20.0517 11.9972 19.1291 12.3608 17.9873 12.3608C16.8456 12.3608 15.9263 11.9972 15.2131 11.2668C14.4999 10.5364 14.1433 9.60975 14.1433 8.48681C14.1433 7.36387 14.4999 6.43399 15.2131 5.7036C15.9263 4.97321 16.8521 4.6064 17.9873 4.6064C19.1226 4.6064 20.0582 4.97643 20.7714 5.71325C21.4683 6.43399 21.8183 7.36066 21.8183 8.49003L21.8151 8.48681ZM21.115 8.47072C21.115 7.51832 20.8369 6.73644 20.284 6.12832C19.7147 5.50411 18.9492 5.19201 17.9873 5.19201C17.0255 5.19201 16.2534 5.50411 15.6744 6.12832C15.1215 6.73001 14.8434 7.51188 14.8434 8.47072C14.8434 9.42956 15.1215 10.2114 15.6744 10.8131C16.2502 11.4373 17.0222 11.7494 17.9873 11.7494C18.9525 11.7494 19.7016 11.4341 20.2774 10.8067C20.8369 10.1921 21.115 9.41347 21.115 8.47072Z" fill="#111827"/>
<path d="M37.247 12.2192V10.826C36.8315 11.3923 36.2557 11.817 35.5163 12.1034C35.0714 12.2739 34.6003 12.3576 34.1096 12.3576C32.9515 12.3576 32.0223 11.9972 31.3189 11.2797C30.6156 10.5589 30.2655 9.62905 30.2655 8.48359C30.2655 7.33813 30.6025 6.38573 31.2797 5.6843C31.9667 4.96356 32.8991 4.60319 34.0801 4.60319C35.428 4.60319 36.4847 5.1534 37.2503 6.25703V4.73511H37.9111V12.2192H37.247ZM37.247 9.87681V8.86327C37.247 7.81755 36.9951 6.96489 36.4945 6.30207C35.9351 5.55881 35.1401 5.18879 34.1161 5.18879C33.0921 5.18879 32.3691 5.49768 31.7999 6.11545C31.2437 6.71392 30.9689 7.49579 30.9689 8.4675C30.9689 9.43921 31.2404 10.2372 31.7868 10.826C32.3528 11.4406 33.1281 11.7462 34.1194 11.7462C34.6232 11.7462 35.091 11.64 35.5262 11.4277C36.2786 11.0609 36.8544 10.5428 37.2535 9.87359L37.247 9.87681Z" fill="#111827"/>
<path d="M47.3103 2.64046C47.3103 2.95578 47.1467 3.11345 46.8228 3.11345C46.499 3.11345 46.3583 2.95578 46.3583 2.64046C46.3583 2.32514 46.512 2.18357 46.8228 2.18357C47.1467 2.18357 47.3103 2.33479 47.3103 2.64046ZM47.1598 12.2224H46.499V4.74476H47.1598V12.2224Z" fill="#111827"/>
<path d="M56.4249 12.2192H55.764V1.1475H56.4249V12.2192Z" fill="#111827"/>
<path d="M65.5362 12.2192H64.8753V1.1475H65.5362V12.2192Z" fill="#111827"/>
<path d="M74.9386 2.64046C74.9386 2.95578 74.775 3.11345 74.4511 3.11345C74.1273 3.11345 73.9866 2.95578 73.9866 2.64046C73.9866 2.32514 74.1404 2.18357 74.4511 2.18357C74.775 2.18357 74.9386 2.33479 74.9386 2.64046ZM74.7881 12.2224H74.1273V4.74476H74.7881V12.2224Z" fill="#111827"/>
<path d="M91.0477 8.35489C91.0477 8.49003 91.0347 8.60264 91.0085 8.69595H84.0892C84.1415 9.61618 84.4588 10.3562 85.0412 10.9129C85.6235 11.4727 86.3792 11.7494 87.3149 11.7494C87.8024 11.7494 88.2964 11.669 88.8002 11.5081C89.3662 11.3312 89.7947 11.0931 90.0892 10.7874L90.5767 11.2443C89.8438 11.9875 88.7544 12.3576 87.3149 12.3576C86.1502 12.3576 85.2048 11.9972 84.4817 11.2797C83.7555 10.5589 83.3923 9.62905 83.3923 8.48359C83.3923 7.33813 83.7489 6.43078 84.4621 5.70039C85.1753 4.96999 86.1012 4.60319 87.2364 4.60319C88.3716 4.60319 89.2549 4.95712 89.9714 5.66499C90.6879 6.37286 91.0477 7.27057 91.0477 8.35489ZM90.3476 8.08461C90.2626 7.2223 89.942 6.5273 89.3793 5.99318C88.8198 5.45906 88.1001 5.19201 87.2266 5.19201C86.3531 5.19201 85.6301 5.45906 85.0641 5.99318C84.4981 6.5273 84.1742 7.22552 84.0892 8.08461H90.3476Z" fill="#111827"/>
<path d="M103.643 5.45263L103.597 5.44298C103.65 5.44298 103.352 5.40758 102.708 5.3368C101.978 5.33036 101.363 5.64569 100.859 6.28277C100.382 6.88767 100.143 7.74998 100.143 8.87614V12.2192H99.4982V4.74154H100.143V6.20233C100.754 5.20809 101.641 4.70937 102.799 4.70937C102.888 4.71902 103.169 4.75763 103.64 4.8252V5.45263H103.643Z" fill="#111827"/>
<path d="M5.68957 8.70239C5.68957 9.71914 5.49982 10.5396 5.12359 11.1703C4.6623 11.9489 3.9491 12.3383 2.98399 12.3383C2.6961 12.3383 2.3853 12.2996 2.04833 12.2224L0.356934 11.8363L0.563041 11.1671L2.29369 11.5853C2.50962 11.6368 2.71245 11.6626 2.90875 11.6626C3.61867 11.6626 4.15848 11.3569 4.53144 10.7423C4.8357 10.2372 4.98946 9.60974 4.98946 8.86327V1.14429H5.68957V8.70239Z" stroke="#111827" stroke-width="0.659794" stroke-linecap="round" stroke-linejoin="round"/>
<path d="M21.8151 8.48681C21.8151 9.61618 21.4617 10.5428 20.7584 11.27C20.0517 11.9972 19.1291 12.3608 17.9873 12.3608C16.8456 12.3608 15.9263 11.9972 15.2131 11.2668C14.4999 10.5364 14.1433 9.60975 14.1433 8.48681C14.1433 7.36387 14.4999 6.43399 15.2131 5.7036C15.9263 4.97321 16.8521 4.6064 17.9873 4.6064C19.1226 4.6064 20.0582 4.97643 20.7714 5.71325C21.4683 6.43399 21.8183 7.36066 21.8183 8.49003L21.8151 8.48681ZM21.115 8.47072C21.115 7.51832 20.8369 6.73644 20.284 6.12832C19.7147 5.50411 18.9492 5.19201 17.9873 5.19201C17.0255 5.19201 16.2534 5.50411 15.6744 6.12832C15.1215 6.73001 14.8434 7.51188 14.8434 8.47072C14.8434 9.42956 15.1215 10.2114 15.6744 10.8131C16.2502 11.4373 17.0222 11.7494 17.9873 11.7494C18.9525 11.7494 19.7016 11.4341 20.2774 10.8067C20.8369 10.1921 21.115 9.41347 21.115 8.47072Z" stroke="#111827" stroke-width="0.659794" stroke-linecap="round" stroke-linejoin="round"/>
<path d="M37.247 12.2192V10.826C36.8315 11.3923 36.2557 11.817 35.5163 12.1034C35.0714 12.2739 34.6003 12.3576 34.1096 12.3576C32.9515 12.3576 32.0223 11.9972 31.3189 11.2797C30.6156 10.5589 30.2655 9.62905 30.2655 8.48359C30.2655 7.33813 30.6025 6.38573 31.2797 5.6843C31.9667 4.96356 32.8991 4.60319 34.0801 4.60319C35.428 4.60319 36.4847 5.1534 37.2503 6.25703V4.73511H37.9111V12.2192H37.247ZM37.247 9.87681V8.86327C37.247 7.81755 36.9951 6.96489 36.4945 6.30207C35.9351 5.55881 35.1401 5.18879 34.1161 5.18879C33.0921 5.18879 32.3691 5.49768 31.7999 6.11545C31.2437 6.71392 30.9689 7.49579 30.9689 8.4675C30.9689 9.43921 31.2404 10.2372 31.7868 10.826C32.3528 11.4406 33.1281 11.7462 34.1194 11.7462C34.6232 11.7462 35.091 11.64 35.5262 11.4277C36.2786 11.0609 36.8544 10.5428 37.2535 9.87359L37.247 9.87681Z" stroke="#111827" stroke-width="0.659794" stroke-linecap="round" stroke-linejoin="round"/>
<path d="M47.3103 2.64046C47.3103 2.95578 47.1467 3.11345 46.8228 3.11345C46.499 3.11345 46.3583 2.95578 46.3583 2.64046C46.3583 2.32514 46.512 2.18357 46.8228 2.18357C47.1467 2.18357 47.3103 2.33479 47.3103 2.64046ZM47.1598 12.2224H46.499V4.74476H47.1598V12.2224Z" stroke="#111827" stroke-width="0.659794" stroke-linecap="round" stroke-linejoin="round"/>
<path d="M56.4249 12.2192H55.764V1.1475H56.4249V12.2192Z" stroke="#111827" stroke-width="0.659794" stroke-linecap="round" stroke-linejoin="round"/>
<path d="M65.5362 12.2192H64.8753V1.1475H65.5362V12.2192Z" stroke="#111827" stroke-width="0.659794" stroke-linecap="round" stroke-linejoin="round"/>
<path d="M74.9386 2.64046C74.9386 2.95578 74.775 3.11345 74.4511 3.11345C74.1273 3.11345 73.9866 2.95578 73.9866 2.64046C73.9866 2.32514 74.1404 2.18357 74.4511 2.18357C74.775 2.18357 74.9386 2.33479 74.9386 2.64046ZM74.7881 12.2224H74.1273V4.74476H74.7881V12.2224Z" stroke="#111827" stroke-width="0.659794" stroke-linecap="round" stroke-linejoin="round"/>
<path d="M91.0477 8.35489C91.0477 8.49003 91.0347 8.60264 91.0085 8.69595H84.0892C84.1415 9.61618 84.4588 10.3562 85.0412 10.9129C85.6235 11.4727 86.3792 11.7494 87.3149 11.7494C87.8024 11.7494 88.2964 11.669 88.8002 11.5081C89.3662 11.3312 89.7947 11.0931 90.0892 10.7874L90.5767 11.2443C89.8438 11.9875 88.7544 12.3576 87.3149 12.3576C86.1502 12.3576 85.2048 11.9972 84.4817 11.2797C83.7555 10.5589 83.3923 9.62905 83.3923 8.48359C83.3923 7.33813 83.7489 6.43078 84.4621 5.70039C85.1753 4.96999 86.1012 4.60319 87.2364 4.60319C88.3716 4.60319 89.2549 4.95712 89.9714 5.66499C90.6879 6.37286 91.0477 7.27057 91.0477 8.35489ZM90.3476 8.08461C90.2626 7.2223 89.942 6.5273 89.3793 5.99318C88.8198 5.45906 88.1001 5.19201 87.2266 5.19201C86.3531 5.19201 85.6301 5.45906 85.0641 5.99318C84.4981 6.5273 84.1742 7.22552 84.0892 8.08461H90.3476Z" stroke="#111827" stroke-width="0.659794" stroke-linecap="round" stroke-linejoin="round"/>
<path d="M103.643 5.45263L103.597 5.44298C103.65 5.44298 103.352 5.40758 102.708 5.3368C101.978 5.33036 101.363 5.64569 100.859 6.28277C100.382 6.88767 100.143 7.74998 100.143 8.87614V12.2192H99.4982V4.74154H100.143V6.20233C100.754 5.20809 101.641 4.70937 102.799 4.70937C102.888 4.71902 103.169 4.75763 103.64 4.8252V5.45263H103.643Z" stroke="#111827" stroke-width="0.659794" stroke-linecap="round" stroke-linejoin="round"/>
</svg>
