<svg width="523" height="147" viewBox="0 0 523 147" fill="none" xmlns="http://www.w3.org/2000/svg">
<path d="M108.456 19.2986C112.628 18.1344 118.885 16.9702 124.248 16.6814C143.012 15.5172 162.081 20.7608 158.805 38.5313C155.528 56.5905 124.248 65.3267 101.607 65.3267C84.9289 65.3267 67.3458 61.536 56.6302 53.6753C33.9894 73.4854 17.9017 99.9921 17.9017 118.917C17.9017 135.812 28.6268 142.509 43.5239 142.509C61.0975 142.509 75.0992 134.937 86.7196 127.365C94.4634 122.121 101.617 116.002 105.189 112.798C109.36 109.008 110.846 107.843 111.742 108.719C112.342 109.306 110.846 111.047 109.36 112.51C102.207 118.917 94.4634 125.614 87.9102 129.982C75.6992 138.43 60.5069 145.713 42.9333 146.588C18.197 147.464 0.918682 138.728 0.023335 117.176C-0.872012 91.5446 24.1501 63.8737 48.8769 46.392C44.705 41.1484 41.4284 34.7406 41.4284 28.0441C41.4379 11.7266 55.7349 0.950684 71.8226 0.950684C86.1196 0.950684 100.417 7.94524 108.465 19.2986H108.456ZM45.305 28.3328C45.305 33.8651 47.391 39.6955 51.2582 44.641C67.3458 34.1539 87.0054 25.1289 103.684 20.4628C94.4444 10.5624 81.9381 4.73203 69.4223 4.73203C56.9065 4.73203 45.2955 13.7663 45.2955 28.3235L45.305 28.3328ZM147.775 37.9445C150.756 24.5422 141.222 18.4324 125.429 18.7211C120.962 18.7211 113.218 20.1741 109.637 21.6363C112.018 25.7157 114.104 32.4122 114.704 37.6558C115.304 42.3126 114.704 45.2278 113.809 44.9391C113.218 44.6503 113.513 43.1881 112.618 39.118C111.427 33.297 108.151 26.5912 105.465 23.0986C89.6724 28.9196 71.8035 40.2822 58.9924 51.6449C69.4223 59.2169 86.1005 62.4208 102.188 62.4208C123.934 62.4208 144.489 52.2224 147.765 37.9538L147.775 37.9445Z" fill="#111827"/>
<path d="M115.542 121.553C108.446 126.918 104.579 130.541 97.4828 135.896C96.035 137.005 95.0635 137.312 93.2919 137.312C91.0344 137.312 90.0629 136.995 91.1964 134.788C92.8061 131.789 95.2254 128.166 97.9686 124.226C99.9022 121.544 106.027 113.506 111.837 106.409C116.028 101.203 121.352 94.8975 126.191 89.5422C131.83 83.3951 138.602 76.4565 145.536 70.1511C147.308 68.5771 149.242 67.4688 151.337 67.4688C152.947 67.4688 153.594 67.7854 153.756 68.5678C150.689 71.5668 136.507 86.8598 129.734 94.7392C116.352 110.349 106.198 124.375 102.322 129.898L102.483 130.057C106.351 126.899 111.675 122.336 117.314 118.228C122.953 114.13 130.049 109.716 134.887 109.716C138.278 109.716 140.212 111.29 139.888 113.972C139.402 116.813 136.021 120.436 133.44 123.593C130.858 126.592 129.087 128.958 128.115 130.532C126.982 132.422 126.829 133.531 127.467 133.996C128.277 134.63 130.049 133.996 131.335 133.363C133.268 132.413 135.364 131.314 139.078 128.473C141.822 126.424 145.041 123.584 146.822 122.01C148.108 120.911 148.594 120.752 148.918 121.06C149.242 121.376 148.756 122.01 147.632 123.109C146.184 124.524 141.345 128.781 137.954 131.305C134.725 133.67 128.439 137.61 123.438 137.61C120.209 137.61 118.438 136.194 118.6 133.512C118.762 130.047 122.305 126.098 125.372 122.475C127.791 119.635 130.211 117.111 132.144 114.754C132.792 113.963 133.116 113.022 132.306 112.547C131.497 112.072 129.725 112.705 128.115 113.497C125.21 114.913 120.695 117.595 115.542 121.535V121.553Z" fill="#111827"/>
<path d="M152.947 118.871C150.527 120.762 148.756 122.177 147.146 123.602C145.86 124.711 145.212 125.176 144.727 124.86C144.403 124.543 144.727 123.91 146.498 122.336C148.27 120.762 154.08 116.03 157.947 113.506C162.138 110.666 164.234 110.042 167.301 110.042C170.692 110.042 171.006 110.517 169.073 112.566C166.167 115.723 163.586 118.713 160.367 122.652C157.624 125.968 155.69 128.799 154.728 130.373C153.756 132.106 153.594 133.214 154.242 133.838C155.052 134.471 156.5 134.155 158.109 133.363C159.719 132.571 162.462 130.839 165.205 128.632C168.596 125.949 170.044 124.692 172.625 122.326C174.073 121.069 174.721 120.436 175.207 120.911C175.692 121.386 173.921 122.96 173.435 123.435C171.501 125.325 167.472 128.799 164.243 131.314C161.014 133.838 155.538 137.778 150.213 137.778C146.832 137.778 145.374 136.204 145.374 133.68C145.374 131.631 146.508 129.582 147.794 127.691C151.023 122.801 157.309 116.338 159.89 114.13C158.757 114.605 155.376 116.971 152.956 118.862L152.947 118.871ZM182.455 88.7598C184.551 88.7598 185.522 90.4922 183.589 92.8578C181.655 95.3818 177.626 97.1142 176.007 97.1142C175.197 96.1642 175.035 93.8078 175.845 91.7495C176.816 89.3839 179.226 88.7505 182.293 88.7505H182.455V88.7598Z" fill="#111827"/>
<path d="M179.236 138.104C173.273 138.104 170.368 135.738 170.692 131.482C171.016 128.324 172.787 125.018 175.369 122.019L175.207 121.861C174.721 122.336 173.435 123.435 172.463 124.226C171.492 125.018 170.692 125.484 170.368 125.176C170.044 124.701 170.692 124.077 171.339 123.444C173.435 121.553 174.883 120.445 177.302 118.713C179.074 117.455 182.303 115.406 185.046 113.981C190.532 111.141 195.685 109.092 199.876 109.725C203.581 110.358 204.877 112.724 204.229 115.714C203.581 118.713 200.848 121.078 198.743 121.078C196 121.078 196 118.871 197.457 116.505C199.229 113.506 199.876 111.616 197.943 111.299C196.171 110.982 192.456 113.348 187.941 117.921C183.589 122.177 179.398 128.166 178.912 131.957C178.588 134.322 180.045 135.58 182.617 135.58C184.713 135.58 190.361 134.63 197.447 129.908C200.514 127.859 204.544 124.552 207.125 122.345C208.096 121.553 208.573 121.395 208.896 121.712C209.22 122.187 208.573 122.82 207.611 123.761C205.515 125.651 201 129.433 198.095 131.323C192.456 135.105 184.874 138.104 179.388 138.104H179.226H179.236Z" fill="#111827"/>
<path d="M235.185 137.629C231.956 137.629 230.185 136.213 230.347 133.531C230.509 130.066 234.052 126.117 237.119 122.494C239.538 119.653 241.958 117.129 243.891 114.773C244.539 113.981 244.863 113.04 244.053 112.565C243.243 112.09 241.472 112.724 239.862 113.515C236.957 114.931 232.442 117.614 227.289 121.553C220.193 126.918 216.326 130.541 209.23 135.896C207.782 137.005 206.81 137.312 205.039 137.312C202.781 137.312 201.81 136.995 202.943 134.788C204.553 131.789 206.81 128.166 209.554 124.226C210.84 122.336 212.459 120.287 214.392 117.921V117.763C211.973 119.812 210.039 121.544 208.268 123.118C207.296 123.91 206.82 124.068 206.496 123.593C206.334 123.118 206.82 122.643 207.306 122.177C207.953 121.544 214.078 116.347 217.783 113.348C223.27 106.251 230.042 97.7382 237.29 89.7005C246.644 79.1388 266.313 58.9561 274.695 53.2841C279.21 50.1268 283.725 46.9787 288.401 46.9787C292.592 46.9787 293.888 49.8194 293.402 52.6508C292.116 60.2134 276.628 72.8335 260.35 86.0775C250.511 93.9568 239.386 101.529 227.461 111.774C224.717 114.773 217.945 124.385 214.078 129.908L214.24 130.066C218.107 126.909 223.432 122.345 229.07 118.238C234.709 114.14 241.805 109.725 246.644 109.725C250.025 109.725 251.968 111.299 251.645 113.981C251.159 116.822 247.777 120.445 245.196 123.602C242.615 126.601 240.843 128.967 239.872 130.541C238.748 132.432 238.586 133.54 239.224 134.006C240.034 134.639 241.805 134.006 243.091 133.372C245.025 132.422 247.12 131.323 250.835 128.483C253.578 126.434 256.798 123.593 258.579 122.019C259.865 120.92 260.35 120.762 260.674 121.069C260.998 121.386 260.512 122.019 259.388 123.118C257.941 124.534 253.102 128.79 249.711 131.314C246.482 133.68 240.195 137.619 235.195 137.619L235.185 137.629ZM258.884 84.3358C274.362 71.2501 288.716 58.6394 289.354 51.7008C289.516 49.6518 288.382 48.7018 286.611 48.7018C283.867 48.7018 279.515 51.8591 276.133 55.0071C270.809 60.2135 263.074 67.7761 254.693 77.5555C242.92 91.2745 238.729 96.3132 230.023 107.667C245.339 94.5808 251.464 90.6412 258.884 84.3358Z" fill="#111827"/>
<path d="M265.494 117.772C263.074 119.821 261.141 121.553 259.369 123.127C258.398 123.919 257.921 124.077 257.598 123.602C257.436 123.127 257.921 122.652 258.407 122.187C259.055 121.553 265.179 116.356 268.723 113.357C274.209 106.26 280.981 97.7475 288.392 89.7098C297.745 79.1481 316.129 60.3811 325.796 53.2934C330.473 49.9871 334.826 46.9881 339.503 46.9881C343.694 46.9881 344.98 49.8287 344.503 52.6601C343.218 60.2228 327.739 72.8428 311.452 86.0868C301.612 93.9661 288.068 103.429 278.562 111.783C275.819 114.782 267.761 126.126 265.665 129.125L265.989 129.284C270.504 125.344 274.371 121.712 279.857 117.614C282.763 115.406 287.439 112.407 290.497 111.15C293.24 110.051 295.983 109.576 298.555 109.734C302.908 110.051 305.327 113.041 303.879 116.04C302.755 118.089 300.012 118.88 296.298 119.346C293.069 119.821 290.335 120.138 289.363 121.553C288.392 122.969 287.916 125.176 288.077 128.017C288.401 131.798 289.201 133.531 290.821 133.847C291.945 134.006 293.24 133.531 295.012 132.59C296.459 131.798 298.555 130.541 301.136 128.492C304.518 125.81 306.937 123.761 308.87 122.028C309.032 121.87 310.48 120.613 310.966 121.078C311.452 121.712 309.833 122.969 309.356 123.444C307.261 125.335 303.717 128.492 299.841 131.482C296.774 133.847 290.973 137.629 285.972 137.629C282.743 137.629 280.324 135.58 280.486 130.215C280.648 126.117 282.743 122.801 284.029 121.544C285.477 120.128 288.382 119.178 290.64 118.862C292.411 118.545 294.345 118.07 295.64 116.654C296.612 115.555 297.412 112.873 295.478 112.081C294.354 111.606 292.259 112.081 290.478 112.873C286.287 114.764 283.058 116.971 278.219 120.752C271.285 126.424 263.541 133.521 260.484 135.729C258.874 136.828 258.064 137.303 256.293 137.303C253.711 137.303 253.064 136.828 254.035 134.779C255.483 131.621 257.902 128.157 260.646 124.217C262.579 121.535 263.875 119.961 265.484 117.912V117.753L265.494 117.772ZM309.994 84.3451C325.311 71.2595 339.827 58.6488 340.465 51.7101C340.627 49.6611 339.493 48.7111 337.722 48.7111C334.978 48.7111 330.626 51.8684 327.244 55.0164C321.92 60.2228 314.185 67.7855 305.794 77.5648C298.374 86.2358 293.859 91.4421 281.124 107.676C296.44 94.5902 302.565 90.6505 309.985 84.3451H309.994Z" fill="#111827"/>
<path d="M331.769 97.7475C340.474 87.3441 347.57 81.0388 358.858 72.3678C368.211 65.4291 381.432 56.7581 394.329 56.7581C407.225 56.7581 415.131 64.7958 414.16 73.4668C413.998 75.5158 413.036 76.9315 412.55 76.7731C412.226 76.6148 412.874 75.5158 413.036 73.4668C413.521 66.6864 405.939 60.8561 393.852 60.8561C378.212 60.8561 369.183 66.3698 360.639 73.9418C353.866 80.0888 343.713 91.6005 333.388 105.319C326.292 114.782 319.196 124.552 315.49 129.917L315.652 130.075C319.519 126.918 324.844 122.354 330.483 118.247C336.121 114.149 343.218 109.734 348.056 109.734C351.438 109.734 353.381 111.308 353.057 113.991C352.571 116.831 349.19 120.454 346.608 123.611C344.027 126.61 342.256 128.976 341.284 130.55C340.16 132.441 339.998 133.549 340.636 134.015C341.446 134.648 343.218 134.015 344.503 133.382C346.437 132.432 348.532 131.333 352.238 128.492C354.981 126.443 358.2 123.602 359.982 122.028C361.267 120.929 361.753 120.771 362.077 121.078C362.401 121.395 361.915 122.028 360.791 123.127C359.343 124.543 354.505 128.799 351.114 131.323C347.885 133.689 341.598 137.629 336.598 137.629C333.369 137.629 331.597 136.213 331.759 133.531C331.921 130.066 335.464 126.117 338.531 122.494C340.951 119.653 343.37 117.129 345.303 114.773C345.951 113.981 346.275 113.04 345.465 112.565C344.656 112.09 342.884 112.724 341.274 113.515C338.369 114.931 333.854 117.614 328.701 121.553C321.605 126.918 317.738 130.541 310.642 135.896C309.194 137.005 308.223 137.312 306.451 137.312C304.194 137.312 303.222 136.995 304.356 134.788C305.965 131.789 308.223 128.166 310.966 124.226C312.252 122.336 313.871 120.287 315.805 117.921V117.763C313.385 119.812 311.452 121.544 309.68 123.118C308.709 123.91 308.232 124.068 307.908 123.593C307.747 123.118 308.232 122.643 308.718 122.177C309.366 121.544 315.49 116.347 319.196 113.348C321.777 110.042 327.901 102.311 331.769 97.7382V97.7475Z" fill="#111827"/>
<path d="M400.615 109.725C404.006 109.567 404.32 110.358 402.711 112.249C400.615 114.615 397.072 118.554 393.681 122.652C391.585 125.176 389.49 127.859 388.042 130.373C386.909 132.264 386.909 133.531 387.556 133.996C388.366 134.63 389.976 133.996 391.262 133.363C392.871 132.571 395.938 130.522 398.52 128.473C401.91 125.791 404.482 123.584 406.263 122.01C407.235 121.218 408.035 120.436 408.521 120.911C409.007 121.386 408.197 122.168 406.425 123.751C404.33 125.642 400.463 128.958 397.396 131.314C394.167 133.838 388.852 137.619 383.527 137.619C380.46 137.619 379.012 136.204 378.85 134.313C378.689 132.581 379.66 130.373 381.108 128.641L380.946 128.483C376.755 132.106 369.335 137.312 363.211 137.629C359.667 137.787 355.952 136.371 356.6 131.323C356.924 128.958 358.21 126.434 361.115 123.127L360.953 122.969C360.467 123.444 359.82 124.077 358.858 124.86C358.21 125.335 357.734 125.651 357.41 125.335C357.086 124.86 357.896 123.919 359.667 122.336C360.153 121.861 362.887 119.653 364.506 118.554C366.116 117.455 368.859 115.714 371.926 114.14C378.212 110.982 383.861 109.092 388.052 109.725C391.271 110.2 392.405 113.031 391.433 115.714C395.3 111.774 398.043 109.725 400.625 109.725H400.615ZM372.564 121.237C365.954 127.542 363.21 131.64 363.534 133.689C363.696 134.797 364.506 135.263 365.63 135.263C368.697 135.263 374.821 131.798 379.174 127.849C384.337 123.435 390.138 116.654 390.299 114.13C390.461 112.081 389.176 111.29 387.394 111.29C384.175 111.29 378.365 115.546 372.564 121.218V121.237Z" fill="#111827"/>
<path d="M434.791 133.531C434.953 130.066 438.496 126.117 441.563 122.494C443.982 119.653 446.402 116.98 448.335 114.773C448.983 113.981 449.307 113.041 448.497 112.566C447.687 112.091 445.916 112.724 444.306 113.516C441.401 114.931 436.886 117.614 431.733 121.553C424.637 126.918 420.77 130.541 413.674 135.896C412.226 137.005 411.254 137.312 409.483 137.312C407.225 137.312 406.101 136.995 407.387 134.788C408.521 132.739 411.902 127.533 414.483 124.226C416.255 121.861 419.16 118.238 420.932 116.03C422.056 114.615 422.38 113.823 422.056 113.348C421.57 112.715 420.608 113.031 419.636 113.506C417.703 114.456 415.284 116.189 413.35 117.763C411.254 119.495 408.673 121.702 406.416 123.751C404.806 125.167 404.158 125.642 403.673 125.167C403.349 124.692 404.158 123.91 406.092 122.168C408.026 120.436 411.578 117.12 414.474 114.913C418.827 111.597 422.056 109.706 425.437 109.706C428.504 109.706 429.466 111.439 429.466 113.171C429.466 115.062 428.18 117.111 426.085 119.951C423.665 123.099 420.284 127.365 418.503 129.88L418.665 130.038C422.532 126.881 427.856 122.317 433.495 118.21C439.134 114.112 446.23 109.697 451.069 109.697C454.46 109.697 456.393 111.271 456.069 113.953C455.584 116.794 452.202 120.417 449.621 123.574C447.04 126.573 445.106 129.246 444.297 130.513C443.011 132.562 443.011 133.512 443.649 133.978C444.458 134.611 446.23 133.978 447.516 133.344C449.45 132.394 451.707 131.137 455.26 128.455C458.003 126.406 461.222 123.565 462.994 121.991C464.28 120.892 464.766 120.734 465.09 121.041C465.413 121.358 464.928 121.991 463.794 123.09C462.346 124.506 457.508 128.762 454.117 131.286C450.888 133.652 444.601 137.591 439.601 137.591C436.534 137.591 434.6 136.176 434.762 133.493L434.791 133.531Z" fill="#111827"/>
<path d="M465.432 122.028L465.271 121.87C464.785 122.345 463.013 123.919 462.042 124.711C461.232 125.344 460.756 125.502 460.432 125.186C460.108 124.711 460.756 124.087 461.403 123.453C463.499 121.563 464.947 120.454 467.366 118.722C469.138 117.465 472.205 115.565 475.262 113.991C478.967 111.942 484.778 109.576 489.131 109.576C492.512 109.576 494.131 111.467 493.969 113.832C493.645 117.93 488.483 121.088 483.654 123.453C478.815 125.819 473.814 127.551 470.433 128.343C470.109 128.976 469.623 131.025 469.623 132.124C469.623 134.807 470.747 137.955 476.882 137.955C483.33 137.955 491.236 135.114 496.065 132.748C502.837 129.442 509.933 123.444 513.8 118.405C517.344 113.674 521.697 106.577 521.697 99.4892C521.697 96.1828 521.049 95.7078 521.535 95.3912C522.02 95.0745 522.82 96.8068 522.982 99.4892C523.306 108.477 519.115 115.099 515.562 119.672C511.048 125.502 504.275 130.55 496.541 134.332C492.026 136.539 484.12 139.696 476.386 140.004C466.071 140.32 460.908 137.955 461.232 131.016C461.394 127.859 463.489 124.236 465.423 122.028H465.432ZM481.72 122.028C485.749 119.346 488.331 115.881 488.331 113.674C488.331 112.417 487.845 111.625 486.397 111.625C484.949 111.625 482.53 113.199 479.301 116.198C476.72 118.564 472.852 123.137 471.081 126.76C474.31 125.968 478.339 124.236 481.72 122.028Z" fill="#111827"/>
</svg>
