<svg width="20" height="16" viewBox="0 0 20 16" fill="none" xmlns="http://www.w3.org/2000/svg">
<path d="M19.5781 2.84184C19.4643 2.38881 19.2414 1.97575 18.9318 1.64401C18.6222 1.31226 18.2367 1.07347 17.8139 0.951531C16.2568 0.5 10 0.5 10 0.5C10 0.5 3.74319 0.5 2.18613 0.951531C1.76333 1.07347 1.37783 1.31226 1.06822 1.64401C0.758609 1.97575 0.535749 2.38881 0.421943 2.84184C0.131206 4.54332 -0.00988125 6.27027 0.000537425 8C-0.00988125 9.72973 0.131206 11.4567 0.421943 13.1582C0.535749 13.6112 0.758609 14.0243 1.06822 14.356C1.37783 14.6877 1.76333 14.9265 2.18613 15.0485C3.74319 15.5 10 15.5 10 15.5C10 15.5 16.2568 15.5 17.8139 15.0485C18.2367 14.9265 18.6222 14.6877 18.9318 14.356C19.2414 14.0243 19.4643 13.6112 19.5781 13.1582C19.8688 11.4567 20.0099 9.72973 19.9995 8C20.0099 6.27027 19.8688 4.54332 19.5781 2.84184ZM8.00011 11.2143V4.78572L13.1927 8L8.00011 11.2143Z" fill="#111827"/>
</svg>
