<svg width="19" height="16" viewBox="0 0 19 16" fill="none" xmlns="http://www.w3.org/2000/svg">
<path d="M18.9894 4.84655L18.9836 4.80457C18.9731 4.75204 18.9542 4.70131 18.9275 4.65413L16.1277 0.415584C16.1277 0.415584 15.7706 0 15.6858 0H3.75471L0.16655 4.51034L0.124128 4.5519L0.118384 4.57143C0.088073 4.61722 0.063179 4.666 0.0441461 4.71688L0.0295637 4.75719C-0.0117791 4.88622 -0.00977288 5.02409 0.0353083 5.152L0.0521002 5.1973C0.0746367 5.25091 0.102476 5.29995 0.135176 5.34358L8.80995 15.6779L8.82762 15.7016C8.87225 15.7556 8.92661 15.8034 8.99289 15.8471L9.04326 15.8766C9.09276 15.9057 9.14446 15.9289 9.21958 15.9547L9.26863 15.9701C9.35347 15.9904 9.42727 16 9.4993 16C9.57221 16 9.64335 15.9909 9.73924 15.9676L9.79802 15.9481C9.85546 15.9289 9.90716 15.9052 9.96947 15.8691L10.0084 15.8462C10.0751 15.8018 10.1285 15.7536 10.1582 15.7157L18.844 5.3706C18.9208 5.27423 18.9709 5.1614 18.9898 5.04229L18.9964 4.98867L19 4.94629L18.9894 4.84655ZM14.3318 4.57143L15.5682 2.46732L16.8038 4.57143H14.3318ZM13.5903 5.81818H16.5236L11.6345 11.6426L13.5903 5.81818ZM12.8647 3.94057L11.0791 1.66234H14.2032L12.8647 3.94057ZM7.1449 5.81818H11.855L9.4993 12.832L7.1449 5.81818ZM7.61198 4.57143L9.4993 2.1627L11.3866 4.57143H7.61198ZM6.28277 3.7519L5.46439 1.66234H7.91998L6.28277 3.7519ZM7.36496 11.643L2.47543 5.81818H5.40915L7.36496 11.643ZM4.04857 2.48187L4.86739 4.57143H2.41136L4.04857 2.48187Z" fill="#111827"/>
</svg>
